<svg width="96" height="41" viewBox="0 0 96 41" fill="none" xmlns="http://www.w3.org/2000/svg">
<path d="M0.59375 30L6.93066 0.0175781H14.9492L10.0068 23.458H19.7891L18.3945 30H0.59375ZM32.7295 30.4102C30.8291 30.4102 29.209 30.0615 27.8691 29.3643C26.543 28.667 25.5312 27.6553 24.834 26.3291C24.1367 24.9893 23.7881 23.3691 23.7881 21.4688C23.7881 19.8828 23.9658 18.3516 24.3213 16.875C24.6768 15.3848 25.21 14.0039 25.9209 12.7324C26.6318 11.4609 27.5137 10.3467 28.5664 9.38965C29.6191 8.43262 30.8359 7.6875 32.2168 7.1543C33.6113 6.62109 35.1699 6.35449 36.8926 6.35449C38.793 6.35449 40.4062 6.70312 41.7324 7.40039C43.0723 8.09766 44.0908 9.11621 44.7881 10.4561C45.4854 11.7822 45.834 13.3955 45.834 15.2959C45.834 16.8818 45.6562 18.4199 45.3008 19.9102C44.9453 21.3867 44.4121 22.7607 43.7012 24.0322C42.9902 25.3037 42.1084 26.418 41.0557 27.375C40.0029 28.332 38.7793 29.0771 37.3848 29.6104C36.0039 30.1436 34.4521 30.4102 32.7295 30.4102ZM33.6113 24.4629C34.0762 24.4629 34.5137 24.2852 34.9238 23.9297C35.3477 23.5742 35.7305 23.0889 36.0723 22.4736C36.4141 21.8447 36.708 21.1338 36.9541 20.3408C37.2002 19.5342 37.3916 18.6797 37.5283 17.7773C37.665 16.875 37.7334 15.9658 37.7334 15.0498C37.7334 14.4482 37.6582 13.9492 37.5078 13.5527C37.3711 13.1426 37.1729 12.835 36.9131 12.6299C36.6533 12.4248 36.3389 12.3223 35.9697 12.3223C35.5049 12.3223 35.0605 12.5 34.6367 12.8555C34.2266 13.2109 33.8506 13.6963 33.5088 14.3115C33.1807 14.9268 32.8936 15.6377 32.6475 16.4443C32.4014 17.2373 32.21 18.0918 32.0732 19.0078C31.9502 19.9102 31.8887 20.8193 31.8887 21.7354C31.8887 22.6377 32.0391 23.3213 32.3398 23.7861C32.6406 24.2373 33.0645 24.4629 33.6113 24.4629ZM54.6934 40.0898C51.7949 40.0898 49.4844 39.5703 47.7617 38.5312C46.0527 37.5059 45.1982 36.0771 45.1982 34.2451C45.1982 32.9053 45.6631 31.75 46.5928 30.7793C47.5225 29.8086 48.9717 29.002 50.9404 28.3594C50.4346 28.0449 50.0176 27.6348 49.6895 27.1289C49.375 26.623 49.2178 26.083 49.2178 25.5088C49.2178 24.5381 49.5664 23.6768 50.2637 22.9248C50.9609 22.1729 52 21.4824 53.3809 20.8535C52.4922 20.1426 51.8223 19.3086 51.3711 18.3516C50.9199 17.3945 50.6943 16.3076 50.6943 15.0908C50.6943 13.874 50.8926 12.7666 51.2891 11.7686C51.6855 10.7705 52.2598 9.89551 53.0117 9.14355C53.9141 8.25488 55.042 7.57129 56.3955 7.09277C57.749 6.60059 59.2939 6.35449 61.0303 6.35449C61.7275 6.35449 62.459 6.39551 63.2246 6.47754C64.0039 6.55957 64.6191 6.65527 65.0703 6.76465H73.2529L72.4121 11.0098L69.1309 12.0762C69.1992 12.3496 69.2471 12.6504 69.2744 12.9785C69.3154 13.293 69.3359 13.6348 69.3359 14.0039C69.3359 15.2754 69.1172 16.4375 68.6797 17.4902C68.2422 18.5293 67.6201 19.4316 66.8135 20.1973C65.9795 21.0039 64.9541 21.6328 63.7373 22.084C62.5342 22.5215 61.1943 22.7402 59.7178 22.7402C59.1982 22.7402 58.7266 22.7197 58.3027 22.6787C57.8789 22.6377 57.5029 22.5693 57.1748 22.4736C56.9014 22.624 56.6689 22.7744 56.4775 22.9248C56.2861 23.0752 56.1904 23.2803 56.1904 23.54C56.1904 23.7314 56.2725 23.9092 56.4365 24.0732C56.5869 24.21 56.833 24.3398 57.1748 24.4629C57.5303 24.5859 57.9609 24.6816 58.4668 24.75L61.2764 25.1191C62.8623 25.3242 64.1475 25.666 65.1318 26.1445C66.1162 26.623 66.834 27.252 67.2852 28.0312C67.7363 28.8105 67.9619 29.7607 67.9619 30.8818C67.9619 32.3857 67.6475 33.7188 67.0186 34.8809C66.4033 36.0566 65.501 37.0342 64.3115 37.8135C63.1904 38.5654 61.8232 39.1328 60.21 39.5156C58.5967 39.8984 56.7578 40.0898 54.6934 40.0898ZM55.4521 34.8809C56.2314 34.8809 56.9902 34.8262 57.7285 34.7168C58.4668 34.6211 59.0889 34.4434 59.5947 34.1836C59.9365 34.0059 60.2031 33.7871 60.3945 33.5273C60.5996 33.2676 60.7021 32.96 60.7021 32.6045C60.7021 32.4131 60.668 32.2422 60.5996 32.0918C60.5449 31.9551 60.4629 31.832 60.3535 31.7227C60.0938 31.4629 59.7246 31.2783 59.2461 31.1689C58.7676 31.0596 58.2412 30.9775 57.667 30.9229L55.3086 30.6768C54.5977 30.7725 53.9893 30.9297 53.4834 31.1484C52.9912 31.3672 52.6152 31.6406 52.3555 31.9688C52.0957 32.2969 51.9658 32.6797 51.9658 33.1172C51.9658 33.7051 52.2529 34.1426 52.8271 34.4297C53.415 34.7305 54.29 34.8809 55.4521 34.8809ZM59.5537 17.7363C60.0322 17.7363 60.4492 17.5244 60.8047 17.1006C61.1738 16.6631 61.4609 16.0889 61.666 15.3779C61.8848 14.667 61.9941 13.9014 61.9941 13.0811C61.9941 12.7666 61.9668 12.4863 61.9121 12.2402C61.8711 11.9941 61.7959 11.7891 61.6865 11.625C61.5908 11.4609 61.4609 11.3379 61.2969 11.2559C61.1465 11.1738 60.9619 11.1328 60.7432 11.1328C60.3057 11.1328 59.9229 11.2832 59.5947 11.584C59.2803 11.8848 59.0137 12.2744 58.7949 12.7529C58.5898 13.2314 58.4326 13.7441 58.3232 14.291C58.2275 14.8242 58.1797 15.3301 58.1797 15.8086C58.1797 16.1094 58.2002 16.376 58.2412 16.6084C58.2959 16.8271 58.3711 17.0186 58.4668 17.1826C58.6992 17.5518 59.0615 17.7363 59.5537 17.7363ZM82.2354 30.4102C80.335 30.4102 78.7148 30.0615 77.375 29.3643C76.0488 28.667 75.0371 27.6553 74.3398 26.3291C73.6426 24.9893 73.2939 23.3691 73.2939 21.4688C73.2939 19.8828 73.4717 18.3516 73.8271 16.875C74.1826 15.3848 74.7158 14.0039 75.4268 12.7324C76.1377 11.4609 77.0195 10.3467 78.0723 9.38965C79.125 8.43262 80.3418 7.6875 81.7227 7.1543C83.1172 6.62109 84.6758 6.35449 86.3984 6.35449C88.2988 6.35449 89.9121 6.70312 91.2383 7.40039C92.5781 8.09766 93.5967 9.11621 94.2939 10.4561C94.9912 11.7822 95.3398 13.3955 95.3398 15.2959C95.3398 16.8818 95.1621 18.4199 94.8066 19.9102C94.4512 21.3867 93.918 22.7607 93.207 24.0322C92.4961 25.3037 91.6143 26.418 90.5615 27.375C89.5088 28.332 88.2852 29.0771 86.8906 29.6104C85.5098 30.1436 83.958 30.4102 82.2354 30.4102ZM83.1172 24.4629C83.582 24.4629 84.0195 24.2852 84.4297 23.9297C84.8535 23.5742 85.2363 23.0889 85.5781 22.4736C85.9199 21.8447 86.2139 21.1338 86.46 20.3408C86.7061 19.5342 86.8975 18.6797 87.0342 17.7773C87.1709 16.875 87.2393 15.9658 87.2393 15.0498C87.2393 14.4482 87.1641 13.9492 87.0137 13.5527C86.877 13.1426 86.6787 12.835 86.4189 12.6299C86.1592 12.4248 85.8447 12.3223 85.4756 12.3223C85.0107 12.3223 84.5664 12.5 84.1426 12.8555C83.7324 13.2109 83.3564 13.6963 83.0146 14.3115C82.6865 14.9268 82.3994 15.6377 82.1533 16.4443C81.9072 17.2373 81.7158 18.0918 81.5791 19.0078C81.4561 19.9102 81.3945 20.8193 81.3945 21.7354C81.3945 22.6377 81.5449 23.3213 81.8457 23.7861C82.1465 24.2373 82.5703 24.4629 83.1172 24.4629Z" fill="#212020"/>
</svg>
