<svg width="16" height="16" viewBox="0 0 16 16" fill="none" xmlns="http://www.w3.org/2000/svg">
<path d="M8.22998 0.25C12.5112 0.25 15.98 3.71875 15.98 8C15.98 12.2812 12.5112 15.75 8.22998 15.75C3.94873 15.75 0.47998 12.2812 0.47998 8C0.47998 3.71875 3.94873 0.25 8.22998 0.25ZM7.32373 4.75L9.66748 7H3.97998C3.54248 7 3.22998 7.34375 3.22998 7.75V8.25C3.22998 8.6875 3.54248 9 3.97998 9H9.66748L7.32373 11.2812C7.01123 11.5625 7.01123 12.0625 7.29248 12.3438L7.63623 12.6875C7.94873 12.9688 8.41748 12.9688 8.69873 12.6875L12.855 8.53125C13.1362 8.25 13.1362 7.78125 12.855 7.5L8.69873 3.34375C8.41748 3.03125 7.94873 3.03125 7.63623 3.34375L7.29248 3.6875C7.01123 3.96875 7.01123 4.46875 7.32373 4.75Z" fill="white"/>
</svg>
