<svg width="124" height="153" viewBox="0 0 124 153" fill="none" xmlns="http://www.w3.org/2000/svg">
<rect x="25.08" y="22.5" width="74" height="74" rx="37" fill="#FCFCFC"/>
<path d="M77.9394 68.9531L79.3613 69.7734C79.5253 69.8281 79.58 70.0469 79.5253 70.2109C79.1425 71.4141 78.5409 72.4531 77.7206 73.3828C77.6113 73.4922 77.3925 73.5469 77.2284 73.4375L75.8066 72.6172C75.205 73.1094 74.5488 73.5469 73.7831 73.7656V75.4062C73.7831 75.625 73.6738 75.7891 73.5097 75.7891C72.3066 76.0625 71.1034 76.0625 69.8456 75.7891C69.6816 75.7891 69.5722 75.625 69.5722 75.4062V73.7656C68.8066 73.5469 68.1503 73.1094 67.5488 72.6172L66.1269 73.4375C65.9628 73.5469 65.7441 73.4922 65.6347 73.3828C64.8144 72.4531 64.1581 71.4141 63.83 70.2109C63.7753 70.0469 63.83 69.8281 63.9941 69.7734L65.4159 68.9531C65.2519 68.1875 65.2519 67.3672 65.4159 66.6016L63.9941 65.7812C63.83 65.7266 63.7753 65.5078 63.83 65.3438C64.1581 64.1406 64.8144 63.1016 65.6347 62.1719C65.7441 62.0625 65.9628 62.0078 66.1269 62.1172L67.5488 62.9375C68.1503 62.4453 68.8066 62.0078 69.5722 61.7891V60.1484C69.5722 59.9297 69.6816 59.7656 69.8456 59.7656C71.0488 59.4922 72.2519 59.4922 73.5097 59.7656C73.6738 59.7656 73.7831 59.9297 73.7831 60.1484V61.7891C74.5488 62.0078 75.205 62.4453 75.8066 62.9375L77.2284 62.1172C77.3925 62.0078 77.6113 62.0625 77.7206 62.1719C78.5409 63.1016 79.1425 64.1406 79.5253 65.3438C79.58 65.5078 79.5253 65.7266 79.3613 65.7812L77.9394 66.6016C78.1034 67.3672 78.1034 68.1875 77.9394 68.9531ZM71.705 70.4297C73.1269 70.4297 74.33 69.2266 74.33 67.75C74.33 66.3281 73.1269 65.125 71.705 65.125C70.2284 65.125 69.0253 66.3281 69.0253 67.75C69.0253 69.2266 70.2284 70.4297 71.705 70.4297ZM56.83 62.5C52.9472 62.5 49.83 59.3828 49.83 55.5C49.83 51.6719 52.9472 48.5 56.83 48.5C60.6581 48.5 63.83 51.6719 63.83 55.5C63.83 59.3828 60.6581 62.5 56.83 62.5ZM67.8222 74.9141V75.4062C67.8222 75.625 67.8769 75.8438 67.9316 76.0625C67.4941 76.3359 67.0019 76.5 66.455 76.5H47.205C45.7284 76.5 44.58 75.3516 44.58 73.875V71.6328C44.58 67.5859 47.8613 64.25 51.9081 64.25H52.8378C54.0409 64.8516 55.4081 65.125 56.83 65.125C58.2519 65.125 59.5644 64.8516 60.7675 64.25H61.6972C61.9159 64.25 62.1347 64.3047 62.3534 64.3594C62.2988 64.5234 62.1894 64.6328 62.1347 64.7969C61.8613 65.7812 62.2441 66.8203 63.1191 67.3125L63.5566 67.5859C63.5566 67.6953 63.5566 67.8594 63.5566 67.9688L63.1191 68.2422C62.2441 68.7344 61.8613 69.7734 62.1347 70.7578C62.5722 72.125 63.3378 73.4922 64.3769 74.5312C64.7597 74.9688 65.3613 75.2422 65.9081 75.2422C66.2909 75.2422 66.6738 75.1328 67.0019 74.9688L67.4394 74.6953C67.5488 74.75 67.6581 74.8594 67.8222 74.9141Z" fill="#FECE01"/>
<rect x="25.08" y="22.5" width="74" height="74" rx="37" stroke="#DDDDDD"/>
<rect x="51.33" y="0.5" width="72.17" height="43" rx="3.5" fill="white"/>
<path d="M76.0058 31H73.2402V19.9727C73.2402 19.6055 73.2441 19.2383 73.2519 18.8711C73.2597 18.5039 73.2675 18.1445 73.2753 17.793C73.2909 17.4414 73.3105 17.1055 73.3339 16.7852C73.1698 16.9648 72.9667 17.1602 72.7245 17.3711C72.4902 17.582 72.2402 17.8008 71.9745 18.0273L70.0058 19.5977L68.623 17.8516L73.7089 13.8672H76.0058V31ZM87.4667 20.2891C88.5683 20.2891 89.537 20.4883 90.373 20.8867C91.2167 21.2773 91.873 21.8555 92.3417 22.6211C92.8105 23.3789 93.0448 24.3086 93.0448 25.4102C93.0448 26.6133 92.7909 27.6523 92.2831 28.5273C91.7753 29.3945 91.0292 30.0625 90.0448 30.5312C89.0605 31 87.8613 31.2344 86.4472 31.2344C85.5488 31.2344 84.7089 31.1562 83.9277 31C83.1542 30.8438 82.4863 30.6094 81.9238 30.2969V27.8125C82.5097 28.1406 83.2128 28.4102 84.0331 28.6211C84.8534 28.8242 85.6386 28.9258 86.3886 28.9258C87.1855 28.9258 87.8691 28.8086 88.4394 28.5742C89.0097 28.3398 89.4472 27.9805 89.7519 27.4961C90.0644 27.0117 90.2206 26.3984 90.2206 25.6562C90.2206 24.6719 89.9042 23.9141 89.2714 23.3828C88.6464 22.8438 87.6659 22.5742 86.33 22.5742C85.8613 22.5742 85.3613 22.6172 84.83 22.7031C84.3066 22.7812 83.8691 22.8672 83.5175 22.9609L82.3105 22.2461L82.955 13.8672H91.8613V16.293H85.3808L85.0058 20.5586C85.287 20.4961 85.623 20.4375 86.0136 20.3828C86.4042 20.3203 86.8886 20.2891 87.4667 20.2891ZM106.978 22.4219C106.978 23.8047 106.869 25.043 106.65 26.1367C106.439 27.2227 106.103 28.1445 105.643 28.9023C105.182 29.6602 104.58 30.2383 103.838 30.6367C103.096 31.0352 102.197 31.2344 101.143 31.2344C99.8222 31.2344 98.7323 30.8867 97.873 30.1914C97.0136 29.4883 96.3769 28.4805 95.9628 27.168C95.5488 25.8477 95.3417 24.2656 95.3417 22.4219C95.3417 20.5781 95.5292 19 95.9042 17.6875C96.287 16.3672 96.9042 15.3555 97.7558 14.6523C98.6073 13.9492 99.7363 13.5977 101.143 13.5977C102.471 13.5977 103.564 13.9492 104.424 14.6523C105.291 15.3477 105.932 16.3555 106.346 17.6758C106.768 18.9883 106.978 20.5703 106.978 22.4219ZM98.1191 22.4219C98.1191 23.8672 98.2128 25.0742 98.4003 26.043C98.5956 27.0117 98.9159 27.7383 99.3613 28.2227C99.8066 28.6992 100.4 28.9375 101.143 28.9375C101.885 28.9375 102.478 28.6992 102.924 28.2227C103.369 27.7461 103.689 27.0234 103.885 26.0547C104.088 25.0859 104.189 23.875 104.189 22.4219C104.189 20.9844 104.092 19.7812 103.896 18.8125C103.701 17.8438 103.381 17.1172 102.935 16.6328C102.49 16.1406 101.893 15.8945 101.143 15.8945C100.393 15.8945 99.7948 16.1406 99.3495 16.6328C98.912 17.1172 98.5956 17.8438 98.4003 18.8125C98.2128 19.7812 98.1191 20.9844 98.1191 22.4219Z" fill="#444444"/>
<rect x="51.33" y="0.5" width="72.17" height="43" rx="3.5" stroke="#DDDDDD"/>
<path d="M8.12875 131H1.66V119.578H8.12875V121.156H3.535V124.258H7.83969V125.828H3.535V129.414H8.12875V131ZM13.3241 126.578L10.4334 122.352H12.5272L14.5038 125.391L16.4881 122.352H18.5741L15.6678 126.578L18.7225 131H16.6209L14.5038 127.758L12.3788 131H10.2928L13.3241 126.578ZM25.66 122.188C26.686 122.188 27.509 122.562 28.1288 123.312C28.7538 124.062 29.0663 125.177 29.0663 126.656C29.0663 127.635 28.9204 128.461 28.6288 129.133C28.3423 129.799 27.9386 130.305 27.4178 130.648C26.9022 130.987 26.3006 131.156 25.6131 131.156C25.1756 131.156 24.7954 131.099 24.4725 130.984C24.1496 130.87 23.8735 130.721 23.6444 130.539C23.4152 130.352 23.2225 130.148 23.0663 129.93H22.9569C22.9829 130.138 23.0064 130.37 23.0272 130.625C23.0532 130.875 23.0663 131.104 23.0663 131.312V134.836H21.2225V122.352H22.7225L22.9803 123.547H23.0663C23.2277 123.302 23.423 123.076 23.6522 122.867C23.8866 122.659 24.1678 122.495 24.4959 122.375C24.8293 122.25 25.2173 122.188 25.66 122.188ZM25.1678 123.688C24.6626 123.688 24.2564 123.789 23.9491 123.992C23.647 124.19 23.4256 124.49 23.285 124.891C23.1496 125.292 23.0767 125.794 23.0663 126.398V126.656C23.0663 127.297 23.1314 127.841 23.2616 128.289C23.397 128.732 23.6183 129.07 23.9256 129.305C24.2381 129.534 24.66 129.648 25.1913 129.648C25.6392 129.648 26.009 129.526 26.3006 129.281C26.5975 129.036 26.8189 128.688 26.9647 128.234C27.1105 127.781 27.1834 127.247 27.1834 126.633C27.1834 125.701 27.0168 124.977 26.6834 124.461C26.3553 123.945 25.8501 123.688 25.1678 123.688ZM35.6366 122.188C36.4074 122.188 37.0689 122.346 37.6209 122.664C38.173 122.982 38.5975 123.432 38.8944 124.016C39.1913 124.599 39.3397 125.297 39.3397 126.109V127.094H33.5663C33.5871 127.932 33.811 128.578 34.2381 129.031C34.6704 129.484 35.2746 129.711 36.0506 129.711C36.6027 129.711 37.0975 129.659 37.535 129.555C37.9777 129.445 38.4334 129.286 38.9022 129.078V130.57C38.4699 130.773 38.0298 130.922 37.5819 131.016C37.134 131.109 36.5975 131.156 35.9725 131.156C35.1235 131.156 34.3761 130.992 33.7303 130.664C33.0897 130.331 32.5871 129.836 32.2225 129.18C31.8631 128.523 31.6834 127.708 31.6834 126.734C31.6834 125.766 31.8475 124.943 32.1756 124.266C32.5038 123.589 32.9647 123.073 33.5584 122.719C34.1522 122.365 34.8449 122.188 35.6366 122.188ZM35.6366 123.57C35.0584 123.57 34.5897 123.758 34.2303 124.133C33.8761 124.508 33.6678 125.057 33.6053 125.781H37.5428C37.5376 125.349 37.4647 124.966 37.3241 124.633C37.1886 124.299 36.9803 124.039 36.6991 123.852C36.423 123.664 36.0689 123.57 35.6366 123.57ZM46.7928 122.188C46.9386 122.188 47.0975 122.195 47.2694 122.211C47.4413 122.227 47.5897 122.247 47.7147 122.273L47.5428 123.992C47.4334 123.961 47.298 123.938 47.1366 123.922C46.9803 123.906 46.8397 123.898 46.7147 123.898C46.3866 123.898 46.0741 123.953 45.7772 124.062C45.4803 124.167 45.2173 124.328 44.9881 124.547C44.759 124.76 44.5793 125.029 44.4491 125.352C44.3189 125.674 44.2538 126.049 44.2538 126.477V131H42.41V122.352H43.8475L44.0975 123.875H44.1834C44.3553 123.568 44.5689 123.286 44.8241 123.031C45.0793 122.776 45.3709 122.573 45.6991 122.422C46.0324 122.266 46.397 122.188 46.7928 122.188ZM53.535 129.672C53.7746 129.672 54.0116 129.651 54.2459 129.609C54.4803 129.562 54.6939 129.508 54.8866 129.445V130.836C54.6834 130.924 54.4204 131 54.0975 131.062C53.7746 131.125 53.4386 131.156 53.0897 131.156C52.6001 131.156 52.16 131.076 51.7694 130.914C51.3788 130.747 51.0689 130.464 50.8397 130.062C50.6105 129.661 50.4959 129.107 50.4959 128.398V123.75H49.3163V122.93L50.5819 122.281L51.1834 120.43H52.3397V122.352H54.8163V123.75H52.3397V128.375C52.3397 128.812 52.4491 129.138 52.6678 129.352C52.8866 129.565 53.1756 129.672 53.535 129.672ZM72.2616 125.18C72.2616 126.466 72.022 127.542 71.5428 128.406C71.0636 129.266 70.3683 129.914 69.4569 130.352C68.5454 130.784 67.4465 131 66.16 131H62.9881V119.578H66.5038C67.686 119.578 68.7069 119.792 69.5663 120.219C70.4256 120.641 71.0897 121.268 71.5584 122.102C72.0272 122.93 72.2616 123.956 72.2616 125.18ZM70.3084 125.234C70.3084 124.297 70.16 123.526 69.8631 122.922C69.5715 122.318 69.1392 121.87 68.5663 121.578C67.9985 121.281 67.298 121.133 66.4647 121.133H64.8631V129.43H66.1913C67.5715 129.43 68.6027 129.078 69.285 128.375C69.9673 127.672 70.3084 126.625 70.3084 125.234ZM79.9178 122.188C80.0636 122.188 80.2225 122.195 80.3944 122.211C80.5663 122.227 80.7147 122.247 80.8397 122.273L80.6678 123.992C80.5584 123.961 80.423 123.938 80.2616 123.922C80.1053 123.906 79.9647 123.898 79.8397 123.898C79.5116 123.898 79.1991 123.953 78.9022 124.062C78.6053 124.167 78.3423 124.328 78.1131 124.547C77.884 124.76 77.7043 125.029 77.5741 125.352C77.4439 125.674 77.3788 126.049 77.3788 126.477V131H75.535V122.352H76.9725L77.2225 123.875H77.3084C77.4803 123.568 77.6939 123.286 77.9491 123.031C78.2043 122.776 78.4959 122.573 78.8241 122.422C79.1574 122.266 79.522 122.188 79.9178 122.188ZM85.2772 122.352V131H83.4413V122.352H85.2772ZM84.3709 119.039C84.6522 119.039 84.8944 119.115 85.0975 119.266C85.3058 119.417 85.41 119.677 85.41 120.047C85.41 120.411 85.3058 120.672 85.0975 120.828C84.8944 120.979 84.6522 121.055 84.3709 121.055C84.0793 121.055 83.8319 120.979 83.6288 120.828C83.4308 120.672 83.3319 120.411 83.3319 120.047C83.3319 119.677 83.4308 119.417 83.6288 119.266C83.8319 119.115 84.0793 119.039 84.3709 119.039ZM90.8866 131L87.5975 122.352H89.5428L91.3241 127.43C91.4386 127.753 91.5428 128.102 91.6366 128.477C91.7303 128.852 91.7954 129.167 91.8319 129.422H91.8944C91.9308 129.156 92.0011 128.839 92.1053 128.469C92.2095 128.094 92.3163 127.747 92.4256 127.43L94.2069 122.352H96.1444L92.8553 131H90.8866ZM101.902 122.188C102.673 122.188 103.334 122.346 103.887 122.664C104.439 122.982 104.863 123.432 105.16 124.016C105.457 124.599 105.605 125.297 105.605 126.109V127.094H99.8319C99.8527 127.932 100.077 128.578 100.504 129.031C100.936 129.484 101.54 129.711 102.316 129.711C102.868 129.711 103.363 129.659 103.801 129.555C104.243 129.445 104.699 129.286 105.168 129.078V130.57C104.736 130.773 104.295 130.922 103.848 131.016C103.4 131.109 102.863 131.156 102.238 131.156C101.389 131.156 100.642 130.992 99.9959 130.664C99.3553 130.331 98.8527 129.836 98.4881 129.18C98.1288 128.523 97.9491 127.708 97.9491 126.734C97.9491 125.766 98.1131 124.943 98.4413 124.266C98.7694 123.589 99.2303 123.073 99.8241 122.719C100.418 122.365 101.111 122.188 101.902 122.188ZM101.902 123.57C101.324 123.57 100.855 123.758 100.496 124.133C100.142 124.508 99.9334 125.057 99.8709 125.781H103.808C103.803 125.349 103.73 124.966 103.59 124.633C103.454 124.299 103.246 124.039 102.965 123.852C102.689 123.664 102.334 123.57 101.902 123.57ZM113.058 122.188C113.204 122.188 113.363 122.195 113.535 122.211C113.707 122.227 113.855 122.247 113.98 122.273L113.808 123.992C113.699 123.961 113.564 123.938 113.402 123.922C113.246 123.906 113.105 123.898 112.98 123.898C112.652 123.898 112.34 123.953 112.043 124.062C111.746 124.167 111.483 124.328 111.254 124.547C111.025 124.76 110.845 125.029 110.715 125.352C110.584 125.674 110.519 126.049 110.519 126.477V131H108.676V122.352H110.113L110.363 123.875H110.449C110.621 123.568 110.834 123.286 111.09 123.031C111.345 122.776 111.637 122.573 111.965 122.422C112.298 122.266 112.663 122.188 113.058 122.188ZM122.394 128.531C122.394 129.099 122.256 129.578 121.98 129.969C121.704 130.359 121.301 130.656 120.769 130.859C120.243 131.057 119.598 131.156 118.832 131.156C118.228 131.156 117.707 131.112 117.269 131.023C116.837 130.94 116.428 130.81 116.043 130.633V129.047C116.454 129.24 116.915 129.406 117.426 129.547C117.941 129.688 118.428 129.758 118.887 129.758C119.491 129.758 119.926 129.664 120.191 129.477C120.457 129.284 120.59 129.029 120.59 128.711C120.59 128.523 120.535 128.357 120.426 128.211C120.321 128.06 120.124 127.906 119.832 127.75C119.545 127.589 119.124 127.396 118.566 127.172C118.019 126.953 117.558 126.734 117.183 126.516C116.808 126.297 116.525 126.034 116.332 125.727C116.139 125.414 116.043 125.016 116.043 124.531C116.043 123.766 116.345 123.185 116.949 122.789C117.558 122.388 118.363 122.188 119.363 122.188C119.894 122.188 120.394 122.242 120.863 122.352C121.337 122.456 121.801 122.609 122.254 122.812L121.676 124.195C121.285 124.023 120.892 123.883 120.496 123.773C120.105 123.659 119.707 123.602 119.301 123.602C118.827 123.602 118.465 123.674 118.215 123.82C117.97 123.966 117.848 124.174 117.848 124.445C117.848 124.648 117.907 124.82 118.027 124.961C118.147 125.102 118.353 125.242 118.644 125.383C118.941 125.523 119.353 125.698 119.879 125.906C120.394 126.104 120.84 126.312 121.215 126.531C121.595 126.745 121.887 127.008 122.09 127.32C122.293 127.633 122.394 128.036 122.394 128.531Z" fill="#777777"/>
<rect x="74" y="150" width="50" height="3" fill="#FECE01"/>
</svg>
