<svg width="103" height="153" viewBox="0 0 103 153" fill="none" xmlns="http://www.w3.org/2000/svg">
<rect x="14.72" y="22.5" width="74" height="74" rx="37" fill="#FCFCFC"/>
<path d="M65.0091 58.125C65.4466 58.125 65.7747 58.5625 65.6653 58.9453L65.3372 60.2578C65.2825 60.5859 65.0091 60.75 64.7356 60.75H63.5872C64.3528 61.4062 64.845 62.3359 64.845 63.375V66C64.845 66.9297 64.4622 67.6953 63.97 68.2969V71.25C63.97 72.2344 63.1497 73 62.22 73H60.47C59.4856 73 58.72 72.2344 58.72 71.25V69.5H44.72V71.25C44.72 72.2344 43.8997 73 42.97 73H41.22C40.2356 73 39.47 72.2344 39.47 71.25V68.2969C38.9231 67.6953 38.595 66.9297 38.595 66V63.375C38.595 62.3359 39.0325 61.4062 39.7981 60.75H38.7044C38.3763 60.75 38.1028 60.5859 38.0481 60.2578L37.72 58.9453C37.6106 58.5625 37.9388 58.125 38.3763 58.125H41.6028L42.5325 55.8828C43.4622 53.5312 45.7044 52 48.22 52H55.1653C57.6809 52 59.9231 53.5312 60.8528 55.8828L61.7825 58.125H65.0091ZM45.7591 57.1953L44.72 59.875H58.72L57.6263 57.1953C57.1888 56.1562 56.2591 55.5 55.1653 55.5H48.22C47.1263 55.5 46.1966 56.1562 45.7591 57.1953ZM42.97 66C44.0091 66 45.595 66.1641 45.595 65.125C45.595 64.0859 44.0091 62.5 42.97 62.5C41.8763 62.5 41.22 63.2109 41.22 64.25C41.22 65.3438 41.8763 66 42.97 66ZM60.47 66C61.5091 66 62.22 65.3438 62.22 64.25C62.22 63.2109 61.5091 62.5 60.47 62.5C59.3763 62.5 57.845 64.0859 57.845 65.125C57.845 66.1641 59.3763 66 60.47 66Z" fill="#FECE01"/>
<rect x="14.72" y="22.5" width="74" height="74" rx="37" stroke="#DDDDDD"/>
<rect x="30.33" y="0.5" width="72.17" height="43" rx="3.5" fill="white"/>
<path d="M58.5097 31H46.9081V28.9258L51.3495 24.4258C52.2089 23.5508 52.916 22.7969 53.4706 22.1641C54.0253 21.5234 54.4355 20.918 54.7011 20.3477C54.9745 19.7773 55.1113 19.1562 55.1113 18.4844C55.1113 17.6562 54.873 17.0312 54.3964 16.6094C53.9199 16.1797 53.291 15.9648 52.5097 15.9648C51.7675 15.9648 51.08 16.1133 50.4472 16.4102C49.8222 16.6992 49.1738 17.1133 48.5019 17.6523L46.9902 15.8359C47.4667 15.4297 47.9745 15.0586 48.5136 14.7227C49.0605 14.3867 49.6699 14.1211 50.3417 13.9258C51.0136 13.7227 51.7792 13.6211 52.6386 13.6211C53.7245 13.6211 54.662 13.8164 55.4511 14.207C56.2402 14.5898 56.8456 15.125 57.2675 15.8125C57.6972 16.5 57.912 17.3008 57.912 18.2148C57.912 19.1367 57.7285 19.9883 57.3613 20.7695C56.9941 21.5508 56.4706 22.3242 55.791 23.0898C55.1113 23.8477 54.3027 24.6719 53.3652 25.5625L50.4003 28.457V28.5859H58.5097V31ZM72.2441 22.4219C72.2441 23.8047 72.1347 25.043 71.916 26.1367C71.705 27.2227 71.3691 28.1445 70.9081 28.9023C70.4472 29.6602 69.8456 30.2383 69.1035 30.6367C68.3613 31.0352 67.4628 31.2344 66.4081 31.2344C65.0878 31.2344 63.998 30.8867 63.1386 30.1914C62.2792 29.4883 61.6425 28.4805 61.2285 27.168C60.8144 25.8477 60.6074 24.2656 60.6074 22.4219C60.6074 20.5781 60.7949 19 61.1699 17.6875C61.5527 16.3672 62.1699 15.3555 63.0214 14.6523C63.873 13.9492 65.0019 13.5977 66.4081 13.5977C67.7363 13.5977 68.83 13.9492 69.6894 14.6523C70.5566 15.3477 71.1972 16.3555 71.6113 17.6758C72.0331 18.9883 72.2441 20.5703 72.2441 22.4219ZM63.3847 22.4219C63.3847 23.8672 63.4785 25.0742 63.666 26.043C63.8613 27.0117 64.1816 27.7383 64.6269 28.2227C65.0722 28.6992 65.666 28.9375 66.4081 28.9375C67.1503 28.9375 67.7441 28.6992 68.1894 28.2227C68.6347 27.7461 68.955 27.0234 69.1503 26.0547C69.3535 25.0859 69.455 23.875 69.455 22.4219C69.455 20.9844 69.3574 19.7812 69.162 18.8125C68.9667 17.8438 68.6464 17.1172 68.2011 16.6328C67.7558 16.1406 67.1581 15.8945 66.4081 15.8945C65.6581 15.8945 65.0605 16.1406 64.6152 16.6328C64.1777 17.1172 63.8613 17.8438 63.666 18.8125C63.4785 19.7812 63.3847 20.9844 63.3847 22.4219ZM85.9785 22.4219C85.9785 23.8047 85.8691 25.043 85.6503 26.1367C85.4394 27.2227 85.1035 28.1445 84.6425 28.9023C84.1816 29.6602 83.58 30.2383 82.8378 30.6367C82.0956 31.0352 81.1972 31.2344 80.1425 31.2344C78.8222 31.2344 77.7324 30.8867 76.873 30.1914C76.0136 29.4883 75.3769 28.4805 74.9628 27.168C74.5488 25.8477 74.3417 24.2656 74.3417 22.4219C74.3417 20.5781 74.5292 19 74.9042 17.6875C75.287 16.3672 75.9042 15.3555 76.7558 14.6523C77.6074 13.9492 78.7363 13.5977 80.1425 13.5977C81.4706 13.5977 82.5644 13.9492 83.4238 14.6523C84.291 15.3477 84.9316 16.3555 85.3456 17.6758C85.7675 18.9883 85.9785 20.5703 85.9785 22.4219ZM77.1191 22.4219C77.1191 23.8672 77.2128 25.0742 77.4003 26.043C77.5956 27.0117 77.916 27.7383 78.3613 28.2227C78.8066 28.6992 79.4003 28.9375 80.1425 28.9375C80.8847 28.9375 81.4785 28.6992 81.9238 28.2227C82.3691 27.7461 82.6894 27.0234 82.8847 26.0547C83.0878 25.0859 83.1894 23.875 83.1894 22.4219C83.1894 20.9844 83.0917 19.7812 82.8964 18.8125C82.7011 17.8438 82.3808 17.1172 81.9355 16.6328C81.4902 16.1406 80.8925 15.8945 80.1425 15.8945C79.3925 15.8945 78.7949 16.1406 78.3495 16.6328C77.912 17.1172 77.5956 17.8438 77.4003 18.8125C77.2128 19.7812 77.1191 20.9844 77.1191 22.4219Z" fill="#444444"/>
<rect x="30.33" y="0.5" width="72.17" height="43" rx="3.5" stroke="#DDDDDD"/>
<path d="M1.94 131V119.578H3.815V129.406H8.66656V131H1.94ZM18.9947 122.352V131H17.5494L17.2994 129.836H17.1978C17.0155 130.133 16.7838 130.38 16.5025 130.578C16.2213 130.771 15.9088 130.914 15.565 131.008C15.2213 131.107 14.8593 131.156 14.4791 131.156C13.828 131.156 13.2707 131.047 12.8072 130.828C12.3489 130.604 11.9973 130.26 11.7525 129.797C11.5077 129.333 11.3853 128.734 11.3853 128V122.352H13.2291V127.656C13.2291 128.328 13.3645 128.831 13.6353 129.164C13.9114 129.497 14.3384 129.664 14.9166 129.664C15.4739 129.664 15.9166 129.549 16.2447 129.32C16.5728 129.091 16.8046 128.753 16.94 128.305C17.0806 127.857 17.1509 127.307 17.1509 126.656V122.352H18.9947ZM24.5416 126.578L21.6509 122.352H23.7447L25.7213 125.391L27.7056 122.352H29.7916L26.8853 126.578L29.94 131H27.8384L25.7213 127.758L23.5963 131H21.5103L24.5416 126.578ZM39.9791 122.352V131H38.5338L38.2838 129.836H38.1822C37.9999 130.133 37.7681 130.38 37.4869 130.578C37.2056 130.771 36.8931 130.914 36.5494 131.008C36.2056 131.107 35.8436 131.156 35.4634 131.156C34.8124 131.156 34.2551 131.047 33.7916 130.828C33.3332 130.604 32.9817 130.26 32.7369 129.797C32.4921 129.333 32.3697 128.734 32.3697 128V122.352H34.2134V127.656C34.2134 128.328 34.3489 128.831 34.6197 129.164C34.8957 129.497 35.3228 129.664 35.9009 129.664C36.4582 129.664 36.9009 129.549 37.2291 129.32C37.5572 129.091 37.789 128.753 37.9244 128.305C38.065 127.857 38.1353 127.307 38.1353 126.656V122.352H39.9791ZM47.9947 122.188C48.1405 122.188 48.2994 122.195 48.4713 122.211C48.6431 122.227 48.7916 122.247 48.9166 122.273L48.7447 123.992C48.6353 123.961 48.4999 123.938 48.3384 123.922C48.1822 123.906 48.0416 123.898 47.9166 123.898C47.5884 123.898 47.2759 123.953 46.9791 124.062C46.6822 124.167 46.4192 124.328 46.19 124.547C45.9608 124.76 45.7811 125.029 45.6509 125.352C45.5207 125.674 45.4556 126.049 45.4556 126.477V131H43.6119V122.352H45.0494L45.2994 123.875H45.3853C45.5572 123.568 45.7707 123.286 46.0259 123.031C46.2811 122.776 46.5728 122.573 46.9009 122.422C47.2343 122.266 47.5989 122.188 47.9947 122.188ZM50.2134 122.352H52.2134L53.9869 127.289C54.065 127.513 54.1353 127.734 54.1978 127.953C54.2655 128.167 54.3228 128.378 54.3697 128.586C54.4218 128.794 54.4634 129.003 54.4947 129.211H54.5416C54.5936 128.94 54.6666 128.638 54.7603 128.305C54.8593 127.966 54.9686 127.628 55.0884 127.289L56.7916 122.352H58.7681L55.0572 132.188C54.8436 132.75 54.5806 133.229 54.2681 133.625C53.9608 134.026 53.5963 134.328 53.1744 134.531C52.7525 134.74 52.2707 134.844 51.7291 134.844C51.4686 134.844 51.2421 134.828 51.0494 134.797C50.8567 134.771 50.6926 134.742 50.5572 134.711V133.242C50.6666 133.268 50.8046 133.292 50.9713 133.312C51.1379 133.333 51.3098 133.344 51.4869 133.344C51.815 133.344 52.0989 133.279 52.3384 133.148C52.578 133.018 52.7811 132.833 52.9478 132.594C53.1145 132.359 53.2525 132.091 53.3619 131.789L53.6666 130.977L50.2134 122.352ZM71.2916 121.008C70.7447 121.008 70.2551 121.107 69.8228 121.305C69.3957 121.503 69.0338 121.789 68.7369 122.164C68.44 122.534 68.2134 122.984 68.0572 123.516C67.9009 124.042 67.8228 124.635 67.8228 125.297C67.8228 126.182 67.9478 126.945 68.1978 127.586C68.4478 128.221 68.828 128.711 69.3384 129.055C69.8489 129.393 70.4947 129.562 71.2759 129.562C71.7603 129.562 72.2317 129.516 72.69 129.422C73.1483 129.328 73.6223 129.201 74.1119 129.039V130.633C73.6483 130.815 73.1796 130.948 72.7056 131.031C72.2317 131.115 71.6848 131.156 71.065 131.156C69.8983 131.156 68.9296 130.914 68.1588 130.43C67.3931 129.945 66.8202 129.263 66.44 128.383C66.065 127.503 65.8775 126.471 65.8775 125.289C65.8775 124.424 65.9973 123.633 66.2369 122.914C66.4765 122.195 66.8254 121.576 67.2838 121.055C67.7421 120.529 68.3072 120.125 68.9791 119.844C69.6561 119.557 70.4296 119.414 71.2994 119.414C71.8723 119.414 72.4348 119.479 72.9869 119.609C73.5442 119.734 74.0598 119.914 74.5338 120.148L73.8775 121.695C73.4817 121.508 73.0676 121.346 72.6353 121.211C72.203 121.076 71.7551 121.008 71.2916 121.008ZM80.7681 122.188C81.8619 122.188 82.6874 122.43 83.2447 122.914C83.8072 123.398 84.0884 124.154 84.0884 125.18V131H82.7838L82.4322 129.773H82.3697C82.1249 130.086 81.8723 130.344 81.6119 130.547C81.3515 130.75 81.0494 130.901 80.7056 131C80.3671 131.104 79.953 131.156 79.4634 131.156C78.9478 131.156 78.4869 131.062 78.0806 130.875C77.6744 130.682 77.3541 130.391 77.1197 130C76.8853 129.609 76.7681 129.115 76.7681 128.516C76.7681 127.625 77.0989 126.956 77.7603 126.508C78.427 126.06 79.4322 125.812 80.7759 125.766L82.2759 125.711V125.258C82.2759 124.659 82.1353 124.232 81.8541 123.977C81.578 123.721 81.1874 123.594 80.6822 123.594C80.2499 123.594 79.8306 123.656 79.4244 123.781C79.0181 123.906 78.6223 124.06 78.2369 124.242L77.6431 122.945C78.065 122.721 78.5442 122.539 79.0806 122.398C79.6223 122.258 80.1848 122.188 80.7681 122.188ZM82.2681 126.867L81.1509 126.906C80.2343 126.938 79.591 127.094 79.2213 127.375C78.8515 127.656 78.6666 128.042 78.6666 128.531C78.6666 128.958 78.7942 129.271 79.0494 129.469C79.3046 129.661 79.6405 129.758 80.0572 129.758C80.6926 129.758 81.2186 129.578 81.6353 129.219C82.0572 128.854 82.2681 128.32 82.2681 127.617V126.867ZM92.0416 122.188C92.1874 122.188 92.3463 122.195 92.5181 122.211C92.69 122.227 92.8384 122.247 92.9634 122.273L92.7916 123.992C92.6822 123.961 92.5468 123.938 92.3853 123.922C92.2291 123.906 92.0884 123.898 91.9634 123.898C91.6353 123.898 91.3228 123.953 91.0259 124.062C90.7291 124.167 90.466 124.328 90.2369 124.547C90.0077 124.76 89.828 125.029 89.6978 125.352C89.5676 125.674 89.5025 126.049 89.5025 126.477V131H87.6588V122.352H89.0963L89.3463 123.875H89.4322C89.6041 123.568 89.8176 123.286 90.0728 123.031C90.328 122.776 90.6197 122.573 90.9478 122.422C91.2811 122.266 91.6457 122.188 92.0416 122.188ZM101.378 128.531C101.378 129.099 101.239 129.578 100.963 129.969C100.687 130.359 100.284 130.656 99.7525 130.859C99.2265 131.057 98.5806 131.156 97.815 131.156C97.2108 131.156 96.69 131.112 96.2525 131.023C95.8202 130.94 95.4114 130.81 95.0259 130.633V129.047C95.4374 129.24 95.8983 129.406 96.4088 129.547C96.9244 129.688 97.4114 129.758 97.8697 129.758C98.4739 129.758 98.9088 129.664 99.1744 129.477C99.44 129.284 99.5728 129.029 99.5728 128.711C99.5728 128.523 99.5181 128.357 99.4088 128.211C99.3046 128.06 99.1067 127.906 98.815 127.75C98.5285 127.589 98.1067 127.396 97.5494 127.172C97.0025 126.953 96.5416 126.734 96.1666 126.516C95.7916 126.297 95.5077 126.034 95.315 125.727C95.1223 125.414 95.0259 125.016 95.0259 124.531C95.0259 123.766 95.328 123.185 95.9322 122.789C96.5416 122.388 97.3463 122.188 98.3463 122.188C98.8775 122.188 99.3775 122.242 99.8463 122.352C100.32 122.456 100.784 122.609 101.237 122.812L100.659 124.195C100.268 124.023 99.8749 123.883 99.4791 123.773C99.0884 123.659 98.69 123.602 98.2838 123.602C97.8098 123.602 97.4478 123.674 97.1978 123.82C96.953 123.966 96.8306 124.174 96.8306 124.445C96.8306 124.648 96.8905 124.82 97.0103 124.961C97.1301 125.102 97.3358 125.242 97.6275 125.383C97.9244 125.523 98.3358 125.698 98.8619 125.906C99.3775 126.104 99.8228 126.312 100.198 126.531C100.578 126.745 100.87 127.008 101.073 127.32C101.276 127.633 101.378 128.036 101.378 128.531Z" fill="#777777"/>
<rect x="53" y="150" width="50" height="3" fill="#FECE01"/>
</svg>
