<svg width="153" height="153" viewBox="0 0 153 153" fill="none" xmlns="http://www.w3.org/2000/svg">
<rect x="39.14" y="22.5" width="74" height="74" rx="37" fill="#FCFCFC"/>
<path d="M75.58 48.9375C83.0722 48.9375 89.1425 55.0078 89.1425 62.5C89.1425 69.9922 83.0722 76.0625 75.58 76.0625C68.0878 76.0625 62.0175 69.9922 62.0175 62.5C62.0175 55.0078 68.0878 48.9375 75.58 48.9375ZM75.58 73.4375C81.5956 73.4375 86.5175 68.5703 86.5175 62.5C86.5175 56.4844 81.5956 51.5625 75.58 51.5625C69.5097 51.5625 64.6425 56.4844 64.6425 62.5C64.6425 68.5703 69.5097 73.4375 75.58 73.4375ZM80.1738 65.6172C80.6113 65.0703 81.4316 65.0156 81.9785 65.4531C82.58 65.8906 82.6347 66.7656 82.1425 67.3125C80.5019 69.2812 78.0956 70.375 75.58 70.375C73.0097 70.375 70.6035 69.2812 68.9628 67.3125C68.4706 66.7656 68.58 65.8906 69.1269 65.4531C69.6738 65.0156 70.4941 65.0703 70.9863 65.6172C72.08 66.9844 73.7753 67.75 75.58 67.75C77.33 67.75 79.0253 66.9844 80.1738 65.6172ZM69.455 60.0391L68.9628 60.9688C68.8535 61.1875 68.6347 61.2422 68.416 61.1875C68.2519 61.1328 68.0878 60.9688 68.1425 60.75C68.3066 58.4531 69.8925 56.8125 71.205 56.8125C72.4628 56.8125 74.0488 58.4531 74.2675 60.75C74.2675 60.9688 74.1035 61.1328 73.9394 61.1875C73.7753 61.2422 73.5566 61.1875 73.4472 60.9688L72.9003 60.0391C72.4628 59.3281 71.8613 58.8906 71.205 58.8906C70.4941 58.8906 69.8925 59.3281 69.455 60.0391ZM79.955 56.8125C81.2128 56.8125 82.7988 58.4531 83.0175 60.75C83.0175 60.9688 82.8535 61.1328 82.6894 61.1875C82.5253 61.2422 82.3066 61.1875 82.1972 60.9688L81.6503 60.0391C81.2128 59.3281 80.6113 58.8906 79.955 58.8906C79.2441 58.8906 78.6425 59.3281 78.205 60.0391L77.7128 60.9688C77.6035 61.1875 77.3847 61.2422 77.166 61.1875C77.0019 61.1328 76.8378 60.9688 76.8925 60.75C77.0566 58.4531 78.6425 56.8125 79.955 56.8125Z" fill="#FECE01"/>
<rect x="39.14" y="22.5" width="74" height="74" rx="37" stroke="#DDDDDD"/>
<rect x="79.6104" y="0.5" width="72.17" height="43" rx="3.5" fill="white"/>
<path d="M102.013 20.2891C103.114 20.2891 104.083 20.4883 104.919 20.8867C105.763 21.2773 106.419 21.8555 106.888 22.6211C107.356 23.3789 107.591 24.3086 107.591 25.4102C107.591 26.6133 107.337 27.6523 106.829 28.5273C106.321 29.3945 105.575 30.0625 104.591 30.5312C103.606 31 102.407 31.2344 100.993 31.2344C100.095 31.2344 99.2549 31.1562 98.4736 31C97.7002 30.8438 97.0322 30.6094 96.4697 30.2969V27.8125C97.0557 28.1406 97.7588 28.4102 98.5791 28.6211C99.3994 28.8242 100.185 28.9258 100.935 28.9258C101.731 28.9258 102.415 28.8086 102.985 28.5742C103.556 28.3398 103.993 27.9805 104.298 27.4961C104.61 27.0117 104.767 26.3984 104.767 25.6562C104.767 24.6719 104.45 23.9141 103.817 23.3828C103.192 22.8438 102.212 22.5742 100.876 22.5742C100.407 22.5742 99.9072 22.6172 99.376 22.7031C98.8525 22.7812 98.415 22.8672 98.0635 22.9609L96.8564 22.2461L97.501 13.8672H106.407V16.293H99.9268L99.5518 20.5586C99.833 20.4961 100.169 20.4375 100.56 20.3828C100.95 20.3203 101.435 20.2891 102.013 20.2891ZM121.524 22.4219C121.524 23.8047 121.415 25.043 121.196 26.1367C120.985 27.2227 120.649 28.1445 120.188 28.9023C119.728 29.6602 119.126 30.2383 118.384 30.6367C117.642 31.0352 116.743 31.2344 115.688 31.2344C114.368 31.2344 113.278 30.8867 112.419 30.1914C111.56 29.4883 110.923 28.4805 110.509 27.168C110.095 25.8477 109.888 24.2656 109.888 22.4219C109.888 20.5781 110.075 19 110.45 17.6875C110.833 16.3672 111.45 15.3555 112.302 14.6523C113.153 13.9492 114.282 13.5977 115.688 13.5977C117.017 13.5977 118.11 13.9492 118.97 14.6523C119.837 15.3477 120.478 16.3555 120.892 17.6758C121.313 18.9883 121.524 20.5703 121.524 22.4219ZM112.665 22.4219C112.665 23.8672 112.759 25.0742 112.946 26.043C113.142 27.0117 113.462 27.7383 113.907 28.2227C114.353 28.6992 114.946 28.9375 115.688 28.9375C116.431 28.9375 117.024 28.6992 117.47 28.2227C117.915 27.7461 118.235 27.0234 118.431 26.0547C118.634 25.0859 118.735 23.875 118.735 22.4219C118.735 20.9844 118.638 19.7812 118.442 18.8125C118.247 17.8438 117.927 17.1172 117.481 16.6328C117.036 16.1406 116.438 15.8945 115.688 15.8945C114.938 15.8945 114.341 16.1406 113.896 16.6328C113.458 17.1172 113.142 17.8438 112.946 18.8125C112.759 19.7812 112.665 20.9844 112.665 22.4219ZM135.259 22.4219C135.259 23.8047 135.149 25.043 134.931 26.1367C134.72 27.2227 134.384 28.1445 133.923 28.9023C133.462 29.6602 132.86 30.2383 132.118 30.6367C131.376 31.0352 130.478 31.2344 129.423 31.2344C128.103 31.2344 127.013 30.8867 126.153 30.1914C125.294 29.4883 124.657 28.4805 124.243 27.168C123.829 25.8477 123.622 24.2656 123.622 22.4219C123.622 20.5781 123.81 19 124.185 17.6875C124.567 16.3672 125.185 15.3555 126.036 14.6523C126.888 13.9492 128.017 13.5977 129.423 13.5977C130.751 13.5977 131.845 13.9492 132.704 14.6523C133.571 15.3477 134.212 16.3555 134.626 17.6758C135.048 18.9883 135.259 20.5703 135.259 22.4219ZM126.399 22.4219C126.399 23.8672 126.493 25.0742 126.681 26.043C126.876 27.0117 127.196 27.7383 127.642 28.2227C128.087 28.6992 128.681 28.9375 129.423 28.9375C130.165 28.9375 130.759 28.6992 131.204 28.2227C131.649 27.7461 131.97 27.0234 132.165 26.0547C132.368 25.0859 132.47 23.875 132.47 22.4219C132.47 20.9844 132.372 19.7812 132.177 18.8125C131.981 17.8438 131.661 17.1172 131.216 16.6328C130.771 16.1406 130.173 15.8945 129.423 15.8945C128.673 15.8945 128.075 16.1406 127.63 16.6328C127.192 17.1172 126.876 17.8438 126.681 18.8125C126.493 19.7812 126.399 20.9844 126.399 22.4219Z" fill="#444444"/>
<rect x="79.6104" y="0.5" width="72.17" height="43" rx="3.5" stroke="#DDDDDD"/>
<path d="M10.5078 131H8.64062V125.844H3.375V131H1.5V119.578H3.375V124.25H8.64062V119.578H10.5078V131ZM17.7344 122.188C18.8281 122.188 19.6536 122.43 20.2109 122.914C20.7734 123.398 21.0547 124.154 21.0547 125.18V131H19.75L19.3984 129.773H19.3359C19.0911 130.086 18.8385 130.344 18.5781 130.547C18.3177 130.75 18.0156 130.901 17.6719 131C17.3333 131.104 16.9193 131.156 16.4297 131.156C15.9141 131.156 15.4531 131.062 15.0469 130.875C14.6406 130.682 14.3203 130.391 14.0859 130C13.8516 129.609 13.7344 129.115 13.7344 128.516C13.7344 127.625 14.0651 126.956 14.7266 126.508C15.3932 126.06 16.3984 125.812 17.7422 125.766L19.2422 125.711V125.258C19.2422 124.659 19.1016 124.232 18.8203 123.977C18.5443 123.721 18.1536 123.594 17.6484 123.594C17.2161 123.594 16.7969 123.656 16.3906 123.781C15.9844 123.906 15.5885 124.06 15.2031 124.242L14.6094 122.945C15.0312 122.721 15.5104 122.539 16.0469 122.398C16.5885 122.258 17.151 122.188 17.7344 122.188ZM19.2344 126.867L18.1172 126.906C17.2005 126.938 16.5573 127.094 16.1875 127.375C15.8177 127.656 15.6328 128.042 15.6328 128.531C15.6328 128.958 15.7604 129.271 16.0156 129.469C16.2708 129.661 16.6068 129.758 17.0234 129.758C17.6589 129.758 18.1849 129.578 18.6016 129.219C19.0234 128.854 19.2344 128.32 19.2344 127.617V126.867ZM29.0625 122.188C30.0885 122.188 30.9115 122.562 31.5312 123.312C32.1562 124.062 32.4688 125.177 32.4688 126.656C32.4688 127.635 32.3229 128.461 32.0312 129.133C31.7448 129.799 31.3411 130.305 30.8203 130.648C30.3047 130.987 29.7031 131.156 29.0156 131.156C28.5781 131.156 28.1979 131.099 27.875 130.984C27.5521 130.87 27.276 130.721 27.0469 130.539C26.8177 130.352 26.625 130.148 26.4688 129.93H26.3594C26.3854 130.138 26.4089 130.37 26.4297 130.625C26.4557 130.875 26.4688 131.104 26.4688 131.312V134.836H24.625V122.352H26.125L26.3828 123.547H26.4688C26.6302 123.302 26.8255 123.076 27.0547 122.867C27.2891 122.659 27.5703 122.495 27.8984 122.375C28.2318 122.25 28.6198 122.188 29.0625 122.188ZM28.5703 123.688C28.0651 123.688 27.6589 123.789 27.3516 123.992C27.0495 124.19 26.8281 124.49 26.6875 124.891C26.5521 125.292 26.4792 125.794 26.4688 126.398V126.656C26.4688 127.297 26.5339 127.841 26.6641 128.289C26.7995 128.732 27.0208 129.07 27.3281 129.305C27.6406 129.534 28.0625 129.648 28.5938 129.648C29.0417 129.648 29.4115 129.526 29.7031 129.281C30 129.036 30.2214 128.688 30.3672 128.234C30.513 127.781 30.5859 127.247 30.5859 126.633C30.5859 125.701 30.4193 124.977 30.0859 124.461C29.7578 123.945 29.2526 123.688 28.5703 123.688ZM40.0312 122.188C41.0573 122.188 41.8802 122.562 42.5 123.312C43.125 124.062 43.4375 125.177 43.4375 126.656C43.4375 127.635 43.2917 128.461 43 129.133C42.7135 129.799 42.3099 130.305 41.7891 130.648C41.2734 130.987 40.6719 131.156 39.9844 131.156C39.5469 131.156 39.1667 131.099 38.8438 130.984C38.5208 130.87 38.2448 130.721 38.0156 130.539C37.7865 130.352 37.5938 130.148 37.4375 129.93H37.3281C37.3542 130.138 37.3776 130.37 37.3984 130.625C37.4245 130.875 37.4375 131.104 37.4375 131.312V134.836H35.5938V122.352H37.0938L37.3516 123.547H37.4375C37.599 123.302 37.7943 123.076 38.0234 122.867C38.2578 122.659 38.5391 122.495 38.8672 122.375C39.2005 122.25 39.5885 122.188 40.0312 122.188ZM39.5391 123.688C39.0339 123.688 38.6276 123.789 38.3203 123.992C38.0182 124.19 37.7969 124.49 37.6562 124.891C37.5208 125.292 37.4479 125.794 37.4375 126.398V126.656C37.4375 127.297 37.5026 127.841 37.6328 128.289C37.7682 128.732 37.9896 129.07 38.2969 129.305C38.6094 129.534 39.0312 129.648 39.5625 129.648C40.0104 129.648 40.3802 129.526 40.6719 129.281C40.9688 129.036 41.1901 128.688 41.3359 128.234C41.4818 127.781 41.5547 127.247 41.5547 126.633C41.5547 125.701 41.388 124.977 41.0547 124.461C40.7266 123.945 40.2214 123.688 39.5391 123.688ZM45.2578 122.352H47.2578L49.0312 127.289C49.1094 127.513 49.1797 127.734 49.2422 127.953C49.3099 128.167 49.3672 128.378 49.4141 128.586C49.4661 128.794 49.5078 129.003 49.5391 129.211H49.5859C49.638 128.94 49.7109 128.638 49.8047 128.305C49.9036 127.966 50.013 127.628 50.1328 127.289L51.8359 122.352H53.8125L50.1016 132.188C49.888 132.75 49.625 133.229 49.3125 133.625C49.0052 134.026 48.6406 134.328 48.2188 134.531C47.7969 134.74 47.3151 134.844 46.7734 134.844C46.513 134.844 46.2865 134.828 46.0938 134.797C45.901 134.771 45.737 134.742 45.6016 134.711V133.242C45.7109 133.268 45.849 133.292 46.0156 133.312C46.1823 133.333 46.3542 133.344 46.5312 133.344C46.8594 133.344 47.1432 133.279 47.3828 133.148C47.6224 133.018 47.8255 132.833 47.9922 132.594C48.1589 132.359 48.2969 132.091 48.4062 131.789L48.7109 130.977L45.2578 122.352ZM66.3359 121.008C65.7891 121.008 65.2995 121.107 64.8672 121.305C64.4401 121.503 64.0781 121.789 63.7812 122.164C63.4844 122.534 63.2578 122.984 63.1016 123.516C62.9453 124.042 62.8672 124.635 62.8672 125.297C62.8672 126.182 62.9922 126.945 63.2422 127.586C63.4922 128.221 63.8724 128.711 64.3828 129.055C64.8932 129.393 65.5391 129.562 66.3203 129.562C66.8047 129.562 67.276 129.516 67.7344 129.422C68.1927 129.328 68.6667 129.201 69.1562 129.039V130.633C68.6927 130.815 68.224 130.948 67.75 131.031C67.276 131.115 66.7292 131.156 66.1094 131.156C64.9427 131.156 63.974 130.914 63.2031 130.43C62.4375 129.945 61.8646 129.263 61.4844 128.383C61.1094 127.503 60.9219 126.471 60.9219 125.289C60.9219 124.424 61.0417 123.633 61.2812 122.914C61.5208 122.195 61.8698 121.576 62.3281 121.055C62.7865 120.529 63.3516 120.125 64.0234 119.844C64.7005 119.557 65.474 119.414 66.3438 119.414C66.9167 119.414 67.4792 119.479 68.0312 119.609C68.5885 119.734 69.1042 119.914 69.5781 120.148L68.9219 121.695C68.526 121.508 68.112 121.346 67.6797 121.211C67.2474 121.076 66.7995 121.008 66.3359 121.008ZM79.9609 122.352V131H78.5156L78.2656 129.836H78.1641C77.9818 130.133 77.75 130.38 77.4688 130.578C77.1875 130.771 76.875 130.914 76.5312 131.008C76.1875 131.107 75.8255 131.156 75.4453 131.156C74.7943 131.156 74.237 131.047 73.7734 130.828C73.3151 130.604 72.9635 130.26 72.7188 129.797C72.474 129.333 72.3516 128.734 72.3516 128V122.352H74.1953V127.656C74.1953 128.328 74.3307 128.831 74.6016 129.164C74.8776 129.497 75.3047 129.664 75.8828 129.664C76.4401 129.664 76.8828 129.549 77.2109 129.32C77.5391 129.091 77.7708 128.753 77.9062 128.305C78.0469 127.857 78.1172 127.307 78.1172 126.656V122.352H79.9609ZM89.4062 128.531C89.4062 129.099 89.2682 129.578 88.9922 129.969C88.7161 130.359 88.3125 130.656 87.7812 130.859C87.2552 131.057 86.6094 131.156 85.8438 131.156C85.2396 131.156 84.7188 131.112 84.2812 131.023C83.849 130.94 83.4401 130.81 83.0547 130.633V129.047C83.4661 129.24 83.9271 129.406 84.4375 129.547C84.9531 129.688 85.4401 129.758 85.8984 129.758C86.5026 129.758 86.9375 129.664 87.2031 129.477C87.4688 129.284 87.6016 129.029 87.6016 128.711C87.6016 128.523 87.5469 128.357 87.4375 128.211C87.3333 128.06 87.1354 127.906 86.8438 127.75C86.5573 127.589 86.1354 127.396 85.5781 127.172C85.0312 126.953 84.5703 126.734 84.1953 126.516C83.8203 126.297 83.5365 126.034 83.3438 125.727C83.151 125.414 83.0547 125.016 83.0547 124.531C83.0547 123.766 83.3568 123.185 83.9609 122.789C84.5703 122.388 85.375 122.188 86.375 122.188C86.9062 122.188 87.4062 122.242 87.875 122.352C88.349 122.456 88.8125 122.609 89.2656 122.812L88.6875 124.195C88.2969 124.023 87.9036 123.883 87.5078 123.773C87.1172 123.659 86.7188 123.602 86.3125 123.602C85.8385 123.602 85.4766 123.674 85.2266 123.82C84.9818 123.966 84.8594 124.174 84.8594 124.445C84.8594 124.648 84.9193 124.82 85.0391 124.961C85.1589 125.102 85.3646 125.242 85.6562 125.383C85.9531 125.523 86.3646 125.698 86.8906 125.906C87.4062 126.104 87.8516 126.312 88.2266 126.531C88.6068 126.745 88.8984 127.008 89.1016 127.32C89.3047 127.633 89.4062 128.036 89.4062 128.531ZM95.6094 129.672C95.849 129.672 96.0859 129.651 96.3203 129.609C96.5547 129.562 96.7682 129.508 96.9609 129.445V130.836C96.7578 130.924 96.4948 131 96.1719 131.062C95.849 131.125 95.513 131.156 95.1641 131.156C94.6745 131.156 94.2344 131.076 93.8438 130.914C93.4531 130.747 93.1432 130.464 92.9141 130.062C92.6849 129.661 92.5703 129.107 92.5703 128.398V123.75H91.3906V122.93L92.6562 122.281L93.2578 120.43H94.4141V122.352H96.8906V123.75H94.4141V128.375C94.4141 128.812 94.5234 129.138 94.7422 129.352C94.9609 129.565 95.25 129.672 95.6094 129.672ZM107.375 126.656C107.375 127.375 107.281 128.013 107.094 128.57C106.906 129.128 106.633 129.599 106.273 129.984C105.914 130.365 105.482 130.656 104.977 130.859C104.471 131.057 103.901 131.156 103.266 131.156C102.672 131.156 102.128 131.057 101.633 130.859C101.138 130.656 100.708 130.365 100.344 129.984C99.9844 129.599 99.7057 129.128 99.5078 128.57C99.3099 128.013 99.2109 127.375 99.2109 126.656C99.2109 125.703 99.375 124.896 99.7031 124.234C100.036 123.568 100.51 123.06 101.125 122.711C101.74 122.362 102.471 122.188 103.32 122.188C104.117 122.188 104.82 122.362 105.43 122.711C106.039 123.06 106.516 123.568 106.859 124.234C107.203 124.901 107.375 125.708 107.375 126.656ZM101.102 126.656C101.102 127.286 101.177 127.826 101.328 128.273C101.484 128.721 101.724 129.065 102.047 129.305C102.37 129.539 102.786 129.656 103.297 129.656C103.807 129.656 104.224 129.539 104.547 129.305C104.87 129.065 105.107 128.721 105.258 128.273C105.409 127.826 105.484 127.286 105.484 126.656C105.484 126.026 105.409 125.492 105.258 125.055C105.107 124.612 104.87 124.276 104.547 124.047C104.224 123.812 103.805 123.695 103.289 123.695C102.529 123.695 101.974 123.951 101.625 124.461C101.276 124.971 101.102 125.703 101.102 126.656ZM120.258 122.188C121.227 122.188 121.956 122.438 122.445 122.938C122.94 123.438 123.188 124.24 123.188 125.344V131H121.352V125.672C121.352 125.016 121.224 124.521 120.969 124.188C120.714 123.854 120.326 123.688 119.805 123.688C119.076 123.688 118.549 123.922 118.227 124.391C117.909 124.854 117.75 125.529 117.75 126.414V131H115.914V125.672C115.914 125.234 115.857 124.87 115.742 124.578C115.633 124.281 115.464 124.06 115.234 123.914C115.005 123.763 114.716 123.688 114.367 123.688C113.862 123.688 113.458 123.802 113.156 124.031C112.859 124.26 112.646 124.599 112.516 125.047C112.385 125.49 112.32 126.034 112.32 126.68V131H110.484V122.352H111.914L112.172 123.516H112.273C112.451 123.214 112.669 122.966 112.93 122.773C113.195 122.576 113.49 122.43 113.812 122.336C114.135 122.237 114.471 122.188 114.82 122.188C115.466 122.188 116.01 122.302 116.453 122.531C116.896 122.755 117.227 123.099 117.445 123.562H117.586C117.857 123.094 118.234 122.747 118.719 122.523C119.203 122.299 119.716 122.188 120.258 122.188ZM130.195 122.188C130.966 122.188 131.628 122.346 132.18 122.664C132.732 122.982 133.156 123.432 133.453 124.016C133.75 124.599 133.898 125.297 133.898 126.109V127.094H128.125C128.146 127.932 128.37 128.578 128.797 129.031C129.229 129.484 129.833 129.711 130.609 129.711C131.161 129.711 131.656 129.659 132.094 129.555C132.536 129.445 132.992 129.286 133.461 129.078V130.57C133.029 130.773 132.589 130.922 132.141 131.016C131.693 131.109 131.156 131.156 130.531 131.156C129.682 131.156 128.935 130.992 128.289 130.664C127.648 130.331 127.146 129.836 126.781 129.18C126.422 128.523 126.242 127.708 126.242 126.734C126.242 125.766 126.406 124.943 126.734 124.266C127.062 123.589 127.523 123.073 128.117 122.719C128.711 122.365 129.404 122.188 130.195 122.188ZM130.195 123.57C129.617 123.57 129.148 123.758 128.789 124.133C128.435 124.508 128.227 125.057 128.164 125.781H132.102C132.096 125.349 132.023 124.966 131.883 124.633C131.747 124.299 131.539 124.039 131.258 123.852C130.982 123.664 130.628 123.57 130.195 123.57ZM141.352 122.188C141.497 122.188 141.656 122.195 141.828 122.211C142 122.227 142.148 122.247 142.273 122.273L142.102 123.992C141.992 123.961 141.857 123.938 141.695 123.922C141.539 123.906 141.398 123.898 141.273 123.898C140.945 123.898 140.633 123.953 140.336 124.062C140.039 124.167 139.776 124.328 139.547 124.547C139.318 124.76 139.138 125.029 139.008 125.352C138.878 125.674 138.812 126.049 138.812 126.477V131H136.969V122.352H138.406L138.656 123.875H138.742C138.914 123.568 139.128 123.286 139.383 123.031C139.638 122.776 139.93 122.573 140.258 122.422C140.591 122.266 140.956 122.188 141.352 122.188ZM150.688 128.531C150.688 129.099 150.549 129.578 150.273 129.969C149.997 130.359 149.594 130.656 149.062 130.859C148.536 131.057 147.891 131.156 147.125 131.156C146.521 131.156 146 131.112 145.562 131.023C145.13 130.94 144.721 130.81 144.336 130.633V129.047C144.747 129.24 145.208 129.406 145.719 129.547C146.234 129.688 146.721 129.758 147.18 129.758C147.784 129.758 148.219 129.664 148.484 129.477C148.75 129.284 148.883 129.029 148.883 128.711C148.883 128.523 148.828 128.357 148.719 128.211C148.615 128.06 148.417 127.906 148.125 127.75C147.839 127.589 147.417 127.396 146.859 127.172C146.312 126.953 145.852 126.734 145.477 126.516C145.102 126.297 144.818 126.034 144.625 125.727C144.432 125.414 144.336 125.016 144.336 124.531C144.336 123.766 144.638 123.185 145.242 122.789C145.852 122.388 146.656 122.188 147.656 122.188C148.188 122.188 148.688 122.242 149.156 122.352C149.63 122.456 150.094 122.609 150.547 122.812L149.969 124.195C149.578 124.023 149.185 123.883 148.789 123.773C148.398 123.659 148 123.602 147.594 123.602C147.12 123.602 146.758 123.674 146.508 123.82C146.263 123.966 146.141 124.174 146.141 124.445C146.141 124.648 146.201 124.82 146.32 124.961C146.44 125.102 146.646 125.242 146.938 125.383C147.234 125.523 147.646 125.698 148.172 125.906C148.688 126.104 149.133 126.312 149.508 126.531C149.888 126.745 150.18 127.008 150.383 127.32C150.586 127.633 150.688 128.036 150.688 128.531Z" fill="#777777"/>
<rect x="102.28" y="150" width="50" height="3" fill="#FECE01"/>
</svg>
