<svg width="19" height="14" viewBox="0 0 19 14" fill="none" xmlns="http://www.w3.org/2000/svg">
<path d="M9.25 3.65625C9.3125 3.59375 9.40625 3.5625 9.5 3.5625C9.5625 3.5625 9.65625 3.59375 9.71875 3.65625L15.5 8.375V13.5C15.5 13.7812 15.25 14 15 14H11.4688C11.2188 14 10.9688 13.7812 10.9688 13.5V10.5C10.9688 10.25 10.75 10 10.4688 10H8.46875C8.21875 10 7.96875 10.25 7.96875 10.5V13.5C7.96875 13.7812 7.75 14 7.5 14H4C3.71875 14 3.5 13.7812 3.5 13.5V8.40625L9.25 3.65625ZM18.3438 6.875C18.4375 6.9375 18.5 7.0625 18.5 7.15625C18.5 7.25 18.4688 7.34375 18.4062 7.40625L17.5938 8.375C17.5312 8.46875 17.4375 8.5 17.3125 8.5C17.2188 8.5 17.125 8.46875 17.0625 8.40625L9.71875 2.375C9.65625 2.3125 9.5625 2.28125 9.5 2.28125C9.40625 2.28125 9.3125 2.3125 9.25 2.375L1.90625 8.40625C1.84375 8.46875 1.75 8.5 1.65625 8.5C1.53125 8.5 1.4375 8.46875 1.375 8.375L0.5625 7.40625C0.53125 7.34375 0.46875 7.25 0.46875 7.15625C0.46875 7.0625 0.53125 6.9375 0.625 6.875L8.53125 0.34375C8.78125 0.15625 9.125 0.03125 9.5 0.03125C9.84375 0.03125 10.1875 0.15625 10.4375 0.34375L13.25 2.65625V0.40625C13.25 0.1875 13.4062 0.03125 13.625 0.03125H15.375C15.5625 0.03125 15.75 0.1875 15.75 0.40625V4.71875L18.3438 6.875Z" fill="#7A8793"/>
</svg>
