<svg width="15" height="14" viewBox="0 0 15 14" fill="none" xmlns="http://www.w3.org/2000/svg">
<path d="M13 0C13.8125 0 14.5 0.6875 14.5 1.5V12.5C14.5 13.3438 13.8125 14 13 14H2C1.15625 14 0.5 13.3438 0.5 12.5V1.5C0.5 0.6875 1.15625 0 2 0H13ZM3.4375 12C8.4375 12 12.5 7.96875 12.5 2.9375C12.5 2.71875 12.3438 2.53125 12.125 2.5L10.0938 2.03125C10.0625 2.03125 10.0312 2 10 2C9.78125 2 9.625 2.125 9.5625 2.3125L8.625 4.5C8.59375 4.53125 8.5625 4.59375 8.5625 4.65625C8.5625 4.8125 8.65625 4.9375 8.75 5.03125L9.9375 6C9.21875 7.5 8 8.75 6.46875 9.46875L5.5 8.28125C5.40625 8.1875 5.28125 8.125 5.125 8.125C5.0625 8.125 5 8.125 4.96875 8.15625L2.78125 9.09375C2.59375 9.15625 2.5 9.3125 2.5 9.5C2.5 9.5625 2.5 9.59375 2.5 9.625L2.96875 11.6562C3 11.875 3.1875 12 3.4375 12Z" fill="#7A8793"/>
</svg>
