<svg width="41" height="40" viewBox="0 0 41 40" fill="none" xmlns="http://www.w3.org/2000/svg">
<path d="M20.98 15.4062C22.9487 15.4062 24.5737 17.0312 24.5737 19C24.5737 21 22.9487 22.5938 20.98 22.5938C18.98 22.5938 17.3862 21 17.3862 19C17.3862 17.0312 18.98 15.4062 20.98 15.4062ZM20.98 21.3438C22.2612 21.3438 23.2925 20.3125 23.2925 19C23.2925 17.7188 22.2612 16.6875 20.98 16.6875C19.6675 16.6875 18.6362 17.7188 18.6362 19C18.6362 20.3125 19.6987 21.3438 20.98 21.3438ZM25.5425 15.2812C25.5425 15.75 25.1675 16.125 24.6987 16.125C24.23 16.125 23.855 15.75 23.855 15.2812C23.855 14.8125 24.23 14.4375 24.6987 14.4375C25.1675 14.4375 25.5425 14.8125 25.5425 15.2812ZM27.9175 16.125C27.98 17.2812 27.98 20.75 27.9175 21.9062C27.855 23.0312 27.605 24 26.7925 24.8438C25.98 25.6562 24.98 25.9062 23.855 25.9688C22.6987 26.0312 19.23 26.0312 18.0737 25.9688C16.9487 25.9062 15.98 25.6562 15.1362 24.8438C14.3237 24 14.0737 23.0312 14.0112 21.9062C13.9487 20.75 13.9487 17.2812 14.0112 16.125C14.0737 15 14.3237 14 15.1362 13.1875C15.98 12.375 16.9487 12.125 18.0737 12.0625C19.23 12 22.6987 12 23.855 12.0625C24.98 12.125 25.98 12.375 26.7925 13.1875C27.605 14 27.855 15 27.9175 16.125ZM26.4175 23.125C26.7925 22.2188 26.6987 20.0312 26.6987 19C26.6987 18 26.7925 15.8125 26.4175 14.875C26.1675 14.2812 25.6987 13.7812 25.105 13.5625C24.1675 13.1875 21.98 13.2812 20.98 13.2812C19.9487 13.2812 17.7612 13.1875 16.855 13.5625C16.23 13.8125 15.7612 14.2812 15.5112 14.875C15.1362 15.8125 15.23 18 15.23 19C15.23 20.0312 15.1362 22.2188 15.5112 23.125C15.7612 23.75 16.23 24.2188 16.855 24.4688C17.7612 24.8438 19.9487 24.75 20.98 24.75C21.98 24.75 24.1675 24.8438 25.105 24.4688C25.6987 24.2188 26.1987 23.75 26.4175 23.125Z" fill="#D1D1D1"/>
<rect x="1.47998" y="0.5" width="39" height="39" stroke="#767676"/>
</svg>
