<svg width="41" height="40" viewBox="0 0 41 40" fill="none" xmlns="http://www.w3.org/2000/svg">
<path d="M16.9449 25H14.0387V15.6562H16.9449V25ZM15.4762 14.4062C14.5699 14.4062 13.8199 13.625 13.8199 12.6875C13.8199 11.7812 14.5699 11.0312 15.4762 11.0312C16.4137 11.0312 17.1637 11.7812 17.1637 12.6875C17.1637 13.625 16.4137 14.4062 15.4762 14.4062ZM27.7887 25H24.9137V20.4688C24.9137 19.375 24.8824 18 23.3824 18C21.8824 18 21.6637 19.1562 21.6637 20.375V25H18.7574V15.6562H21.5387V16.9375H21.5699C21.9762 16.2188 22.9137 15.4375 24.3199 15.4375C27.2574 15.4375 27.8199 17.375 27.8199 19.875V25H27.7887Z" fill="#D1D1D1"/>
<rect x="1.31995" y="0.5" width="39" height="39" stroke="#767676"/>
</svg>
