<svg width="17" height="16" viewBox="0 0 17 16" fill="none" xmlns="http://www.w3.org/2000/svg">
<path d="M15.9375 5.15625C16.2812 5.4375 16.5 5.84375 16.5 6.3125V14.5C16.5 15.3438 15.8125 16 15 16H2C1.15625 16 0.5 15.3438 0.5 14.5V6.3125C0.5 5.84375 0.6875 5.4375 1.03125 5.15625C1.15625 5.0625 4.5 2.375 5.25 1.75C5.96875 1.1875 7.125 0 8.5 0C9.84375 0 11.0312 1.21875 11.7188 1.75C12.4375 2.34375 15.7812 5.03125 15.9375 5.15625ZM15 14.3125V6.40625C15 6.34375 14.9688 6.28125 14.9062 6.25C14.4062 5.84375 11.5 3.53125 10.7812 2.9375C10.2188 2.5 9.21875 1.5 8.5 1.5C7.75 1.5 6.75 2.46875 6.1875 2.9375C5.46875 3.53125 2.5625 5.84375 2.0625 6.25C2 6.28125 2 6.34375 2 6.40625V14.3125C2 14.4375 2.0625 14.5 2.1875 14.5H14.8125C14.9062 14.5 15 14.4375 15 14.3125ZM14 8.46875C14.125 8.625 14.0938 8.875 13.9375 9C13.0312 9.71875 12.0625 10.4688 11.7188 10.7812C11 11.3438 9.84375 12.5 8.5 12.5C7.125 12.5 5.9375 11.3125 5.25 10.7812C4.90625 10.5 3.9375 9.71875 3.03125 9C2.875 8.875 2.84375 8.625 2.96875 8.46875L3.46875 7.875C3.59375 7.71875 3.8125 7.6875 4 7.84375C4.875 8.5625 5.8125 9.3125 6.1875 9.59375C6.75 10.0312 7.75 11 8.5 11C9.21875 11 10.2188 10.0625 10.7812 9.59375C11.1562 9.3125 12.0938 8.5625 12.9688 7.84375C13.1562 7.6875 13.375 7.71875 13.5 7.875L14 8.46875Z" fill="#7A8793"/>
</svg>
