<svg width="41" height="40" viewBox="0 0 41 40" fill="none" xmlns="http://www.w3.org/2000/svg">
<path d="M27.0038 15.75C27.0038 15.9062 27.0038 16.0312 27.0038 16.1875C27.0038 20.5312 23.7225 25.5 17.6913 25.5C15.8163 25.5 14.0975 24.9688 12.66 24.0312C12.91 24.0625 13.16 24.0938 13.4413 24.0938C14.9725 24.0938 16.3788 23.5625 17.5038 22.6875C16.0663 22.6562 14.8475 21.7188 14.4413 20.4062C14.66 20.4375 14.8475 20.4688 15.0663 20.4688C15.3475 20.4688 15.66 20.4062 15.91 20.3438C14.41 20.0312 13.285 18.7188 13.285 17.125V17.0938C13.7225 17.3438 14.2538 17.4688 14.785 17.5C13.8788 16.9062 13.3163 15.9062 13.3163 14.7812C13.3163 14.1562 13.4725 13.5938 13.7538 13.125C15.3788 15.0938 17.8163 16.4062 20.535 16.5625C20.4725 16.3125 20.4413 16.0625 20.4413 15.8125C20.4413 14 21.91 12.5312 23.7225 12.5312C24.66 12.5312 25.5038 12.9062 26.1288 13.5625C26.8475 13.4062 27.5663 13.125 28.1913 12.75C27.9413 13.5312 27.4413 14.1562 26.7538 14.5625C27.41 14.5 28.0663 14.3125 28.6288 14.0625C28.1913 14.7188 27.6288 15.2812 27.0038 15.75Z" fill="#D1D1D1"/>
<rect x="1.16003" y="0.5" width="39" height="39" stroke="#767676"/>
</svg>
