<svg width="16" height="16" viewBox="0 0 16 16" fill="none" xmlns="http://www.w3.org/2000/svg">
<path d="M8.25 0.25C12.5 0.25 16 3.75 16 8C16 12.2812 12.5 15.75 8.25 15.75C3.96875 15.75 0.5 12.2812 0.5 8C0.5 3.75 3.96875 0.25 8.25 0.25ZM7.875 7.78125L8.4375 6.875C8.46875 6.78125 8.625 6.78125 8.65625 6.875C8.71875 6.96875 8.78125 7 8.875 7H9C9.125 7 9.25 6.90625 9.25 6.75V4.3125C9.25 4.125 9.125 3.96875 8.96875 3.875L8.625 3.71875C8.4375 3.625 8.4375 3.375 8.59375 3.28125L10.1562 2.0625C9.5625 1.875 8.90625 1.75 8.25 1.75C4.78125 1.75 2 4.5625 2 8C2 8.34375 2.03125 8.6875 2.0625 9H4.03125C4.15625 9 4.28125 8.96875 4.375 8.875L5 8.25C5.125 8.125 5.3125 8.1875 5.375 8.3125L6.09375 9.75C6.1875 9.90625 6.34375 10 6.53125 10H6.75C7 10 7.25 9.78125 7.25 9.5V9.21875C7.25 9.09375 7.1875 8.96875 7.09375 8.875L6.90625 8.6875C6.8125 8.59375 6.8125 8.4375 6.90625 8.34375L7.09375 8.15625C7.1875 8.0625 7.3125 8 7.4375 8C7.625 8 7.78125 7.9375 7.875 7.78125ZM13.25 11.2188H13.2188V10.4375C13.2188 10.3125 13.1875 10.1875 13.0938 10.0938L12.7188 9.71875C12.6562 9.6875 12.6562 9.625 12.6562 9.53125V9.15625C12.6562 9.0625 12.5938 9.03125 12.5312 9.03125H12.3125C12.2812 9.03125 12.2188 9.0625 12.2188 9.09375L12.0625 9.5625C12.0625 9.625 12 9.65625 11.9688 9.65625H11.8438C11.7812 9.65625 11.75 9.625 11.7188 9.5625L11.5625 9.15625C11.5312 9.0625 11.4375 9.03125 11.3125 9.03125H10.9375C10.9062 9.03125 10.8438 9.03125 10.8125 9.0625L10.0625 9.59375C10 9.625 9.9375 9.65625 9.875 9.6875L8.65625 10.1875C8.5625 10.2188 8.5 10.3125 8.5 10.4062V10.7188C8.5 10.8125 8.53125 10.875 8.5625 10.9062L8.9375 11.2812C9.03125 11.375 9.15625 11.4375 9.3125 11.4375H9.625C9.65625 11.4375 9.6875 11.4062 9.75 11.4062L10.4062 11.25C10.4688 11.2188 10.5312 11.2188 10.625 11.2188C10.8438 11.2188 11.0625 11.3125 11.1875 11.4688L11.5938 11.875C11.6875 11.9688 11.8438 12 11.9688 12H12.4375C12.5625 12 12.6875 11.9688 12.7812 11.875L13.0938 11.5625C13.1875 11.4688 13.25 11.3438 13.25 11.2188Z" fill="#7A8793"/>
</svg>
