<svg width="65" height="65" viewBox="0 0 65 65" fill="none" xmlns="http://www.w3.org/2000/svg">
<path d="M8.25 48.6797V32.6797C8.25 26.3145 10.7786 20.21 15.2794 15.7091C19.7803 11.2083 25.8848 8.67969 32.25 8.67969C38.6152 8.67969 44.7197 11.2083 49.2206 15.7091C53.7214 20.21 56.25 26.3145 56.25 32.6797V48.6797" stroke="white" stroke-width="2" stroke-linecap="round" stroke-linejoin="round"/>
<path d="M56.25 51.3463C56.25 52.7608 55.6881 54.1174 54.6879 55.1176C53.6877 56.1178 52.3312 56.6797 50.9167 56.6797H48.25C46.8355 56.6797 45.479 56.1178 44.4788 55.1176C43.4786 54.1174 42.9167 52.7608 42.9167 51.3463V43.3463C42.9167 41.9318 43.4786 40.5753 44.4788 39.5751C45.479 38.5749 46.8355 38.013 48.25 38.013H56.25V51.3463ZM8.25 51.3463C8.25 52.7608 8.8119 54.1174 9.8121 55.1176C10.8123 56.1178 12.1688 56.6797 13.5833 56.6797H16.25C17.6645 56.6797 19.021 56.1178 20.0212 55.1176C21.0214 54.1174 21.5833 52.7608 21.5833 51.3463V43.3463C21.5833 41.9318 21.0214 40.5753 20.0212 39.5751C19.021 38.5749 17.6645 38.013 16.25 38.013H8.25V51.3463Z" stroke="white" stroke-width="2" stroke-linecap="round" stroke-linejoin="round"/>
</svg>
