<svg width="46" height="45" viewBox="0 0 46 45" fill="none" xmlns="http://www.w3.org/2000/svg">
<path d="M22.9375 18.3203C23.0156 18.2422 23.1328 18.2031 23.25 18.2031C23.3281 18.2031 23.4453 18.2422 23.5234 18.3203L30.75 24.2188V30.625C30.75 30.9766 30.4375 31.25 30.125 31.25H25.7109C25.3984 31.25 25.0859 30.9766 25.0859 30.625V26.875C25.0859 26.5625 24.8125 26.25 24.4609 26.25H21.9609C21.6484 26.25 21.3359 26.5625 21.3359 26.875V30.625C21.3359 30.9766 21.0625 31.25 20.75 31.25H16.375C16.0234 31.25 15.75 30.9766 15.75 30.625V24.2578L22.9375 18.3203ZM34.3047 22.3438C34.4219 22.4219 34.5 22.5781 34.5 22.6953C34.5 22.8125 34.4609 22.9297 34.3828 23.0078L33.3672 24.2188C33.2891 24.3359 33.1719 24.375 33.0156 24.375C32.8984 24.375 32.7812 24.3359 32.7031 24.2578L23.5234 16.7188C23.4453 16.6406 23.3281 16.6016 23.25 16.6016C23.1328 16.6016 23.0156 16.6406 22.9375 16.7188L13.7578 24.2578C13.6797 24.3359 13.5625 24.375 13.4453 24.375C13.2891 24.375 13.1719 24.3359 13.0938 24.2188L12.0781 23.0078C12.0391 22.9297 11.9609 22.8125 11.9609 22.6953C11.9609 22.5781 12.0391 22.4219 12.1562 22.3438L22.0391 14.1797C22.3516 13.9453 22.7812 13.7891 23.25 13.7891C23.6797 13.7891 24.1094 13.9453 24.4219 14.1797L27.9375 17.0703V14.2578C27.9375 13.9844 28.1328 13.7891 28.4062 13.7891H30.5938C30.8281 13.7891 31.0625 13.9844 31.0625 14.2578V19.6484L34.3047 22.3438Z" fill="#FECE01"/>
<rect x="1" y="0.5" width="44" height="44" rx="22" stroke="#FECE01"/>
</svg>
