<svg width="46" height="45" viewBox="0 0 46 45" fill="none" xmlns="http://www.w3.org/2000/svg">
<path d="M32.6094 19.9609C32.7656 19.8438 33 19.9609 33 20.1562V28.125C33 29.1797 32.1406 30 31.125 30H14.875C13.8203 30 13 29.1797 13 28.125V20.1562C13 19.9609 13.1953 19.8438 13.3516 19.9609C14.25 20.6641 15.3828 21.5234 19.3672 24.4141C20.1875 25 21.5938 26.2891 23 26.2891C24.3672 26.2891 25.8125 25 26.5938 24.4141C30.5781 21.5234 31.7109 20.6641 32.6094 19.9609ZM23 25C22.0625 25.0391 20.7734 23.8672 20.1094 23.3984C14.9141 19.6484 14.5234 19.2969 13.3516 18.3594C13.1172 18.2031 13 17.9297 13 17.6172V16.875C13 15.8594 13.8203 15 14.875 15H31.125C32.1406 15 33 15.8594 33 16.875V17.6172C33 17.9297 32.8438 18.2031 32.6094 18.3594C31.4375 19.2969 31.0469 19.6484 25.8516 23.3984C25.1875 23.8672 23.8984 25.0391 23 25Z" fill="#FECE01"/>
<rect x="1" y="0.5" width="44" height="44" rx="22" stroke="#FECE01"/>
</svg>
