<svg width="46" height="45" viewBox="0 0 46 45" fill="none" xmlns="http://www.w3.org/2000/svg">
<rect x="1.5" y="1" width="43" height="43" rx="21.5" fill="#253747"/>
<path d="M19.168 32.5352C13.582 26.9922 13.582 17.9258 19.168 12.3828C19.4258 12.125 19.7695 12.082 20.0703 12.2539L22.8633 14.0156C23.0781 14.1445 23.207 14.3594 23.207 14.6172C23.207 14.7031 23.207 14.832 23.1641 14.918L21.7461 18.3984C21.6602 18.6562 21.4023 18.8281 21.0586 18.8281H21.0156L18.6094 18.6133C17.707 21.1055 17.707 23.8555 18.6094 26.3047L21.0156 26.0898H21.0586C21.4023 26.0898 21.6602 26.2617 21.7461 26.5195L23.1641 30C23.207 30.0859 23.207 30.2148 23.207 30.3008C23.207 30.5586 23.0781 30.7734 22.8633 30.9023L20.0703 32.6641C19.9414 32.75 19.8125 32.75 19.6836 32.75C19.4688 32.75 19.2969 32.707 19.168 32.5352ZM25.6133 14.875C26.0859 15.7344 26.0859 16.8086 25.6133 17.668C25.4414 17.9688 25.0547 18.0117 24.7969 17.7969L24.5391 17.5391C24.3672 17.3672 24.3242 17.1094 24.4531 16.8945C24.5391 16.7227 24.582 16.5078 24.582 16.293C24.582 16.0352 24.5391 15.8203 24.4531 15.6484C24.3242 15.4336 24.3672 15.1758 24.5391 15.0039L24.7969 14.7461C25.0547 14.5312 25.4414 14.5742 25.6133 14.875ZM29.5234 10.9648C32.1445 14.0156 32.1445 18.5273 29.5234 21.5781C29.3516 21.8359 29.0078 21.8359 28.793 21.6211L28.5352 21.4062C28.3633 21.1914 28.3203 20.8906 28.4922 20.6758C30.6406 18.1406 30.6406 14.4023 28.4922 11.8672C28.3203 11.6523 28.3633 11.3516 28.5352 11.1367L28.793 10.9219C29.0078 10.707 29.3516 10.707 29.5234 10.9648ZM27.5469 12.8984C29.0938 14.875 29.1367 17.668 27.5469 19.6445C27.375 19.9023 27.0312 19.9453 26.8164 19.7305L26.5586 19.4727C26.3438 19.3008 26.3438 19 26.4727 18.7852C27.6328 17.3242 27.6328 15.2188 26.4727 13.7578C26.3438 13.543 26.3438 13.2422 26.5586 13.0703L26.8164 12.8125C27.0312 12.5977 27.375 12.6406 27.5469 12.8984Z" fill="white"/>
<rect x="1.5" y="1" width="43" height="43" rx="21.5" stroke="#495D6F" stroke-width="2"/>
</svg>
