<svg width="88" height="65" viewBox="0 0 88 65" fill="none" xmlns="http://www.w3.org/2000/svg">
<g clip-path="url(#clip0_2_8286)">
<path fill-rule="evenodd" clip-rule="evenodd" d="M26 40C26 53.8333 26.006 54 26.5 54C26.8332 54 27 54.1667 27 54.5C27 54.8333 27.1667 55 27.5 55C27.8333 55 28 55.1667 28 55.5C28 55.8333 28.1667 56 28.5 56C28.8333 56 29 56.1667 29 56.5C29 56.9583 29.1667 57 31 57C32.8333 57 33 56.9583 33 56.5C33 56.1667 33.1667 56 33.5 56C33.9833 56 34 55.8333 34 51C34 46.1667 33.9833 46 33.5 46C33.0278 46 33 45.8333 33 43C33 40.1667 32.9722 40 32.5 40C32.0555 40 32 39.8333 32 38.5C32 37.1667 31.9445 37 31.5 37C31.0555 37 31 36.8333 31 35.5C31 34.1667 30.9445 34 30.5 34C30.0833 34 30 33.8333 30 33C30 32.1667 29.9167 32 29.5 32C29.0833 32 29 31.8333 29 31C29 30.1667 28.9167 30 28.5 30C28.0833 30 28 29.8333 28 29C28 28.1667 27.9167 28 27.5 28C27.0833 28 27 27.8333 27 27C27 26.1668 26.9168 26 26.5 26C26.006 26 26 26.1667 26 40ZM29 26.5C29 26.8332 29.1667 27 29.5 27C29.9167 27 30 27.1667 30 28C30 28.8333 30.0833 29 30.5 29C30.9167 29 31 29.1667 31 30C31 30.8333 31.0833 31 31.5 31C31.9167 31 32 31.1667 32 32C32 32.8333 32.0833 33 32.5 33C32.9445 33 33 33.1667 33 34.5C33 35.8333 33.0555 36 33.5 36C33.9445 36 34 36.1667 34 37.5C34 38.8333 34.0555 39 34.5 39C34.9668 39 35 38.8333 35 36.5V34H36.5C37.8333 34 38 33.9445 38 33.5C38 33.1667 37.8333 33 37.5 33C37.0833 33 37 32.8333 37 32C37 31.1667 36.9167 31 36.5 31C36.0833 31 36 30.8333 36 30C36 29.1667 35.9167 29 35.5 29C35.0833 29 35 28.8333 35 28C35 27.1667 34.9167 27 34.5 27C34.1667 27 34 26.8332 34 26.5C34 26.0333 33.8333 26 31.5 26C29.1667 26 29 26.0333 29 26.5ZM37 27C37 27.8333 37.0833 28 37.5 28C37.9167 28 38 28.1667 38 29C38 29.8333 38.0833 30 38.5 30C38.9445 30 39 30.1667 39 31.5C39 32.8333 39.0555 33 39.5 33C39.8333 33 40 33.1667 40 33.5C40 33.9668 40.1667 34 42.5 34H45V33C45 32.1667 45.0833 32 45.5 32C45.9167 32 46 31.8333 46 31C46 30.1667 46.0833 30 46.5 30C46.8333 30 47 29.8333 47 29.5C47 29.1667 47.1667 29 47.5 29C47.9167 29 48 28.8333 48 28C48 27.1667 48.0833 27 48.5 27C48.8333 27 49 26.8332 49 26.5C49 26.014 48.8333 26 43 26H37V27ZM52 26.5C52 26.8332 51.8333 27 51.5 27C51.1667 27 51 27.1667 51 27.5C51 27.8333 50.8333 28 50.5 28C50.0833 28 50 28.1667 50 29C50 29.8333 49.9167 30 49.5 30C49.1667 30 49 30.1667 49 30.5C49 30.8333 48.8333 31 48.5 31C48.0833 31 48 31.1667 48 32C48 32.8333 47.9167 33 47.5 33C47.1667 33 47 33.1667 47 33.5C47 33.8333 47.1667 34 47.5 34C47.988 34 48 34.1667 48 41V48H46H44V52.5V57H46H48V53.5C48 50.1667 48.0238 50 48.5 50C48.8333 50 49 49.8333 49 49.5C49 49.1667 48.8333 49 48.5 49C48.1667 49 48 48.8333 48 48.5C48 48.1667 48.1667 48 48.5 48C48.9667 48 49 47.8333 49 45.5C49 43.1667 49.0333 43 49.5 43C49.9445 43 50 42.8333 50 41.5C50 40.1667 50.0555 40 50.5 40C50.9445 40 51 39.8333 51 38.5C51 37.1667 51.0555 37 51.5 37C51.9167 37 52 36.8333 52 36C52 35.1667 52.0833 35 52.5 35C52.9167 35 53 34.8333 53 34C53 33.1667 53.0833 33 53.5 33C53.9167 33 54 32.8333 54 32C54 31.1667 54.0833 31 54.5 31C54.9167 31 55 30.8333 55 30C55 29.1667 55.0833 29 55.5 29C55.8333 29 56 28.8333 56 28.5C56 28.1667 56.1667 28 56.5 28C56.9167 28 57 27.8333 57 27V26H54.5C52.1667 26 52 26.0333 52 26.5ZM56 32.5C56 32.8333 55.8333 33 55.5 33C55.0833 33 55 33.1667 55 34C55 34.8333 54.9167 35 54.5 35C54.0555 35 54 35.1667 54 36.5C54 37.8333 53.9445 38 53.5 38C53.0833 38 53 38.1667 53 39C53 39.8333 52.9167 40 52.5 40C52.0417 40 52 40.1667 52 42C52 43.8333 51.9583 44 51.5 44C51.0238 44 51 44.1667 51 47.5C51 50.8333 50.9762 51 50.5 51C50.0333 51 50 51.1667 50 53.5C50 55.8333 50.0333 56 50.5 56C50.8333 56 51 56.1667 51 56.5C51 56.9667 51.1667 57 53.5 57C55.8333 57 56 56.9667 56 56.5C56 56.1667 56.1667 56 56.5 56C56.993 56 57 55.8333 57 44C57 32.1667 56.993 32 56.5 32C56.1667 32 56 32.1667 56 32.5ZM36 52.5V57H39H42V53C42 49.1667 41.9792 49 41.5 49C41.1667 49 41 48.8333 41 48.5C41 48.0333 40.8333 48 38.5 48H36V52.5Z" fill="#FECE01" fill-opacity="0.6"/>
<path fill-rule="evenodd" clip-rule="evenodd" d="M22 0.5C22 0.91675 21.8333 1 21 1C20.1667 1 20 1.08325 20 1.5C20 1.91675 19.8333 2 19 2C18.1667 2 18 2.08325 18 2.5C18 2.83325 17.8333 3 17.5 3C17.1667 3 17 3.16675 17 3.5C17 3.83325 16.8333 4 16.5 4C16.1667 4 16 4.16675 16 4.5C16 4.91675 15.8333 5 15 5C14.1667 5 14 4.91675 14 4.5C14 4.02375 13.8333 4 10.5 4C7.16675 4 7 4.02375 7 4.5C7 4.91675 6.83325 5 6 5C5.16675 5 5 5.08325 5 5.5C5 5.91675 4.83325 6 4 6C3.16675 6 3 6.08325 3 6.5C3 6.83325 2.83325 7 2.5 7C2.16675 7 2 7.16675 2 7.5C2 7.83325 1.83325 8 1.5 8C1.16675 8 1 8.16675 1 8.5C1 8.83325 0.83325 9 0.5 9C0.16675 9 0 9.16675 0 9.5C0 9.83325 0.16675 10 0.5 10C0.83325 10 1 10.1667 1 10.5C1 10.9722 1.16675 11 4 11C6.83325 11 7 11.0278 7 11.5C7 11.8333 6.83325 12 6.5 12C6.16675 12 6 12.1667 6 12.5C6 12.8333 5.83325 13 5.5 13C5.08325 13 5 13.1667 5 14C5 14.8333 4.91675 15 4.5 15C4.08325 15 4 15.1667 4 16C4 16.8333 3.91675 17 3.5 17C3.01675 17 3 17.1667 3 22C3 26.8333 3.01675 27 3.5 27C3.83325 27 4 27.1667 4 27.5C4 27.8333 4.16675 28 4.5 28C4.83325 28 5 27.8333 5 27.5C5 27.1667 5.16675 27 5.5 27C5.91675 27 6 26.8333 6 26C6 25.1667 6.08325 25 6.5 25C6.91675 25 7 24.8333 7 24C7 23.1667 7.08325 23 7.5 23C7.83325 23 8 22.8333 8 22.5C8 22.1667 8.16675 22 8.5 22C8.83325 22 9 21.8333 9 21.5C9 21.1667 9.16675 21 9.5 21C9.83325 21 10 20.8333 10 20.5C10 20.1667 10.1667 20 10.5 20C10.8333 20 11 19.8333 11 19.5C11 19.0833 11.1667 19 12 19H13V21C13 22.8333 13.0417 23 13.5 23C13.9445 23 14 23.1667 14 24.5C14 25.8333 14.0555 26 14.5 26C14.8333 26 15 26.1667 15 26.5C15 26.8333 15.1667 27 15.5 27C15.9167 27 16 27.1667 16 28C16 28.8333 16.0833 29 16.5 29C16.8333 29 17 29.1667 17 29.5C17 29.8333 17.1667 30 17.5 30C17.8333 30 18 30.1667 18 30.5C18 30.9167 18.1667 31 19 31C19.8333 31 20 31.0833 20 31.5C20 31.8333 20.1667 32 20.5 32C20.8333 32 21 32.1668 21 32.5C21 32.9445 21.1667 33 22.5 33H24V31.5C24 30.1667 23.9445 30 23.5 30C23.0833 30 23 29.8333 23 29C23 28.1667 22.9167 28 22.5 28C22.0208 28 22 27.8333 22 24C22 20.1667 22.0208 20 22.5 20C22.9167 20 23 19.8333 23 19V18H21.5H20V19C20 19.8333 19.9167 20 19.5 20C19.0238 20 19 20.1667 19 23.5C19 26.8333 18.9762 27 18.5 27C18.1667 27 18 26.8333 18 26.5C18 26.1667 17.8333 26 17.5 26C17.0833 26 17 25.8333 17 25C17 24.1667 16.9167 24 16.5 24C16.0417 24 16 23.8333 16 22C16 20.1667 15.9583 20 15.5 20C15.0833 20 15 19.8333 15 19C15 18.1667 15.0833 18 15.5 18C15.9668 18 16 17.8333 16 15.5V13H15H14V14C14 14.8333 13.9167 15 13.5 15C13.0833 15 13 15.1667 13 16C13 16.8333 12.9167 17 12.5 17C12.1667 17 12 16.8333 12 16.5C12 16.1667 11.8333 16 11.5 16C11.1667 16 11 16.1667 11 16.5C11 16.8333 10.8333 17 10.5 17C10.1667 17 10 17.1667 10 17.5C10 17.9167 9.83325 18 9 18C8.16675 18 8 18.0833 8 18.5C8 18.8333 7.83325 19 7.5 19C7.16675 19 7 19.1667 7 19.5C7 19.8333 6.83325 20 6.5 20C6.08325 20 6 20.1667 6 21C6 21.8333 5.91675 22 5.5 22C5.0555 22 5 21.8333 5 20.5C5 19.1667 5.0555 19 5.5 19C5.9445 19 6 18.8333 6 17.5C6 16.1667 6.0555 16 6.5 16C6.83325 16 7 15.8333 7 15.5C7 15.1667 7.16675 15 7.5 15C7.83325 15 8 14.8333 8 14.5C8 14.1667 8.16675 14 8.5 14C8.83325 14 9 13.8333 9 13.5C9 13.0833 9.16675 13 10 13C10.8333 13 11 12.9167 11 12.5C11 12.1667 11.1667 12 11.5 12C11.9167 12 12 11.8333 12 11V10H11C10.1667 10 10 9.91675 10 9.5C10 9.08325 9.83325 9 9 9C8.16675 9 8 8.91675 8 8.5C8 8.08325 7.83325 8 7 8C6.16675 8 6 7.91675 6 7.5C6 7.0555 6.16675 7 7.5 7C8.83325 7 9 6.9445 9 6.5C9 6.0555 9.16675 6 10.5 6C11.8333 6 12 6.0555 12 6.5C12 6.9445 12.1667 7 13.5 7C14.8333 7 15 7.0555 15 7.5C15 7.83325 15.1667 8 15.5 8C15.8333 8 16 8.16675 16 8.5C16 8.83325 16.1667 9 16.5 9C16.8333 9 17 9.16675 17 9.5C17 9.9445 17.1667 10 18.5 10H20V9C20 8.16675 19.9167 8 19.5 8C19.1667 8 19 7.83325 19 7.5C19 7.16675 18.8333 7 18.5 7C18.0833 7 18 6.83325 18 6V5H19C19.8333 5 20 4.91675 20 4.5C20 4.16675 20.1667 4 20.5 4C20.8333 4 21 3.83325 21 3.5C21 3.0555 21.1667 3 22.5 3C23.8333 3 24 3.0555 24 3.5C24 3.83325 23.8333 4 23.5 4C23.0833 4 23 4.16675 23 5C23 5.83325 22.9167 6 22.5 6C22.0833 6 22 6.16675 22 7V8H26C29.8333 8 30 8.02075 30 8.5C30 8.91675 30.1667 9 31 9C31.8333 9 32 9.08325 32 9.5C32 9.83325 32.1668 10 32.5 10C32.8332 10 33 10.1667 33 10.5C33 10.9583 32.8333 11 31 11C29.1667 11 29 10.9583 29 10.5C29 10.0555 28.8333 10 27.5 10C26.1667 10 26 10.0555 26 10.5C26 10.9583 25.8333 11 24 11H22V12C22 12.8333 22.0833 13 22.5 13C22.8333 13 23 13.1667 23 13.5C23 13.8333 23.1667 14 23.5 14C23.8333 14 24 14.1667 24 14.5C24 14.8333 24.1667 15 24.5 15C24.8333 15 25 15.1667 25 15.5C25 15.8333 25.1667 16 25.5 16C25.8333 16 26 16.1667 26 16.5C26 16.8333 26.1667 17 26.5 17C26.8333 17 27 17.1667 27 17.5C27 17.8333 27.1667 18 27.5 18C27.8333 18 28 18.1667 28 18.5C28 18.8333 28.1667 19 28.5 19C28.8333 19 29 19.1667 29 19.5C29 19.8333 29.1667 20 29.5 20C29.8333 20 30 20.1667 30 20.5C30 20.8333 30.1667 21 30.5 21C30.9167 21 31 21.1667 31 22C31 22.8333 31.0833 23 31.5 23C31.8333 23 32 23.1667 32 23.5C32 23.8333 32.1668 24 32.5 24C32.9168 24 33 24.1667 33 25C33 25.8333 33.0832 26 33.5 26C33.8332 26 34 26.1667 34 26.5C34 26.8333 34.1668 27 34.5 27C34.9168 27 35 27.1667 35 28C35 28.8333 35.0832 29 35.5 29C35.9168 29 36 29.1667 36 30C36 30.8333 36.0832 31 36.5 31C36.9168 31 37 31.1667 37 32C37 32.8332 37.0832 33 37.5 33C37.9582 33 38 33.1667 38 35C38 36.8333 38.0418 37 38.5 37C38.9445 37 39 37.1667 39 38.5C39 39.8333 39.0555 40 39.5 40C39.9668 40 40 40.1667 40 42.5C40 44.8333 40.0332 45 40.5 45C40.9582 45 41 45.1667 41 47C41 48.8333 41.0418 49 41.5 49C41.9873 49 42 49.1667 42 55.5V62H40.5C39.1667 62 39 62.0555 39 62.5C39 62.8332 38.8332 63 38.5 63C38.1668 63 38 63.1668 38 63.5C38 63.8332 38.1668 64 38.5 64C38.8332 64 39 64.1667 39 64.5C39 64.9668 39.1667 65 41.5 65C43.8333 65 44 64.9668 44 64.5C44 64.1667 44.1668 64 44.5 64C44.9762 64 45 63.8333 45 60.5C45 57.1667 44.9762 57 44.5 57C44.0168 57 44 56.8333 44 52C44 47.1667 43.9832 47 43.5 47C43.0332 47 43 46.8333 43 44.5C43 42.1667 43.0332 42 43.5 42C43.9445 42 44 41.8333 44 40.5C44 39.1667 44.0555 39 44.5 39C44.9168 39 45 38.8332 45 38C45 37.1668 45.0832 37 45.5 37C45.9168 37 46 36.8332 46 36C46 35.1668 46.0832 35 46.5 35C46.9168 35 47 34.8332 47 34C47 33.1668 47.0832 33 47.5 33C47.9168 33 48 32.8332 48 32C48 31.1667 48.0832 31 48.5 31C48.8332 31 49 30.8333 49 30.5C49 30.1667 49.1668 30 49.5 30C49.9168 30 50 29.8333 50 29C50 28.1667 50.0832 28 50.5 28C50.8332 28 51 27.8333 51 27.5C51 27.1667 51.1668 27 51.5 27C51.8332 27 52 26.8333 52 26.5C52 26.1667 52.1668 26 52.5 26C52.8332 26 53 25.8333 53 25.5C53 25.1667 53.1668 25 53.5 25C53.8332 25 54 24.8333 54 24.5C54 24.1667 54.1668 24 54.5 24C54.8332 24 55 23.8333 55 23.5C55 23.1667 55.1668 23 55.5 23C55.8332 23 56 22.8333 56 22.5C56 22.1667 56.1668 22 56.5 22C56.8332 22 57 21.8333 57 21.5C57 21.1667 57.1668 21 57.5 21C57.8332 21 58 20.8333 58 20.5C58 20.1667 58.1668 20 58.5 20C58.8332 20 59 19.8333 59 19.5C59 19.1667 59.1668 19 59.5 19C59.8332 19 60 18.8333 60 18.5C60 18.0555 60.1667 18 61.5 18H63V19C63 19.8333 63.0832 20 63.5 20C63.9793 20 64 20.1667 64 24C64 27.8333 63.9793 28 63.5 28C63.0555 28 63 28.1667 63 29.5C63 30.8333 62.9445 31 62.5 31C62.0832 31 62 31.1667 62 32C62 32.8332 61.9168 33 61.5 33C61.0555 33 61 33.1667 61 34.5V36H62C62.8332 36 63 35.9168 63 35.5C63 35.0832 63.1668 35 64 35C64.8333 35 65 34.9168 65 34.5C65 34.0832 65.1667 34 66 34C66.8333 34 67 33.9168 67 33.5C67 33.1668 67.1667 33 67.5 33C67.8333 33 68 32.8332 68 32.5C68 32.1668 68.1667 32 68.5 32C68.8333 32 69 31.8333 69 31.5C69 31.1667 69.1667 31 69.5 31C69.9167 31 70 30.8333 70 30C70 29.1667 70.0833 29 70.5 29C70.8333 29 71 28.8333 71 28.5C71 28.1667 71.1667 28 71.5 28C71.9445 28 72 27.8333 72 26.5C72 25.1667 72.0555 25 72.5 25C72.9445 25 73 24.8333 73 23.5C73 22.1667 73.0555 22 73.5 22C73.8333 22 74 22.1667 74 22.5C74 22.8333 74.1667 23 74.5 23C74.8333 23 75 23.1667 75 23.5C75 23.8333 75.1667 24 75.5 24C75.9167 24 76 24.1667 76 25C76 25.8333 76.0833 26 76.5 26C76.9167 26 77 26.1667 77 27C77 27.8333 77.0833 28 77.5 28C77.9167 28 78 28.1667 78 29V30H79C79.8333 30 80 29.9167 80 29.5C80 29.1667 80.1667 29 80.5 29C80.9668 29 81 28.8333 81 26.5C81 24.1667 81.0332 24 81.5 24C81.9167 24 82 23.8333 82 23C82 22.1667 81.9167 22 81.5 22C81.0332 22 81 21.8333 81 19.5C81 17.1667 80.9668 17 80.5 17C80.0833 17 80 16.8333 80 16C80 15.1667 79.9167 15 79.5 15C79.0833 15 79 14.8333 79 14V13H81C82.8333 13 83 13.0417 83 13.5C83 13.9167 83.1667 14 84 14C84.8333 14 85 14.0833 85 14.5C85 14.9167 85.1667 15 86 15C86.8333 15 87 14.9167 87 14.5C87 14.1667 87.1667 14 87.5 14C87.8333 14 88 13.8333 88 13.5C88 13.1667 87.8333 13 87.5 13C87.1667 13 87 12.8333 87 12.5C87 12.1667 86.8333 12 86.5 12C86.1667 12 86 11.8333 86 11.5C86 11.1667 85.8333 11 85.5 11C85.1667 11 85 10.8333 85 10.5C85 10.1667 84.8333 10 84.5 10C84.1667 10 84 9.83325 84 9.5C84 9.16675 83.8333 9 83.5 9C83.1667 9 83 8.83325 83 8.5C83 8.16675 82.8333 8 82.5 8C82.1667 8 82 7.83325 82 7.5C82 7.08325 81.8333 7 81 7C80.1667 7 80 6.91675 80 6.5C80 6.0185 79.8333 6 75.5 6C71.1667 6 71 6.0185 71 6.5C71 6.83325 70.8333 7 70.5 7C70.1667 7 70 6.83325 70 6.5C70 6.16675 69.8333 6 69.5 6C69.1667 6 69 5.83325 69 5.5C69 5.16675 68.8333 5 68.5 5C68.1667 5 68 4.83325 68 4.5C68 4.16675 67.8333 4 67.5 4C67.1667 4 67 3.83325 67 3.5C67 3.08325 66.8333 3 66 3C65.1667 3 65 2.91675 65 2.5C65 2.01675 64.8333 2 60 2C55.1667 2 55 2.01675 55 2.5C55 2.83325 54.8332 3 54.5 3C54.0832 3 54 3.16675 54 4C54 4.83325 54.0832 5 54.5 5C54.8332 5 55 5.16675 55 5.5C55 5.9445 55.1667 6 56.5 6C57.8333 6 58 6.0555 58 6.5C58 6.83325 58.1668 7 58.5 7C58.8332 7 59 7.16675 59 7.5C59 7.9445 58.8333 8 57.5 8C56.1667 8 56 8.0555 56 8.5C56 8.9445 55.8333 9 54.5 9C53.1667 9 53 9.0555 53 9.5C53 9.83325 52.8332 10 52.5 10C52.1668 10 52 10.1667 52 10.5C52 10.9167 51.8332 11 51 11C50.1668 11 50 11.0833 50 11.5C50 11.8333 49.8332 12 49.5 12C49.0832 12 49 12.1667 49 13C49 13.8333 48.9168 14 48.5 14C48.1668 14 48 14.1667 48 14.5C48 14.8333 47.8332 15 47.5 15C47.0418 15 47 15.1667 47 17V19H48C48.8332 19 49 18.9167 49 18.5C49 18.1667 49.1668 18 49.5 18C49.8332 18 50 17.8333 50 17.5C50 17.0833 50.1668 17 51 17C51.8332 17 52 16.9167 52 16.5C52 16.0555 52.1667 16 53.5 16C54.8333 16 55 15.9445 55 15.5C55 15.0417 55.1667 15 57 15H59V16V17H58C57.1668 17 57 17.0833 57 17.5C57 17.8333 56.8332 18 56.5 18C56.1668 18 56 18.1667 56 18.5C56 18.8333 55.8332 19 55.5 19C55.1668 19 55 19.1667 55 19.5C55 19.8333 54.8332 20 54.5 20C54.1668 20 54 20.1667 54 20.5C54 20.8333 53.8332 21 53.5 21C53.1668 21 53 21.1667 53 21.5C53 21.8333 52.8332 22 52.5 22C52.1668 22 52 22.1667 52 22.5C52 22.8333 51.8332 23 51.5 23C51.1668 23 51 23.1667 51 23.5C51 23.8333 50.8332 24 50.5 24C50.0832 24 50 24.1667 50 25C50 25.8333 49.9168 26 49.5 26C49.1668 26 49 26.1667 49 26.5C49 26.8333 48.8332 27 48.5 27C48.0832 27 48 27.1667 48 28C48 28.8333 47.9168 29 47.5 29C47.1668 29 47 29.1667 47 29.5C47 29.8333 46.8332 30 46.5 30C46.0832 30 46 30.1667 46 31C46 31.8333 45.9168 32 45.5 32C45.0832 32 45 32.1668 45 33C45 33.8332 44.9168 34 44.5 34C44.1668 34 44 34.1668 44 34.5C44 34.8332 43.8332 35 43.5 35C43.0832 35 43 35.1668 43 36C43 36.8332 42.9168 37 42.5 37C42.1668 37 42 37.1668 42 37.5C42 37.8332 41.8332 38 41.5 38C41.0555 38 41 37.8333 41 36.5C41 35.1667 40.9445 35 40.5 35C40.0832 35 40 34.8332 40 34C40 33.1668 39.9168 33 39.5 33C39.0555 33 39 32.8333 39 31.5C39 30.1667 38.9445 30 38.5 30C38.0832 30 38 29.8333 38 29C38 28.1667 37.9168 28 37.5 28C37.0832 28 37 27.8333 37 27C37 26.1667 36.9168 26 36.5 26C36.0832 26 36 25.8333 36 25C36 24.1667 35.9168 24 35.5 24C35.0832 24 35 23.8333 35 23C35 22.1667 34.9168 22 34.5 22C34.1668 22 34 21.8333 34 21.5C34 21.1667 33.8332 21 33.5 21C33.1668 21 33 20.8333 33 20.5C33 20.1667 32.8332 20 32.5 20C32.0832 20 32 19.8333 32 19C32 18.1667 31.9167 18 31.5 18C31.1667 18 31 17.8333 31 17.5C31 17.1667 30.8333 17 30.5 17C30.1667 17 30 16.8333 30 16.5C30 16.1667 29.8333 16 29.5 16C29.1667 16 29 15.8333 29 15.5C29 15.1667 28.8333 15 28.5 15C28.1667 15 28 14.8333 28 14.5C28 14.1667 27.8333 14 27.5 14C27.1667 14 27 13.8333 27 13.5C27 13.0417 27.1667 13 29 13C30.8333 13 31 13.0417 31 13.5C31 13.9445 31.1667 14 32.5 14C33.8333 14 34 14.0555 34 14.5C34 14.8333 34.1668 15 34.5 15C34.8332 15 35 15.1667 35 15.5C35 15.8333 35.1668 16 35.5 16C35.8332 16 36 16.1667 36 16.5C36 16.8333 36.1668 17 36.5 17C36.8332 17 37 17.1667 37 17.5C37 17.8333 37.1668 18 37.5 18C37.8332 18 38 18.1667 38 18.5C38 18.9167 38.1668 19 39 19H40V17C40 15.1667 39.9582 15 39.5 15C39.0832 15 39 14.8333 39 14C39 13.1667 38.9168 13 38.5 13C38.0832 13 38 12.8333 38 12C38 11.1667 37.9168 11 37.5 11C37.1668 11 37 10.8333 37 10.5C37 10.1667 36.8332 10 36.5 10C36.1668 10 36 9.83325 36 9.5C36 9.16675 35.8332 9 35.5 9C35.1668 9 35 8.83325 35 8.5C35 8.16675 34.8332 8 34.5 8C34.1668 8 34 7.83325 34 7.5C34 7.08325 33.8332 7 33 7C32.1668 7 32 6.91675 32 6.5C32 6.04175 31.8333 6 30 6C28.1667 6 28 5.95825 28 5.5C28 5.16675 27.8333 5 27.5 5C27.1667 5 27 4.83325 27 4.5C27 4.0555 27.1667 4 28.5 4C29.8333 4 30 3.9445 30 3.5C30 3.08325 30.1667 3 31 3H32V2C32 1.16675 31.9167 1 31.5 1C31.1667 1 31 0.83325 31 0.5C31 0.0185 30.8333 0 26.5 0C22.1667 0 22 0.0185 22 0.5ZM59 4.5C59 4.91675 59.1668 5 60 5C60.8332 5 61 5.08325 61 5.5C61 5.83325 61.1668 6 61.5 6C61.8332 6 62 6.16675 62 6.5C62 6.83325 62.1668 7 62.5 7C62.9582 7 63 7.16675 63 9V11H59C55.1667 11 55 11.0208 55 11.5C55 11.9167 54.8332 12 54 12C53.1668 12 53 12.0833 53 12.5C53 12.9792 53.1667 13 57 13C60.8333 13 61 13.0208 61 13.5C61 13.9167 61.1668 14 62 14C62.8332 14 63 14.0833 63 14.5C63 14.8333 63.1668 15 63.5 15C63.9168 15 64 15.1667 64 16C64 16.8333 64.0833 17 64.5 17C64.8333 17 65 17.1667 65 17.5C65 17.8333 65.1667 18 65.5 18C65.9583 18 66 18.1667 66 20C66 21.8333 66.0417 22 66.5 22C66.9583 22 67 22.1667 67 24C67 25.8333 66.9583 26 66.5 26C66.0417 26 66 26.1667 66 28C66 29.8333 65.9583 30 65.5 30C65.1667 30 65 30.1667 65 30.5C65 30.8333 65.1667 31 65.5 31C65.8333 31 66 30.8333 66 30.5C66 30.1667 66.1667 30 66.5 30C66.8333 30 67 29.8333 67 29.5C67 29.1667 67.1667 29 67.5 29C67.8333 29 68 28.8333 68 28.5C68 28.1667 68.1667 28 68.5 28C68.9167 28 69 27.8333 69 27C69 26.1667 69.0833 26 69.5 26C69.9445 26 70 25.8333 70 24.5C70 23.1667 70.0555 23 70.5 23C70.9445 23 71 22.8333 71 21.5C71 20.1667 70.9445 20 70.5 20C70.0417 20 70 19.8333 70 18V16H71C71.8333 16 72 16.0833 72 16.5C72 16.8333 72.1667 17 72.5 17C72.9167 17 73 17.1667 73 18V19H74C74.8333 19 75 19.0833 75 19.5C75 19.8333 75.1667 20 75.5 20C75.8333 20 76 20.1667 76 20.5C76 20.8333 76.1667 21 76.5 21C76.8333 21 77 21.1667 77 21.5C77 21.8333 77.1667 22 77.5 22C77.9167 22 78 22.1667 78 23C78 23.8333 78.0833 24 78.5 24C78.9668 24 79 23.8333 79 21.5C79 19.1667 78.9668 19 78.5 19C78.0833 19 78 18.8333 78 18C78 17.1667 77.9167 17 77.5 17C77.0833 17 77 16.8333 77 16C77 15.1667 76.9167 15 76.5 15C76.1667 15 76 14.8333 76 14.5C76 14.0833 75.8333 14 75 14C74.1667 14 74 14.0833 74 14.5C74 14.8333 73.8333 15 73.5 15C73.1667 15 73 14.8333 73 14.5C73 14.1667 72.8333 14 72.5 14C72.1667 14 72 13.8333 72 13.5C72 13.1667 72.1667 13 72.5 13C72.8333 13 73 12.8333 73 12.5C73 12.1667 73.1667 12 73.5 12C73.8333 12 74 11.8333 74 11.5C74 11.0555 74.1667 11 75.5 11C76.8333 11 77 10.9445 77 10.5C77 10.0555 77.1667 10 78.5 10C79.8333 10 80 9.9445 80 9.5C80 9.0555 79.8333 9 78.5 9C77.1667 9 77 8.9445 77 8.5C77 8.0555 76.8333 8 75.5 8C74.1667 8 74 8.0555 74 8.5C74 8.9445 73.8333 9 72.5 9C71.1667 9 71 9.0555 71 9.5C71 9.91675 70.8333 10 70 10C69.1667 10 69 10.0833 69 10.5C69 10.9167 68.8333 11 68 11C67.1667 11 67 10.9167 67 10.5C67 10.1667 66.8333 10 66.5 10C66.1667 10 66 9.83325 66 9.5C66 9.16675 66.1667 9 66.5 9C66.8333 9 67 8.83325 67 8.5C67 8.16675 67.1667 8 67.5 8C67.8333 8 68 7.83325 68 7.5C68 7.16675 67.8333 7 67.5 7C67.1667 7 67 6.83325 67 6.5C67 6.08325 66.8333 6 66 6C65.1667 6 65 5.91675 65 5.5C65 5.08325 64.8333 5 64 5C63.1668 5 63 4.91675 63 4.5C63 4.04175 62.8333 4 61 4C59.1667 4 59 4.04175 59 4.5ZM33 11.5C33 11.9167 33.1668 12 34 12C34.8332 12 35 11.9167 35 11.5C35 11.0833 34.8332 11 34 11C33.1668 11 33 11.0833 33 11.5ZM24 23C24 23.8333 24.0833 24 24.5 24C24.8333 24 25 24.1667 25 24.5C25 24.8333 25.1667 25 25.5 25C25.8333 25 26 25.1667 26 25.5C26 25.8333 26.1667 26 26.5 26C26.9167 26 27 26.1667 27 27C27 27.8333 27.0833 28 27.5 28C27.9167 28 28 28.1667 28 29C28 29.8333 28.0833 30 28.5 30C28.9167 30 29 30.1667 29 31C29 31.8333 29.0833 32 29.5 32C29.9167 32 30 32.1668 30 33C30 33.8332 30.0833 34 30.5 34C30.9445 34 31 34.1667 31 35.5C31 36.8333 31.0555 37 31.5 37C31.9445 37 32 37.1667 32 38.5C32 39.8333 32.0555 40 32.5 40C32.9723 40 33 40.1667 33 43C33 45.8333 33.0277 46 33.5 46C33.9832 46 34 46.1667 34 51C34 55.8333 33.9832 56 33.5 56C33.0277 56 33 56.1667 33 59C33 61.8333 32.9723 62 32.5 62C32.0555 62 32 62.1667 32 63.5V65H33C33.8332 65 34 64.9167 34 64.5C34 64.1667 34.1668 64 34.5 64C34.9668 64 35 63.8333 35 61.5C35 59.1667 35.0332 59 35.5 59C35.989 59 36 58.8333 36 51.5C36 44.1667 35.989 44 35.5 44C35.0332 44 35 43.8333 35 41.5C35 39.1667 34.9668 39 34.5 39C34.0555 39 34 38.8333 34 37.5C34 36.1667 33.9445 36 33.5 36C33.0555 36 33 35.8333 33 34.5C33 33.1667 32.9445 33 32.5 33C32.0832 33 32 32.8332 32 32C32 31.1667 31.9167 31 31.5 31C31.0833 31 31 30.8333 31 30C31 29.1667 30.9167 29 30.5 29C30.0833 29 30 28.8333 30 28C30 27.1667 29.9167 27 29.5 27C29.0833 27 29 26.8333 29 26C29 25.1667 28.9167 25 28.5 25C28.0833 25 28 24.8333 28 24C28 23.1667 27.9167 23 27.5 23C27.1667 23 27 22.8333 27 22.5C27 22.0555 26.8333 22 25.5 22H24V23ZM59 24.5C59 24.8333 58.8332 25 58.5 25C58.1668 25 58 25.1667 58 25.5C58 25.8333 57.8332 26 57.5 26C57.0832 26 57 26.1667 57 27C57 27.8333 56.9168 28 56.5 28C56.1668 28 56 28.1667 56 28.5C56 28.8333 55.8332 29 55.5 29C55.0832 29 55 29.1667 55 30C55 30.8333 54.9168 31 54.5 31C54.0832 31 54 31.1667 54 32C54 32.8332 53.9168 33 53.5 33C53.0832 33 53 33.1668 53 34C53 34.8332 52.9168 35 52.5 35C52.0832 35 52 35.1668 52 36C52 36.8332 51.9168 37 51.5 37C51.0555 37 51 37.1667 51 38.5C51 39.8333 50.9445 40 50.5 40C50.0555 40 50 40.1667 50 41.5C50 42.8333 49.9445 43 49.5 43C49.0332 43 49 43.1667 49 45.5C49 47.8333 48.9668 48 48.5 48C48.1668 48 48 48.1668 48 48.5C48 48.8332 48.1668 49 48.5 49C48.8332 49 49 49.1668 49 49.5C49 49.8332 48.8332 50 48.5 50C48.0153 50 48 50.1667 48 55.5C48 60.8333 48.0153 61 48.5 61C48.9582 61 49 61.1667 49 63V65H50H51V60.5C51 56.1667 50.9815 56 50.5 56C50.0332 56 50 55.8333 50 53.5C50 51.1667 50.0332 51 50.5 51C50.9762 51 51 50.8333 51 47.5C51 44.1667 51.0238 44 51.5 44C51.9582 44 52 43.8333 52 42C52 40.1667 52.0418 40 52.5 40C52.9168 40 53 39.8332 53 39C53 38.1668 53.0832 38 53.5 38C53.9445 38 54 37.8333 54 36.5C54 35.1667 54.0555 35 54.5 35C54.9168 35 55 34.8332 55 34C55 33.1668 55.0832 33 55.5 33C55.8332 33 56 32.8332 56 32.5C56 32.1668 56.1668 32 56.5 32C56.9168 32 57 31.8333 57 31C57 30.1667 57.0832 30 57.5 30C57.8332 30 58 29.8333 58 29.5C58 29.1667 58.1668 29 58.5 29C58.8332 29 59 28.8333 59 28.5C59 28.1667 59.1668 28 59.5 28C59.8332 28 60 27.8333 60 27.5C60 27.1667 60.1668 27 60.5 27C60.9445 27 61 26.8333 61 25.5V24H60C59.1668 24 59 24.0833 59 24.5ZM19 27.5C19 27.8333 19.1667 28 19.5 28C19.8333 28 20 27.8333 20 27.5C20 27.1667 19.8333 27 19.5 27C19.1667 27 19 27.1667 19 27.5ZM24 53.5C24 53.9832 23.8333 54 19 54C14.1667 54 14 54.0168 14 54.5C14 54.8332 13.8333 55 13.5 55C13.0833 55 13 55.1668 13 56C13 56.8332 12.9167 57 12.5 57C12.0332 57 12 57.1667 12 59.5C12 61.8333 12.0332 62 12.5 62C12.8333 62 13 62.1668 13 62.5C13 62.8332 13.1667 63 13.5 63C13.8333 63 14 63.1668 14 63.5C14 63.8332 14.1667 64 14.5 64C14.8333 64 15 64.1667 15 64.5C15 64.9668 15.1667 65 17.5 65C19.8333 65 20 64.9668 20 64.5C20 64.0833 20.1667 64 21 64C21.8333 64 22 64.0833 22 64.5C22 64.9668 22.1667 65 24.5 65C26.8333 65 27 64.9668 27 64.5C27 64.1667 27.1667 64 27.5 64C27.8333 64 28 63.8332 28 63.5C28 63.1668 28.1667 63 28.5 63C28.8333 63 29 62.8332 29 62.5C29 62.1668 29.1667 62 29.5 62C29.9667 62 30 61.8333 30 59.5C30 57.1667 29.9667 57 29.5 57C29.1667 57 29 56.8332 29 56.5C29 56.1668 28.8333 56 28.5 56C28.1667 56 28 55.8332 28 55.5C28 55.1668 27.8333 55 27.5 55C27.1667 55 27 54.8332 27 54.5C27 54.0832 26.8333 54 26 54C25.1667 54 25 53.9168 25 53.5C25 53.1668 24.8333 53 24.5 53C24.1667 53 24 53.1668 24 53.5ZM57 55C57 55.8332 56.9168 56 56.5 56C56.1668 56 56 56.1668 56 56.5C56 56.8332 55.8332 57 55.5 57C55.0332 57 55 57.1667 55 59.5C55 61.8333 55.0332 62 55.5 62C55.8332 62 56 62.1668 56 62.5C56 62.8332 56.1668 63 56.5 63C56.8332 63 57 63.1668 57 63.5C57 63.8332 57.1668 64 57.5 64C57.8332 64 58 64.1667 58 64.5C58 64.9668 58.1667 65 60.5 65C62.8333 65 63 64.9668 63 64.5C63 64.0833 63.1668 64 64 64H65V63C65 62.1668 65.0833 62 65.5 62C65.9723 62 66 61.8333 66 59C66 56.1667 65.9723 56 65.5 56C65.1667 56 65 55.8332 65 55.5C65 55.1668 64.8333 55 64.5 55C64.1667 55 64 54.8332 64 54.5C64 54.0238 63.8333 54 60.5 54H57V55ZM16 56.5C16 56.8332 15.8333 57 15.5 57C15.0332 57 15 57.1667 15 59.5V62H17H19V59V56H17.5C16.1667 56 16 56.0555 16 56.5ZM23 56.5C23 56.8332 22.8333 57 22.5 57C22.1667 57 22 57.1668 22 57.5C22 57.8332 21.8333 58 21.5 58C21.0555 58 21 58.1667 21 59.5C21 60.8333 21.0555 61 21.5 61C21.8333 61 22 61.1668 22 61.5C22 61.9582 22.1667 62 24 62C25.8333 62 26 61.9582 26 61.5C26 61.1668 26.1667 61 26.5 61C26.9583 61 27 60.8333 27 59C27 57.1667 26.9583 57 26.5 57C26.1667 57 26 56.8332 26 56.5C26 56.0555 25.8333 56 24.5 56C23.1667 56 23 56.0555 23 56.5ZM59 56.5C59 56.8332 58.8332 57 58.5 57C58.0832 57 58 57.1668 58 58C58 58.8332 57.9168 59 57.5 59C57.1668 59 57 59.1668 57 59.5C57 59.8332 57.1668 60 57.5 60C57.9168 60 58 60.1668 58 61V62H60.5C62.8333 62 63 61.9668 63 61.5C63 61.1668 63.1668 61 63.5 61C63.9445 61 64 60.8333 64 59.5C64 58.1667 63.9445 58 63.5 58C63.1668 58 63 57.8332 63 57.5C63 57.1668 62.8332 57 62.5 57C62.1668 57 62 56.8332 62 56.5C62 56.0555 61.8333 56 60.5 56C59.1667 56 59 56.0555 59 56.5Z" fill="#354354"/>
</g>
<defs>
<clipPath id="clip0_2_8286">
<rect width="88" height="65" fill="white"/>
</clipPath>
</defs>
</svg>
