<svg width="72" height="51" viewBox="0 0 72 51" fill="none" xmlns="http://www.w3.org/2000/svg">
<g clip-path="url(#clip0_2_8308)">
<path fill-rule="evenodd" clip-rule="evenodd" d="M20 17.5V22H21C21.8333 22 22 21.9167 22 21.5C22 21.1667 22.1667 21 22.5 21C22.9167 21 23 20.8333 23 20C23 19.1667 23.0833 19 23.5 19C23.8333 19 24 18.8333 24 18.5C24 18.1667 24.1667 18 24.5 18C24.8333 18 25 17.8333 25 17.5C25 17.1667 25.1667 17 25.5 17C25.8333 17 26 16.8333 26 16.5C26 16.0833 26.1667 16 27 16C27.8333 16 28 15.9167 28 15.5C28 15.1667 28.1667 15 28.5 15C28.8333 15 29 14.8333 29 14.5C29 14.0555 29.1667 14 30.5 14C31.8333 14 32 13.9445 32 13.5C32 13.014 31.8333 13 26 13H20V17.5ZM40 13.5C40 13.9445 40.1667 14 41.5 14C42.8333 14 43 14.0555 43 14.5C43 14.8333 43.1667 15 43.5 15C43.8333 15 44 15.1667 44 15.5C44 15.9167 44.1667 16 45 16C45.8333 16 46 16.0833 46 16.5C46 16.8333 46.1667 17 46.5 17C46.8333 17 47 17.1667 47 17.5C47 17.8333 47.1667 18 47.5 18C47.8333 18 48 18.1667 48 18.5C48 18.8333 48.1667 19 48.5 19C48.9167 19 49 19.1667 49 20C49 20.8333 49.0833 21 49.5 21C49.8333 21 50 21.1667 50 21.5C50 21.9167 50.1667 22 51 22H52V17.5V13H46C40.1667 13 40 13.014 40 13.5ZM33 15.5C33 15.9445 32.8333 16 31.5 16C30.1667 16 30 16.0555 30 16.5C30 16.9167 29.8333 17 29 17C28.1667 17 28 17.0833 28 17.5C28 17.8333 27.8333 18 27.5 18C27.1667 18 27 18.1667 27 18.5C27 18.8333 26.8333 19 26.5 19C26.1667 19 26 19.1667 26 19.5C26 19.8333 25.8333 20 25.5 20C25.0833 20 25 20.1667 25 21C25 21.8333 24.9167 22 24.5 22C24.0833 22 24 22.1667 24 23C24 23.8333 23.9167 24 23.5 24C23.0185 24 23 24.1667 23 28.5C23 32.8333 23.0185 33 23.5 33C23.9167 33 24 33.1667 24 34C24 34.8333 24.0833 35 24.5 35C24.9167 35 25 35.1667 25 36C25 36.8333 25.0833 37 25.5 37C25.8333 37 26 37.1667 26 37.5C26 37.8333 26.1667 38 26.5 38C26.8333 38 27 38.1667 27 38.5C27 38.9167 27.1667 39 28 39C28.8333 39 29 39.0833 29 39.5C29 39.9167 29.1667 40 30 40C30.8333 40 31 40.0833 31 40.5C31 40.9445 31.1667 41 32.5 41C33.8333 41 34 41.0555 34 41.5C34 41.9583 34.1667 42 36 42C37.8333 42 38 41.9583 38 41.5C38 41.0555 38.1667 41 39.5 41C40.8333 41 41 40.9445 41 40.5C41 40.0833 41.1667 40 42 40C42.8333 40 43 39.9167 43 39.5C43 39.0833 43.1667 39 44 39C44.8333 39 45 38.9167 45 38.5C45 38.1667 45.1667 38 45.5 38C45.8333 38 46 37.8333 46 37.5C46 37.1667 46.1667 37 46.5 37C46.9167 37 47 36.8333 47 36C47 35.1667 47.0833 35 47.5 35C47.9167 35 48 34.8333 48 34C48 33.1667 48.0833 33 48.5 33C48.9815 33 49 32.8333 49 28.5C49 24.1667 48.9815 24 48.5 24C48.0833 24 48 23.8333 48 23C48 22.1667 47.9167 22 47.5 22C47.0833 22 47 21.8333 47 21C47 20.1667 46.9167 20 46.5 20C46.1667 20 46 19.8333 46 19.5C46 19.1667 45.8333 19 45.5 19C45.1667 19 45 18.8333 45 18.5C45 18.1667 44.8333 18 44.5 18C44.1667 18 44 17.8333 44 17.5C44 17.0833 43.8333 17 43 17C42.1667 17 42 16.9167 42 16.5C42 16.0555 41.8333 16 40.5 16C39.1667 16 39 15.9445 39 15.5C39 15.0278 38.8333 15 36 15C33.1667 15 33 15.0278 33 15.5ZM33 18.5C33 18.9445 32.8333 19 31.5 19C30.1667 19 30 19.0555 30 19.5C30 19.8333 29.8333 20 29.5 20C29.1667 20 29 20.1667 29 20.5C29 20.8333 28.8333 21 28.5 21C28.1667 21 28 21.1667 28 21.5C28 21.8333 27.8333 22 27.5 22C27.0833 22 27 22.1667 27 23C27 23.8333 26.9167 24 26.5 24C26.0417 24 26 24.1667 26 26C26 27.8333 25.9583 28 25.5 28C25.1667 28 25 28.1667 25 28.5C25 28.8333 25.1667 29 25.5 29C25.9583 29 26 29.1667 26 31C26 32.8333 26.0417 33 26.5 33C26.9167 33 27 33.1667 27 34C27 34.8333 27.0833 35 27.5 35C27.8333 35 28 35.1667 28 35.5C28 35.8333 28.1667 36 28.5 36C28.8333 36 29 36.1667 29 36.5C29 36.9167 29.1667 37 30 37C30.8333 37 31 37.0833 31 37.5C31 37.9167 31.1667 38 32 38C32.8333 38 33 38.0833 33 38.5C33 38.9722 33.1667 39 36 39C38.8333 39 39 38.9722 39 38.5C39 38.0833 39.1667 38 40 38C40.8333 38 41 37.9167 41 37.5C41 37.0833 41.1667 37 42 37C42.8333 37 43 36.9167 43 36.5C43 36.1667 43.1667 36 43.5 36C43.8333 36 44 35.8333 44 35.5C44 35.1667 44.1667 35 44.5 35C44.9167 35 45 34.8333 45 34C45 33.1667 45.0833 33 45.5 33C45.9583 33 46 32.8333 46 31C46 29.1667 46.0417 29 46.5 29C46.8333 29 47 28.8333 47 28.5C47 28.1667 46.8333 28 46.5 28C46.0417 28 46 27.8333 46 26C46 24.1667 45.9583 24 45.5 24C45.0833 24 45 23.8333 45 23C45 22.1667 44.9167 22 44.5 22C44.1667 22 44 21.8333 44 21.5C44 21.1667 43.8333 21 43.5 21C43.1667 21 43 20.8333 43 20.5C43 20.1667 42.8333 20 42.5 20C42.1667 20 42 19.8333 42 19.5C42 19.0555 41.8333 19 40.5 19C39.1667 19 39 18.9445 39 18.5C39 18.0278 38.8333 18 36 18C33.1667 18 33 18.0278 33 18.5ZM33 20.5C33 20.8333 32.8333 21 32.5 21C32.1667 21 32 21.1667 32 21.5C32 21.9792 32.1667 22 36 22C39.8333 22 40 21.9792 40 21.5C40 21.1667 39.8333 21 39.5 21C39.1667 21 39 20.8333 39 20.5C39 20.0278 38.8333 20 36 20C33.1667 20 33 20.0278 33 20.5ZM20 25C20 25.8333 20.0832 26 20.5 26C20.9168 26 21 25.8333 21 25C21 24.1667 20.9168 24 20.5 24C20.0832 24 20 24.1667 20 25ZM51 25C51 25.8333 51.0833 26 51.5 26C51.9167 26 52 25.8333 52 25C52 24.1667 51.9167 24 51.5 24C51.0833 24 51 24.1667 51 25ZM28 26.5C28 27.8333 27.9445 28 27.5 28C27.1667 28 27 28.1667 27 28.5C27 28.8333 27.1667 29 27.5 29C27.9445 29 28 29.1667 28 30.5C28 31.8333 28.0555 32 28.5 32C28.9762 32 29 31.8333 29 28.5C29 25.1667 28.9762 25 28.5 25C28.0555 25 28 25.1667 28 26.5ZM43 28.5C43 31.8333 43.0238 32 43.5 32C43.9445 32 44 31.8333 44 30.5C44 29.1667 44.0555 29 44.5 29C44.8333 29 45 28.8333 45 28.5C45 28.1667 44.8333 28 44.5 28C44.0555 28 44 27.8333 44 26.5C44 25.1667 43.9445 25 43.5 25C43.0238 25 43 25.1667 43 28.5ZM20 37C20 42.8333 20.014 43 20.5 43C20.8332 43 21 43.1667 21 43.5C21 43.9848 21.1667 44 26.5 44C31.8333 44 32 43.9848 32 43.5C32 43.0833 31.8333 43 31 43C30.1667 43 30 42.9167 30 42.5C30 42.0833 29.8333 42 29 42C28.1667 42 28 41.9167 28 41.5C28 41.0833 27.8333 41 27 41C26.1667 41 26 40.9167 26 40.5C26 40.1667 25.8333 40 25.5 40C25.1667 40 25 39.8333 25 39.5C25 39.1667 24.8333 39 24.5 39C24.0833 39 24 38.8333 24 38C24 37.1667 23.9167 37 23.5 37C23.1667 37 23 36.8333 23 36.5C23 36.1667 22.8333 36 22.5 36C22.0833 36 22 35.8333 22 35C22 34.1667 21.9167 34 21.5 34C21.0555 34 21 33.8333 21 32.5C21 31.1667 20.9445 31 20.5 31C20.014 31 20 31.1667 20 37ZM51 32.5C51 33.8333 50.9445 34 50.5 34C50.0833 34 50 34.1667 50 35C50 35.8333 49.9167 36 49.5 36C49.1667 36 49 36.1667 49 36.5C49 36.8333 48.8333 37 48.5 37C48.0833 37 48 37.1667 48 38C48 38.8333 47.9167 39 47.5 39C47.1667 39 47 39.1667 47 39.5C47 39.8333 46.8333 40 46.5 40C46.1667 40 46 40.1667 46 40.5C46 40.9167 45.8333 41 45 41C44.1667 41 44 41.0833 44 41.5C44 41.9167 43.8333 42 43 42C42.1667 42 42 42.0833 42 42.5C42 42.9167 41.8333 43 41 43C40.1667 43 40 43.0833 40 43.5C40 43.9848 40.1667 44 45.5 44C50.8333 44 51 43.9848 51 43.5C51 43.1667 51.1667 43 51.5 43C51.986 43 52 42.8333 52 37C52 31.1667 51.986 31 51.5 31C51.0555 31 51 31.1667 51 32.5ZM32 35.5C32 35.9167 32.1667 36 33 36C33.8333 36 34 36.0833 34 36.5C34 36.9583 34.1667 37 36 37C37.8333 37 38 36.9583 38 36.5C38 36.0833 38.1667 36 39 36C39.8333 36 40 35.9167 40 35.5C40 35.0208 39.8333 35 36 35C32.1667 35 32 35.0208 32 35.5Z" fill="#FECE01" fill-opacity="0.6"/>
<path fill-rule="evenodd" clip-rule="evenodd" d="M27 0.5C27 0.83325 26.8333 1 26.5 1C26.0833 1 26 1.16675 26 2C26 2.83325 25.9167 3 25.5 3C25.0833 3 25 3.16675 25 4C25 4.83325 24.9167 5 24.5 5C24.1667 5 24 5.16675 24 5.5C24 5.97225 23.8333 6 21 6C18.1667 6 18 5.97225 18 5.5C18 5.16675 18.1667 5 18.5 5C18.8333 5 19 4.83325 19 4.5C19 4.16675 18.8333 4 18.5 4C18.1667 4 18 3.83325 18 3.5C18 3.02075 17.8333 3 14 3H10V4C10 4.83325 10.0833 5 10.5 5C10.8333 5 11 5.16675 11 5.5C11 5.97625 10.8333 6 7.5 6C4.16675 6 4 6.02375 4 6.5C4 6.83325 3.83325 7 3.5 7C3.16675 7 3 7.16675 3 7.5C3 7.83325 2.83325 8 2.5 8C2.16675 8 2 8.16675 2 8.5C2 8.83325 1.83325 9 1.5 9C1.08325 9 1 9.16675 1 10C1 10.8333 0.91675 11 0.5 11C0.00475001 11 0 11.1667 0 28.5C0 45.8333 0.00475001 46 0.5 46C0.91675 46 1 46.1668 1 47C1 47.8332 1.08325 48 1.5 48C1.83325 48 2 48.1668 2 48.5C2 48.8332 2.16675 49 2.5 49C2.83325 49 3 49.1668 3 49.5C3 49.9168 3.16675 50 4 50C4.83325 50 5 50.0832 5 50.5C5 50.9972 5.16675 51 36 51C66.8333 51 67 50.9972 67 50.5C67 50.0832 67.1667 50 68 50C68.8333 50 69 49.9168 69 49.5C69 49.1668 69.1667 49 69.5 49C69.8333 49 70 48.8332 70 48.5C70 48.1668 70.1667 48 70.5 48C70.9153 48 71 47.8333 71 47.0175C71 46.1888 71.0882 46.0223 71.5625 45.955L72.125 45.875L72.1892 28.3468L72.2533 10.8188L71.6267 10.9385C71.0397 11.0508 71 10.9928 71 10.0293C71 9.16675 70.919 9 70.5 9C70.1667 9 70 8.83325 70 8.5C70 8.16675 69.8333 8 69.5 8C69.1667 8 69 7.83325 69 7.5C69 7.16675 68.8333 7 68.5 7C68.1667 7 68 6.83325 68 6.5C68 6.02375 67.8333 6 64.5 6C61.1667 6 61 5.97625 61 5.5C61 5.16675 61.1668 5 61.5 5C61.9168 5 62 4.83325 62 4V3H58C54.1667 3 54 3.02075 54 3.5C54 3.83325 53.8332 4 53.5 4C53.1668 4 53 4.16675 53 4.5C53 4.83325 53.1668 5 53.5 5C53.8332 5 54 5.16675 54 5.5C54 5.97225 53.8333 6 51 6C48.1667 6 48 5.97225 48 5.5C48 5.16675 47.8332 5 47.5 5C47.0832 5 47 4.83325 47 4C47 3.16675 46.9168 3 46.5 3C46.0832 3 46 2.83325 46 2C46 1.16675 45.9168 1 45.5 1C45.1668 1 45 0.83325 45 0.5C45 0.00924999 44.8333 0 36 0C27.1667 0 27 0.00924999 27 0.5ZM28 4C28 4.83325 27.9167 5 27.5 5C27.0833 5 27 5.16675 27 6C27 6.83325 26.9167 7 26.5 7C26.0833 7 26 7.16675 26 8C26 8.83325 25.9167 9 25.5 9C25.1667 9 25 9.16675 25 9.5C25 9.83325 24.8333 10 24.5 10C24.1667 10 24 10.1667 24 10.5C24 10.9167 23.8333 11 23 11H22V10V9H13C4.16675 9 4 9.00925 4 9.5C4 9.83325 3.83325 10 3.5 10C3.014 10 3 10.1667 3 16V22H12.5C21.8333 22 22 21.9912 22 21.5C22 21.1667 22.1667 21 22.5 21C22.9167 21 23 20.8333 23 20C23 19.1667 23.0833 19 23.5 19C23.8333 19 24 18.8333 24 18.5C24 18.1667 24.1667 18 24.5 18C24.8333 18 25 17.8333 25 17.5C25 17.1667 25.1667 17 25.5 17C25.8333 17 26 16.8333 26 16.5C26 16.0833 26.1667 16 27 16C27.8333 16 28 15.9167 28 15.5C28 15.1667 28.1667 15 28.5 15C28.8333 15 29 14.8333 29 14.5C29 14.0555 29.1667 14 30.5 14C31.8333 14 32 13.9445 32 13.5C32 13.0208 32.1667 13 36 13C39.8333 13 40 13.0208 40 13.5C40 13.9445 40.1667 14 41.5 14C42.8333 14 43 14.0555 43 14.5C43 14.8333 43.1668 15 43.5 15C43.8332 15 44 15.1667 44 15.5C44 15.9167 44.1668 16 45 16C45.8332 16 46 16.0833 46 16.5C46 16.8333 46.1668 17 46.5 17C46.8332 17 47 17.1667 47 17.5C47 17.8333 47.1668 18 47.5 18C47.8332 18 48 18.1667 48 18.5C48 18.8333 48.1668 19 48.5 19C48.9168 19 49 19.1667 49 20C49 20.8333 49.0832 21 49.5 21C49.8332 21 50 21.1667 50 21.5C50 21.9912 50.1667 22 59.5 22H69V16C69 10.1667 68.986 10 68.5 10C68.1667 10 68 9.83325 68 9.5C68 9.00925 67.8333 9 59 9H50V10V11H49C48.1668 11 48 10.9167 48 10.5C48 10.1667 47.8332 10 47.5 10C47.1668 10 47 9.83325 47 9.5C47 9.16675 46.8332 9 46.5 9C46.0832 9 46 8.83325 46 8C46 7.16675 45.9168 7 45.5 7C45.0832 7 45 6.83325 45 6C45 5.16675 44.9168 5 44.5 5C44.0832 5 44 4.83325 44 4V3H36H28V4ZM0.1185 28.5C0.1185 38.1937 0.1495 42.1595 0.1875 37.3125C0.22525 32.4658 0.22525 24.5345 0.1875 19.6875C0.1495 14.8407 0.1185 18.8062 0.1185 28.5ZM59 11.5C59 11.8333 58.8332 12 58.5 12C58.0277 12 58 12.1667 58 15C58 17.8333 58.0277 18 58.5 18C58.8332 18 59 18.1667 59 18.5C59 18.9762 59.1667 19 62.5 19C65.8333 19 66 18.9762 66 18.5C66 18.1667 66.1667 18 66.5 18C66.9723 18 67 17.8333 67 15C67 12.1667 66.9723 12 66.5 12C66.1667 12 66 11.8333 66 11.5C66 11.0238 65.8333 11 62.5 11C59.1667 11 59 11.0238 59 11.5ZM61 15.5V17H62.5H64V15.5V14H62.5H61V15.5ZM33 15.5C33 15.9445 32.8333 16 31.5 16C30.1667 16 30 16.0555 30 16.5C30 16.9167 29.8333 17 29 17C28.1667 17 28 17.0833 28 17.5C28 17.8333 27.8333 18 27.5 18C27.1667 18 27 18.1667 27 18.5C27 18.8333 26.8333 19 26.5 19C26.1667 19 26 19.1667 26 19.5C26 19.8333 25.8333 20 25.5 20C25.0833 20 25 20.1667 25 21C25 21.8333 24.9167 22 24.5 22C24.0833 22 24 22.1667 24 23C24 23.8333 23.9167 24 23.5 24C23.0185 24 23 24.1667 23 28.5C23 32.8333 23.0185 33 23.5 33C23.9167 33 24 33.1668 24 34C24 34.8332 24.0833 35 24.5 35C24.9167 35 25 35.1668 25 36C25 36.8332 25.0833 37 25.5 37C25.8333 37 26 37.1668 26 37.5C26 37.8332 26.1667 38 26.5 38C26.8333 38 27 38.1668 27 38.5C27 38.9168 27.1667 39 28 39C28.8333 39 29 39.0832 29 39.5C29 39.9168 29.1667 40 30 40C30.8333 40 31 40.0832 31 40.5C31 40.9445 31.1667 41 32.5 41C33.8333 41 34 41.0555 34 41.5C34 41.9582 34.1667 42 36 42C37.8333 42 38 41.9582 38 41.5C38 41.0555 38.1667 41 39.5 41C40.8333 41 41 40.9445 41 40.5C41 40.0832 41.1668 40 42 40C42.8332 40 43 39.9168 43 39.5C43 39.0832 43.1668 39 44 39C44.8332 39 45 38.9168 45 38.5C45 38.1668 45.1668 38 45.5 38C45.8332 38 46 37.8332 46 37.5C46 37.1668 46.1668 37 46.5 37C46.9168 37 47 36.8332 47 36C47 35.1668 47.0832 35 47.5 35C47.9168 35 48 34.8332 48 34C48 33.1668 48.0832 33 48.5 33C48.9815 33 49 32.8333 49 28.5C49 24.1667 48.9815 24 48.5 24C48.0832 24 48 23.8333 48 23C48 22.1667 47.9168 22 47.5 22C47.0832 22 47 21.8333 47 21C47 20.1667 46.9168 20 46.5 20C46.1668 20 46 19.8333 46 19.5C46 19.1667 45.8332 19 45.5 19C45.1668 19 45 18.8333 45 18.5C45 18.1667 44.8332 18 44.5 18C44.1668 18 44 17.8333 44 17.5C44 17.0833 43.8332 17 43 17C42.1668 17 42 16.9167 42 16.5C42 16.0555 41.8333 16 40.5 16C39.1667 16 39 15.9445 39 15.5C39 15.0278 38.8333 15 36 15C33.1667 15 33 15.0278 33 15.5ZM33 18.5C33 18.9445 32.8333 19 31.5 19C30.1667 19 30 19.0555 30 19.5C30 19.8333 29.8333 20 29.5 20C29.1667 20 29 20.1667 29 20.5C29 20.8333 28.8333 21 28.5 21C28.1667 21 28 21.1667 28 21.5C28 21.8333 27.8333 22 27.5 22C27.0833 22 27 22.1667 27 23C27 23.8333 26.9167 24 26.5 24C26.0417 24 26 24.1667 26 26C26 27.8333 25.9583 28 25.5 28C25.1667 28 25 28.1667 25 28.5C25 28.8333 25.1667 29 25.5 29C25.9583 29 26 29.1667 26 31C26 32.8333 26.0417 33 26.5 33C26.9167 33 27 33.1668 27 34C27 34.8332 27.0833 35 27.5 35C27.8333 35 28 35.1668 28 35.5C28 35.8332 28.1667 36 28.5 36C28.8333 36 29 36.1668 29 36.5C29 36.9168 29.1667 37 30 37C30.8333 37 31 37.0832 31 37.5C31 37.9168 31.1667 38 32 38C32.8332 38 33 38.0832 33 38.5C33 38.9723 33.1667 39 36 39C38.8333 39 39 38.9723 39 38.5C39 38.0832 39.1668 38 40 38C40.8332 38 41 37.9168 41 37.5C41 37.0832 41.1668 37 42 37C42.8332 37 43 36.9168 43 36.5C43 36.1668 43.1668 36 43.5 36C43.8332 36 44 35.8332 44 35.5C44 35.1668 44.1668 35 44.5 35C44.9168 35 45 34.8332 45 34C45 33.1668 45.0832 33 45.5 33C45.9582 33 46 32.8333 46 31C46 29.1667 46.0418 29 46.5 29C46.8332 29 47 28.8333 47 28.5C47 28.1667 46.8332 28 46.5 28C46.0418 28 46 27.8333 46 26C46 24.1667 45.9582 24 45.5 24C45.0832 24 45 23.8333 45 23C45 22.1667 44.9168 22 44.5 22C44.1668 22 44 21.8333 44 21.5C44 21.1667 43.8332 21 43.5 21C43.1668 21 43 20.8333 43 20.5C43 20.1667 42.8332 20 42.5 20C42.1668 20 42 19.8333 42 19.5C42 19.0555 41.8333 19 40.5 19C39.1667 19 39 18.9445 39 18.5C39 18.0278 38.8333 18 36 18C33.1667 18 33 18.0278 33 18.5ZM33 20.5C33 20.8333 32.8332 21 32.5 21C32.1668 21 32 21.1667 32 21.5C32 21.9167 31.8333 22 31 22C30.1667 22 30 22.0833 30 22.5C30 22.8333 29.8333 23 29.5 23C29.0833 23 29 23.1667 29 24C29 24.8333 28.9167 25 28.5 25C28.0555 25 28 25.1667 28 26.5C28 27.8333 27.9445 28 27.5 28C27.1667 28 27 28.1667 27 28.5C27 28.8333 27.1667 29 27.5 29C27.9445 29 28 29.1667 28 30.5C28 31.8333 28.0555 32 28.5 32C28.8333 32 29 32.1668 29 32.5C29 32.8332 29.1667 33 29.5 33C29.8333 33 30 33.1668 30 33.5C30 33.8332 30.1667 34 30.5 34C30.8333 34 31 34.1668 31 34.5C31 34.8332 31.1667 35 31.5 35C31.8333 35 32 35.1668 32 35.5C32 35.9168 32.1668 36 33 36C33.8332 36 34 36.0832 34 36.5C34 36.9582 34.1667 37 36 37C37.8333 37 38 36.9582 38 36.5C38 36.0832 38.1668 36 39 36C39.8332 36 40 35.9168 40 35.5C40 35.1668 40.1668 35 40.5 35C40.8332 35 41 34.8332 41 34.5C41 34.1668 41.1668 34 41.5 34C41.8332 34 42 33.8332 42 33.5C42 33.1668 42.1668 33 42.5 33C42.8332 33 43 32.8332 43 32.5C43 32.1668 43.1668 32 43.5 32C43.9445 32 44 31.8333 44 30.5C44 29.1667 44.0555 29 44.5 29C44.8332 29 45 28.8333 45 28.5C45 28.1667 44.8332 28 44.5 28C44.0555 28 44 27.8333 44 26.5C44 25.1667 43.9445 25 43.5 25C43.0832 25 43 24.8333 43 24C43 23.1667 42.9168 23 42.5 23C42.1668 23 42 22.8333 42 22.5C42 22.0833 41.8332 22 41 22C40.1668 22 40 21.9167 40 21.5C40 21.1667 39.8332 21 39.5 21C39.1668 21 39 20.8333 39 20.5C39 20.0278 38.8333 20 36 20C33.1667 20 33 20.0278 33 20.5ZM3 35C3 45.8333 3.0075 46 3.5 46C3.83325 46 4 46.1668 4 46.5C4 46.8332 4.16675 47 4.5 47C4.83325 47 5 47.1668 5 47.5C5 47.9972 5.16675 48 36 48C66.8333 48 67 47.9972 67 47.5C67 47.1668 67.1667 47 67.5 47C67.8333 47 68 46.8332 68 46.5C68 46.1668 68.1667 46 68.5 46C68.9925 46 69 45.8333 69 35V24H60H51V25C51 25.8333 51.0832 26 51.5 26C51.9668 26 52 26.1667 52 28.5C52 30.8333 51.9668 31 51.5 31C51.0555 31 51 31.1667 51 32.5C51 33.8333 50.9445 34 50.5 34C50.0832 34 50 34.1668 50 35C50 35.8332 49.9168 36 49.5 36C49.1668 36 49 36.1668 49 36.5C49 36.8332 48.8332 37 48.5 37C48.0832 37 48 37.1668 48 38C48 38.8332 47.9168 39 47.5 39C47.1668 39 47 39.1668 47 39.5C47 39.8332 46.8332 40 46.5 40C46.1668 40 46 40.1668 46 40.5C46 40.9168 45.8332 41 45 41C44.1668 41 44 41.0832 44 41.5C44 41.9168 43.8332 42 43 42C42.1668 42 42 42.0832 42 42.5C42 42.9168 41.8332 43 41 43C40.1668 43 40 43.0832 40 43.5C40 43.9793 39.8333 44 36 44C32.1667 44 32 43.9793 32 43.5C32 43.0832 31.8333 43 31 43C30.1667 43 30 42.9168 30 42.5C30 42.0832 29.8333 42 29 42C28.1667 42 28 41.9168 28 41.5C28 41.0832 27.8333 41 27 41C26.1667 41 26 40.9168 26 40.5C26 40.1668 25.8333 40 25.5 40C25.1667 40 25 39.8332 25 39.5C25 39.1668 24.8333 39 24.5 39C24.0833 39 24 38.8332 24 38C24 37.1668 23.9167 37 23.5 37C23.1667 37 23 36.8332 23 36.5C23 36.1668 22.8333 36 22.5 36C22.0833 36 22 35.8332 22 35C22 34.1668 21.9167 34 21.5 34C21.0555 34 21 33.8333 21 32.5C21 31.1667 20.9445 31 20.5 31C20.0333 31 20 30.8333 20 28.5C20 26.1667 20.0333 26 20.5 26C20.9167 26 21 25.8333 21 25V24H12H3V35Z" fill="#364354"/>
</g>
<defs>
<clipPath id="clip0_2_8308">
<rect width="72" height="51" fill="white"/>
</clipPath>
</defs>
</svg>
