<svg width="76" height="77" viewBox="0 0 76 77" fill="none" xmlns="http://www.w3.org/2000/svg">
<g clip-path="url(#clip0_2_8264)">
<path fill-rule="evenodd" clip-rule="evenodd" d="M35.973 0.999982C35.973 1.33774 35.804 1.50674 35.4662 1.50674C35.1285 1.50674 34.9595 1.67574 34.9595 2.0135C34.9595 2.35125 34.7905 2.52025 34.4527 2.52025C34.115 2.52025 33.9459 2.68926 33.9459 3.02701C33.9459 3.36476 33.7769 3.53377 33.4392 3.53377C32.9887 3.53377 32.9324 3.70277 32.9324 5.05404C32.9324 6.4053 32.8762 6.57431 32.4257 6.57431C31.9296 6.57431 31.9189 6.74331 31.9189 14.6824C31.9189 22.6215 31.9083 22.7905 31.4122 22.7905C31.0744 22.7905 30.9054 22.9595 30.9054 23.2973C30.9054 23.7197 30.7364 23.804 29.8919 23.804C29.0474 23.804 28.8784 23.8884 28.8784 24.3108C28.8784 24.7613 28.7094 24.8175 27.3581 24.8175C26.0068 24.8175 25.8378 24.8738 25.8378 25.3243C25.8378 25.7467 25.6688 25.8311 24.8243 25.8311C23.9798 25.8311 23.8108 25.9154 23.8108 26.3378C23.8108 26.6756 23.6418 26.8446 23.3041 26.8446C22.8817 26.8446 22.7973 26.6756 22.7973 25.8311C22.7973 24.9866 22.7129 24.8175 22.2905 24.8175C21.9528 24.8175 21.7838 24.6485 21.7838 24.3108C21.7838 23.8463 21.6148 23.804 19.7568 23.804C17.8987 23.804 17.7297 23.8463 17.7297 24.3108C17.7297 24.6485 17.5607 24.8175 17.223 24.8175C16.7585 24.8175 16.7162 24.9866 16.7162 26.8446C16.7162 28.7026 16.6739 28.8716 16.2095 28.8716C15.8717 28.8716 15.7027 28.7026 15.7027 28.3648C15.7027 28.0271 15.5337 27.8581 15.1959 27.8581C14.8582 27.8581 14.6892 27.6891 14.6892 27.3513C14.6892 26.8869 14.5202 26.8446 12.6622 26.8446C10.8041 26.8446 10.6351 26.8869 10.6351 27.3513C10.6351 27.6891 10.4661 27.8581 10.1284 27.8581C9.66394 27.8581 9.62162 28.0271 9.62162 29.8851V31.9121H8.60811C7.7636 31.9121 7.59459 31.9965 7.59459 32.4189C7.59459 32.8413 7.42559 32.9257 6.58108 32.9257C5.73657 32.9257 5.56757 33.01 5.56757 33.4324C5.56757 33.8548 5.39856 33.9392 4.55405 33.9392C3.70954 33.9392 3.54054 34.0235 3.54054 34.4459C3.54054 34.7837 3.37154 34.9527 3.03378 34.9527C2.6114 34.9527 2.52703 35.1217 2.52703 35.9662C2.52703 36.8107 2.44265 36.9797 2.02027 36.9797C1.59789 36.9797 1.51351 37.1487 1.51351 37.9932C1.51351 38.8377 1.42914 39.0067 1.00676 39.0067C0.584375 39.0067 0.5 39.1757 0.5 40.0202V41.0338H4.55405C8.43911 41.0338 8.60811 41.0127 8.60811 40.527C8.60811 40.0484 8.77711 40.0202 11.6486 40.0202C14.5202 40.0202 14.6892 39.9921 14.6892 39.5135C14.6892 39.0308 14.8582 39.0067 18.2365 39.0067C21.6148 39.0067 21.7838 38.9827 21.7838 38.5C21.7838 38.0269 21.9528 37.9932 24.3176 37.9932C26.6824 37.9932 26.8514 37.9595 26.8514 37.4865C26.8514 37.0134 27.0204 36.9797 29.3851 36.9797H31.9189V42.0473C31.9189 46.9458 31.9359 47.1148 32.4257 47.1148C32.7634 47.1148 32.9324 47.2838 32.9324 47.6216C32.9324 47.9594 32.7634 48.1284 32.4257 48.1284C32.0033 48.1284 31.9189 48.2974 31.9189 49.1419C31.9189 49.9864 32.0033 50.1554 32.4257 50.1554C32.9114 50.1554 32.9324 50.3244 32.9324 54.2094C32.9324 58.0945 32.9535 58.2635 33.4392 58.2635C33.9122 58.2635 33.9459 58.4325 33.9459 60.7973C33.9459 63.1621 33.9122 63.3311 33.4392 63.3311C33.1014 63.3311 32.9324 63.5001 32.9324 63.8378C32.9324 64.1756 32.7634 64.3446 32.4257 64.3446C32.0879 64.3446 31.9189 64.5136 31.9189 64.8513C31.9189 65.2737 31.7499 65.3581 30.9054 65.3581C30.0609 65.3581 29.8919 65.4425 29.8919 65.8648C29.8919 66.2026 29.7229 66.3716 29.3851 66.3716C29.0474 66.3716 28.8784 66.5406 28.8784 66.8784C28.8784 67.2161 28.7094 67.3851 28.3716 67.3851C27.9492 67.3851 27.8649 67.5541 27.8649 68.3986C27.8649 69.2431 27.7805 69.4121 27.3581 69.4121C26.9076 69.4121 26.8514 69.5811 26.8514 70.9324C26.8514 72.2837 26.7951 72.4527 26.3446 72.4527C25.9222 72.4527 25.8378 72.6217 25.8378 73.4662V74.4797H27.3581C28.7094 74.4797 28.8784 74.4235 28.8784 73.9729C28.8784 73.5506 29.0474 73.4662 29.8919 73.4662C30.7364 73.4662 30.9054 73.3818 30.9054 72.9594C30.9054 72.495 31.0744 72.4527 32.9324 72.4527C34.7905 72.4527 34.9595 72.4104 34.9595 71.9459C34.9595 71.6082 35.1285 71.4392 35.4662 71.4392C35.8886 71.4392 35.973 71.2702 35.973 70.4257V69.4121H33.9459C32.0879 69.4121 31.9189 69.4545 31.9189 69.9189C31.9189 70.3413 31.7499 70.4257 30.9054 70.4257C30.0609 70.4257 29.8919 70.3413 29.8919 69.9189C29.8919 69.5811 30.0609 69.4121 30.3987 69.4121C30.7364 69.4121 30.9054 69.2431 30.9054 68.9054C30.9054 68.5676 31.0744 68.3986 31.4122 68.3986C31.7499 68.3986 31.9189 68.2296 31.9189 67.8919C31.9189 67.5541 32.0879 67.3851 32.4257 67.3851C32.7634 67.3851 32.9324 67.2161 32.9324 66.8784C32.9324 66.456 33.1014 66.3716 33.9459 66.3716C34.7905 66.3716 34.9595 66.2872 34.9595 65.8648C34.9595 65.4425 35.1285 65.3581 35.973 65.3581H36.9865V70.9324V76.5067H38H39.0135V70.9324V65.3581H40.027C40.8715 65.3581 41.0405 65.4425 41.0405 65.8648C41.0405 66.2872 41.2095 66.3716 42.0541 66.3716C42.8986 66.3716 43.0676 66.456 43.0676 66.8784C43.0676 67.2161 43.2366 67.3851 43.5743 67.3851C43.9121 67.3851 44.0811 67.5541 44.0811 67.8919C44.0811 68.2296 44.2501 68.3986 44.5878 68.3986C44.9256 68.3986 45.0946 68.5676 45.0946 68.9054C45.0946 69.2431 45.2636 69.4121 45.6014 69.4121C45.9391 69.4121 46.1081 69.5811 46.1081 69.9189C46.1081 70.3413 45.9391 70.4257 45.0946 70.4257C44.2501 70.4257 44.0811 70.3413 44.0811 69.9189C44.0811 69.4545 43.9121 69.4121 42.0541 69.4121H40.027V70.4257C40.027 71.2702 40.1114 71.4392 40.5338 71.4392C40.8715 71.4392 41.0405 71.6082 41.0405 71.9459C41.0405 72.4104 41.2095 72.4527 43.0676 72.4527C44.9256 72.4527 45.0946 72.495 45.0946 72.9594C45.0946 73.3818 45.2636 73.4662 46.1081 73.4662C46.9526 73.4662 47.1216 73.5506 47.1216 73.9729C47.1216 74.4235 47.2906 74.4797 48.6419 74.4797H50.1622V73.4662C50.1622 72.6217 50.0778 72.4527 49.6554 72.4527C49.2049 72.4527 49.1487 72.2837 49.1487 70.9324C49.1487 69.5811 49.0924 69.4121 48.6419 69.4121C48.2195 69.4121 48.1351 69.2431 48.1351 68.3986C48.1351 67.5541 48.0508 67.3851 47.6284 67.3851C47.2906 67.3851 47.1216 67.2161 47.1216 66.8784C47.1216 66.5406 46.9526 66.3716 46.6149 66.3716C46.2771 66.3716 46.1081 66.2026 46.1081 65.8648C46.1081 65.4425 45.9391 65.3581 45.0946 65.3581C44.2501 65.3581 44.0811 65.2737 44.0811 64.8513C44.0811 64.5136 43.9121 64.3446 43.5743 64.3446C43.2366 64.3446 43.0676 64.1756 43.0676 63.8378C43.0676 63.5001 42.8986 63.3311 42.5608 63.3311C42.0878 63.3311 42.0541 63.1621 42.0541 60.7973C42.0541 58.4325 42.0878 58.2635 42.5608 58.2635C43.0465 58.2635 43.0676 58.0945 43.0676 54.2094C43.0676 50.3244 43.0886 50.1554 43.5743 50.1554C43.9967 50.1554 44.0811 49.9864 44.0811 49.1419C44.0811 48.2974 43.9967 48.1284 43.5743 48.1284C43.2366 48.1284 43.0676 47.9594 43.0676 47.6216C43.0676 47.2838 43.2366 47.1148 43.5743 47.1148C44.0641 47.1148 44.0811 46.9458 44.0811 42.0473V36.9797H46.6149C48.9796 36.9797 49.1487 37.0134 49.1487 37.4865C49.1487 37.9595 49.3177 37.9932 51.6824 37.9932C54.0472 37.9932 54.2162 38.0269 54.2162 38.5C54.2162 38.9827 54.3852 39.0067 57.7635 39.0067C61.1418 39.0067 61.3108 39.0308 61.3108 39.5135C61.3108 39.9921 61.4798 40.0202 64.3514 40.0202C67.2353 40.0202 67.3919 40.0466 67.3919 40.5333C67.3919 41.0302 67.5211 41.0442 71.5093 40.9767L75.6267 40.9071L75.703 39.8629C75.7759 38.8656 75.7503 38.8243 75.1329 38.9421C74.5245 39.0584 74.4865 39.0042 74.4865 38.0229C74.4865 37.1487 74.4044 36.9797 73.9797 36.9797C73.5574 36.9797 73.473 36.8107 73.473 35.9662C73.473 35.1217 73.3886 34.9527 72.9662 34.9527C72.6285 34.9527 72.4595 34.7837 72.4595 34.4459C72.4595 34.0235 72.2905 33.9392 71.446 33.9392C70.6014 33.9392 70.4324 33.8548 70.4324 33.4324C70.4324 33.01 70.2634 32.9257 69.4189 32.9257C68.5744 32.9257 68.4054 32.8413 68.4054 32.4189C68.4054 31.9965 68.2364 31.9121 67.3919 31.9121H66.3784V29.8851C66.3784 28.0271 66.3361 27.8581 65.8716 27.8581C65.5339 27.8581 65.3649 27.6891 65.3649 27.3513C65.3649 26.8869 65.1959 26.8446 63.3378 26.8446C61.4798 26.8446 61.3108 26.8869 61.3108 27.3513C61.3108 27.6891 61.1418 27.8581 60.8041 27.8581C60.4663 27.8581 60.2973 28.0271 60.2973 28.3648C60.2973 28.7026 60.1283 28.8716 59.7905 28.8716C59.3261 28.8716 59.2838 28.7026 59.2838 26.8446C59.2838 24.9866 59.2415 24.8175 58.777 24.8175C58.4393 24.8175 58.2703 24.6485 58.2703 24.3108C58.2703 23.8463 58.1013 23.804 56.2432 23.804C54.3852 23.804 54.2162 23.8463 54.2162 24.3108C54.2162 24.6485 54.0472 24.8175 53.7095 24.8175C53.2871 24.8175 53.2027 24.9866 53.2027 25.8311C53.2027 26.6756 53.1183 26.8446 52.6959 26.8446C52.3582 26.8446 52.1892 26.6756 52.1892 26.3378C52.1892 25.9154 52.0202 25.8311 51.1757 25.8311C50.3312 25.8311 50.1622 25.7467 50.1622 25.3243C50.1622 24.8738 49.9932 24.8175 48.6419 24.8175C47.2906 24.8175 47.1216 24.7613 47.1216 24.3108C47.1216 23.8884 46.9526 23.804 46.1081 23.804C45.2636 23.804 45.0946 23.7197 45.0946 23.2973C45.0946 22.9595 44.9256 22.7905 44.5878 22.7905C44.0917 22.7905 44.0811 22.6215 44.0811 14.6824C44.0811 6.74331 44.0704 6.57431 43.5743 6.57431C43.1238 6.57431 43.0676 6.4053 43.0676 5.05404C43.0676 3.70277 43.0113 3.53377 42.5608 3.53377C42.2231 3.53377 42.0541 3.36476 42.0541 3.02701C42.0541 2.68926 41.8851 2.52025 41.5473 2.52025C41.2095 2.52025 41.0405 2.35125 41.0405 2.0135C41.0405 1.67574 40.8715 1.50674 40.5338 1.50674C40.196 1.50674 40.027 1.33774 40.027 0.999982C40.027 0.535539 39.858 0.493225 38 0.493225C36.142 0.493225 35.973 0.535539 35.973 0.999982ZM36.9865 3.53377C36.9865 4.37828 36.9021 4.54728 36.4797 4.54728C36.142 4.54728 35.973 4.71628 35.973 5.05404C35.973 5.39179 35.804 5.56079 35.4662 5.56079C35.0438 5.56079 34.9595 5.7298 34.9595 6.57431C34.9595 7.41882 35.0438 7.58782 35.4662 7.58782C35.804 7.58782 35.973 7.41882 35.973 7.08106C35.973 6.61662 36.142 6.57431 38 6.57431C39.858 6.57431 40.027 6.61662 40.027 7.08106C40.027 7.41882 40.196 7.58782 40.5338 7.58782C40.9562 7.58782 41.0405 7.41882 41.0405 6.57431C41.0405 5.7298 40.9562 5.56079 40.5338 5.56079C40.196 5.56079 40.027 5.39179 40.027 5.05404C40.027 4.71628 39.858 4.54728 39.5203 4.54728C39.0979 4.54728 39.0135 4.37828 39.0135 3.53377V2.52025H38H36.9865V3.53377ZM36.9865 9.10809C36.9865 9.5586 36.8175 9.61485 35.4662 9.61485H33.9459V27.8581C33.9459 45.9323 33.9508 46.1013 34.4527 46.1013C34.9384 46.1013 34.9595 46.2703 34.9595 50.1554C34.9595 54.0404 34.9805 54.2094 35.4662 54.2094C35.9489 54.2094 35.973 54.3784 35.973 57.7567C35.973 61.135 35.997 61.304 36.4797 61.304C36.8175 61.304 36.9865 61.473 36.9865 61.8108C36.9865 62.2332 37.1555 62.3175 38 62.3175C38.8445 62.3175 39.0135 62.2332 39.0135 61.8108C39.0135 61.473 39.1825 61.304 39.5203 61.304C40.003 61.304 40.027 61.135 40.027 57.7567C40.027 54.3784 40.0511 54.2094 40.5338 54.2094C41.0195 54.2094 41.0405 54.0404 41.0405 50.1554C41.0405 46.2703 41.0616 46.1013 41.5473 46.1013C42.0492 46.1013 42.0541 45.9323 42.0541 27.8581V9.61485H40.5338C39.1825 9.61485 39.0135 9.5586 39.0135 9.10809C39.0135 8.68571 38.8445 8.60133 38 8.60133C37.1555 8.60133 36.9865 8.68571 36.9865 9.10809ZM29.8919 26.3378C29.8919 26.7883 29.7229 26.8446 28.3716 26.8446C27.0204 26.8446 26.8514 26.9008 26.8514 27.3513C26.8514 27.7737 26.6824 27.8581 25.8378 27.8581C24.9933 27.8581 24.8243 27.9425 24.8243 28.3648C24.8243 28.7872 24.6553 28.8716 23.8108 28.8716C22.9663 28.8716 22.7973 28.956 22.7973 29.3784C22.7973 29.8289 22.6283 29.8851 21.277 29.8851C19.9258 29.8851 19.7568 29.9414 19.7568 30.3919C19.7568 30.8424 19.5878 30.8986 18.2365 30.8986C16.8852 30.8986 16.7162 30.9549 16.7162 31.4054C16.7162 31.8278 16.5472 31.9121 15.7027 31.9121C14.8582 31.9121 14.6892 31.9965 14.6892 32.4189C14.6892 32.8694 14.5202 32.9257 13.1689 32.9257C11.8177 32.9257 11.6486 32.9819 11.6486 33.4324C11.6486 33.8548 11.4796 33.9392 10.6351 33.9392C9.79063 33.9392 9.62162 34.0235 9.62162 34.4459C9.62162 34.8683 9.45262 34.9527 8.60811 34.9527C7.7636 34.9527 7.59459 35.0371 7.59459 35.4594C7.59459 35.8818 7.42559 35.9662 6.58108 35.9662C5.73657 35.9662 5.56757 36.0506 5.56757 36.473C5.56757 36.8107 5.39856 36.9797 5.06081 36.9797C4.72306 36.9797 4.55405 37.1487 4.55405 37.4865C4.55405 37.8242 4.38505 37.9932 4.0473 37.9932C3.70954 37.9932 3.54054 38.1622 3.54054 38.5C3.54054 38.8377 3.70954 39.0067 4.0473 39.0067C4.38505 39.0067 4.55405 38.8377 4.55405 38.5C4.55405 38.0213 4.72306 37.9932 7.59459 37.9932C10.4661 37.9932 10.6351 37.9651 10.6351 37.4865C10.6351 37.0038 10.8041 36.9797 14.1824 36.9797C17.5607 36.9797 17.7297 36.9556 17.7297 36.473C17.7297 35.9872 17.8987 35.9662 21.7838 35.9662C25.6688 35.9662 25.8378 35.9452 25.8378 35.4594C25.8378 34.9864 26.0068 34.9527 28.3716 34.9527C30.7364 34.9527 30.9054 34.919 30.9054 34.4459C30.9054 34.1082 31.0744 33.9392 31.4122 33.9392C31.8979 33.9392 31.9189 33.7702 31.9189 29.8851V25.8311H30.9054C30.0609 25.8311 29.8919 25.9154 29.8919 26.3378ZM44.0811 29.8851C44.0811 33.7702 44.1021 33.9392 44.5878 33.9392C44.9256 33.9392 45.0946 34.1082 45.0946 34.4459C45.0946 34.919 45.2636 34.9527 47.6284 34.9527C49.9932 34.9527 50.1622 34.9864 50.1622 35.4594C50.1622 35.9452 50.3312 35.9662 54.2162 35.9662C58.1013 35.9662 58.2703 35.9872 58.2703 36.473C58.2703 36.9556 58.4393 36.9797 61.8176 36.9797C65.1959 36.9797 65.3649 37.0038 65.3649 37.4865C65.3649 37.9651 65.5339 37.9932 68.4054 37.9932C71.2769 37.9932 71.446 38.0213 71.446 38.5C71.446 38.8377 71.615 39.0067 71.9527 39.0067C72.2905 39.0067 72.4595 38.8377 72.4595 38.5C72.4595 38.1622 72.2905 37.9932 71.9527 37.9932C71.615 37.9932 71.446 37.8242 71.446 37.4865C71.446 37.1487 71.2769 36.9797 70.9392 36.9797C70.6014 36.9797 70.4324 36.8107 70.4324 36.473C70.4324 36.0506 70.2634 35.9662 69.4189 35.9662C68.5744 35.9662 68.4054 35.8818 68.4054 35.4594C68.4054 35.0371 68.2364 34.9527 67.3919 34.9527C66.5474 34.9527 66.3784 34.8683 66.3784 34.4459C66.3784 34.0235 66.2094 33.9392 65.3649 33.9392C64.5204 33.9392 64.3514 33.8548 64.3514 33.4324C64.3514 32.9819 64.1824 32.9257 62.8311 32.9257C61.4798 32.9257 61.3108 32.8694 61.3108 32.4189C61.3108 31.9965 61.1418 31.9121 60.2973 31.9121C59.4528 31.9121 59.2838 31.8278 59.2838 31.4054C59.2838 30.9549 59.1148 30.8986 57.7635 30.8986C56.4123 30.8986 56.2432 30.8424 56.2432 30.3919C56.2432 29.9414 56.0742 29.8851 54.723 29.8851C53.3717 29.8851 53.2027 29.8289 53.2027 29.3784C53.2027 28.956 53.0337 28.8716 52.1892 28.8716C51.3447 28.8716 51.1757 28.7872 51.1757 28.3648C51.1757 27.9425 51.0067 27.8581 50.1622 27.8581C49.3177 27.8581 49.1487 27.7737 49.1487 27.3513C49.1487 26.9008 48.9796 26.8446 47.6284 26.8446C46.2771 26.8446 46.1081 26.7883 46.1081 26.3378C46.1081 25.9154 45.9391 25.8311 45.0946 25.8311H44.0811V29.8851ZM19.7568 27.3513C19.7568 27.6891 19.9258 27.8581 20.2635 27.8581C20.6013 27.8581 20.7703 27.6891 20.7703 27.3513C20.7703 27.0136 20.6013 26.8446 20.2635 26.8446C19.9258 26.8446 19.7568 27.0136 19.7568 27.3513ZM55.2297 27.3513C55.2297 27.6891 55.3987 27.8581 55.7365 27.8581C56.0742 27.8581 56.2432 27.6891 56.2432 27.3513C56.2432 27.0136 56.0742 26.8446 55.7365 26.8446C55.3987 26.8446 55.2297 27.0136 55.2297 27.3513ZM11.6486 30.3919C11.6486 30.7296 11.8177 30.8986 12.1554 30.8986C12.4932 30.8986 12.6622 30.7296 12.6622 30.3919C12.6622 30.0541 12.4932 29.8851 12.1554 29.8851C11.8177 29.8851 11.6486 30.0541 11.6486 30.3919ZM63.3378 30.3919C63.3378 30.7296 63.5068 30.8986 63.8446 30.8986C64.1824 30.8986 64.3514 30.7296 64.3514 30.3919C64.3514 30.0541 64.1824 29.8851 63.8446 29.8851C63.5068 29.8851 63.3378 30.0541 63.3378 30.3919ZM0.568919 40.0202C0.568919 40.6474 0.618328 40.904 0.678885 40.5904C0.739189 40.2767 0.739189 39.7638 0.678885 39.4501C0.618328 39.1365 0.568919 39.3931 0.568919 40.0202ZM11.6486 47.6216V54.2094H12.6622H13.6757V47.6216V41.0338H12.6622H11.6486V47.6216ZM18.7432 47.6216V54.2094H19.7568C20.6013 54.2094 20.7703 54.1251 20.7703 53.7027C20.7703 53.3649 20.9393 53.1959 21.277 53.1959C21.7696 53.1959 21.7838 53.0269 21.7838 47.1148V41.0338H20.2635H18.7432V47.6216ZM54.2162 47.1148C54.2162 53.0269 54.2304 53.1959 54.723 53.1959C55.0607 53.1959 55.2297 53.3649 55.2297 53.7027C55.2297 54.1251 55.3987 54.2094 56.2432 54.2094H57.2568V47.6216V41.0338H55.7365H54.2162V47.1148ZM62.3243 47.6216V54.2094H63.3378H64.3514V47.6216V41.0338H63.3378H62.3243V47.6216Z" fill="#344454"/>
<path fill-rule="evenodd" clip-rule="evenodd" d="M22.7973 21.777C22.7973 26.6756 22.8143 26.8446 23.3041 26.8446C23.6418 26.8446 23.8108 26.6756 23.8108 26.3379C23.8108 25.9155 23.9798 25.8311 24.8243 25.8311C25.6688 25.8311 25.8378 25.7467 25.8378 25.3243C25.8378 24.8738 26.0068 24.8176 27.3581 24.8176C28.7094 24.8176 28.8784 24.7613 28.8784 24.3108C28.8784 23.8884 29.0474 23.8041 29.8919 23.8041C30.7364 23.8041 30.9054 23.7197 30.9054 23.2973C30.9054 22.9596 31.0744 22.7906 31.4122 22.7906C31.8908 22.7906 31.9189 22.6216 31.9189 19.75V16.7095H27.3581H22.7973V21.777ZM33.9459 21.2703V25.8311H38H42.0541V21.2703V16.7095H38H33.9459V21.2703ZM44.0811 19.75C44.0811 22.6216 44.1092 22.7906 44.5878 22.7906C44.9256 22.7906 45.0946 22.9596 45.0946 23.2973C45.0946 23.7197 45.2636 23.8041 46.1081 23.8041C46.9526 23.8041 47.1216 23.8884 47.1216 24.3108C47.1216 24.7613 47.2906 24.8176 48.6419 24.8176C49.9932 24.8176 50.1622 24.8738 50.1622 25.3243C50.1622 25.7467 50.3312 25.8311 51.1757 25.8311C52.0202 25.8311 52.1892 25.9155 52.1892 26.3379C52.1892 26.6756 52.3582 26.8446 52.6959 26.8446C53.1857 26.8446 53.2027 26.6756 53.2027 21.777V16.7095H48.6419H44.0811V19.75ZM29.8919 26.3379C29.8919 26.7884 29.7229 26.8446 28.3716 26.8446C27.0204 26.8446 26.8514 26.9009 26.8514 27.3514C26.8514 27.7737 26.6823 27.8581 25.8378 27.8581C24.9933 27.8581 24.8243 27.9425 24.8243 28.3649C24.8243 28.7873 24.6553 28.8716 23.8108 28.8716H22.7973V32.4189V35.9662H24.3176C25.6688 35.9662 25.8378 35.91 25.8378 35.4595C25.8378 34.9864 26.0068 34.9527 28.3716 34.9527H30.9054V30.3919C30.9054 26.0001 30.8867 25.8311 30.3986 25.8311C30.0609 25.8311 29.8919 26.0001 29.8919 26.3379ZM45.0946 30.3919V34.9527H47.6284C49.9932 34.9527 50.1622 34.9864 50.1622 35.4595C50.1622 35.91 50.3312 35.9662 51.6824 35.9662H53.2027V32.4189V28.8716H52.1892C51.3447 28.8716 51.1757 28.7873 51.1757 28.3649C51.1757 27.9425 51.0067 27.8581 50.1622 27.8581C49.3176 27.8581 49.1486 27.7737 49.1486 27.3514C49.1486 26.9009 48.9796 26.8446 47.6284 26.8446C46.2771 26.8446 46.1081 26.7884 46.1081 26.3379C46.1081 26.0001 45.9391 25.8311 45.6013 25.8311C45.1133 25.8311 45.0946 26.0001 45.0946 30.3919ZM26.8514 37.4865C26.8514 37.9509 26.6823 37.9933 24.8243 37.9933H22.7973V43.0608V48.1284H27.8649C32.7634 48.1284 32.9324 48.1114 32.9324 47.6216C32.9324 47.2839 32.7634 47.1149 32.4257 47.1149C31.943 47.1149 31.9189 46.9459 31.9189 43.5676C31.9189 40.1893 31.8948 40.0203 31.4122 40.0203C30.9617 40.0203 30.9054 39.8513 30.9054 38.5V36.9797H28.8784C27.0204 36.9797 26.8514 37.0221 26.8514 37.4865ZM45.0946 38.5C45.0946 39.8513 45.0383 40.0203 44.5878 40.0203C44.1052 40.0203 44.0811 40.1893 44.0811 43.5676C44.0811 46.9459 44.057 47.1149 43.5743 47.1149C43.2366 47.1149 43.0676 47.2839 43.0676 47.6216C43.0676 48.1114 43.2366 48.1284 48.1351 48.1284H53.2027V43.0608V37.9933H51.1757C49.3176 37.9933 49.1486 37.9509 49.1486 37.4865C49.1486 37.0221 48.9796 36.9797 47.1216 36.9797H45.0946V38.5ZM33.9459 43.0608C33.9459 45.9324 33.9741 46.1014 34.4527 46.1014C34.8751 46.1014 34.9595 46.2704 34.9595 47.1149V48.1284H38H41.0405V47.1149C41.0405 46.2704 41.1249 46.1014 41.5473 46.1014C42.0259 46.1014 42.0541 45.9324 42.0541 43.0608V40.0203H38H33.9459V43.0608Z" fill="#FECE01" fill-opacity="0.6"/>
</g>
<defs>
<clipPath id="clip0_2_8264">
<rect width="75" height="76.0135" fill="white" transform="translate(0.5 0.493225)"/>
</clipPath>
</defs>
</svg>
