<svg width="60" height="76" viewBox="0 0 60 76" fill="none" xmlns="http://www.w3.org/2000/svg">
<g clip-path="url(#clip0_2_8253)">
<path fill-rule="evenodd" clip-rule="evenodd" d="M11 48.5V64H17H23V59.5V55H21H19V47.5C19 40.1668 18.989 40 18.5 40C18.1668 40 18 39.8333 18 39.5C18 39.1668 17.8333 39 17.5 39C17.1668 39 17 38.8333 17 38.5C17 38.1668 16.8333 38 16.5 38C16.0833 38 16 37.8333 16 37C16 36.1668 15.9168 36 15.5 36C15.1668 36 15 35.8333 15 35.5C15 35.1668 14.8333 35 14.5 35C14.1668 35 14 34.8333 14 34.5C14 34.1668 13.8333 34 13.5 34C13.1668 34 13 33.8333 13 33.5C13 33.0832 12.8333 33 12 33H11V48.5ZM16 33.5C16 33.8333 16.1668 34 16.5 34C16.8333 34 17 34.1668 17 34.5C17 34.8333 17.1668 35 17.5 35C17.8333 35 18 35.1668 18 35.5C18 35.8333 18.1668 36 18.5 36C18.9168 36 19 36.1668 19 37C19 37.8333 19.0833 38 19.5 38C19.8333 38 20 38.1668 20 38.5C20 38.8333 20.1668 39 20.5 39C20.8333 39 21 39.1668 21 39.5C21 39.8333 21.1668 40 21.5 40C21.8333 40 22 40.1668 22 40.5C22 40.9793 22.1668 41 26 41C29.8333 41 30 40.9793 30 40.5C30 40.1668 30.1668 40 30.5 40C30.8333 40 31 39.8333 31 39.5C31 39.1668 31.1668 39 31.5 39C31.8333 39 32 38.8333 32 38.5C32 38.1668 32.1668 38 32.5 38C32.8333 38 33 37.8333 33 37.5C33 37.1668 33.1668 37 33.5 37C33.8333 37 34 36.8333 34 36.5C34 36.1668 34.1668 36 34.5 36C34.8333 36 35 35.8333 35 35.5C35 35.1668 35.1668 35 35.5 35C35.8333 35 36 34.8333 36 34.5C36 34.1668 36.1668 34 36.5 34C36.8333 34 37 33.8333 37 33.5C37 33.0418 36.8333 33 35 33C33.1668 33 33 33.0418 33 33.5C33 33.8333 32.8333 34 32.5 34C32.1668 34 32 34.1668 32 34.5C32 34.8333 31.8333 35 31.5 35C31.1668 35 31 35.1668 31 35.5C31 35.8333 30.8333 36 30.5 36C30.0555 36 30 35.8333 30 34.5V33H29C28.1668 33 28 33.0832 28 33.5C28 33.8333 27.8333 34 27.5 34C27.1668 34 27 34.1668 27 34.5C27 34.9445 26.8333 35 25.5 35C24.1668 35 24 34.9445 24 34.5C24 34.1668 24.1668 34 24.5 34C24.8333 34 25 33.8333 25 33.5C25 33.0185 24.8333 33 20.5 33C16.1668 33 16 33.0185 16 33.5ZM40 33.5C40 33.8333 39.8333 34 39.5 34C39.1668 34 39 34.1668 39 34.5C39 34.8333 38.8333 35 38.5 35C38.1668 35 38 35.1668 38 35.5C38 35.8333 37.8333 36 37.5 36C37.1668 36 37 36.1668 37 36.5C37 36.8333 36.8333 37 36.5 37C36.1668 37 36 37.1668 36 37.5C36 37.8333 35.8333 38 35.5 38C35.1668 38 35 38.1668 35 38.5C35 38.8333 34.8333 39 34.5 39C34.1668 39 34 39.1668 34 39.5C34 39.8333 33.8333 40 33.5 40C33.011 40 33 40.1668 33 47.5V55H29H25V59.5V64H26H27V60.5C27 57.1668 27.0238 57 27.5 57C27.8333 57 28 56.8333 28 56.5C28 56.1668 28.1668 56 28.5 56C28.9763 56 29 56.1668 29 59.5C29 62.8333 29.0238 63 29.5 63C29.8333 63 30 63.1668 30 63.5C30 63.9848 30.1668 64 35.5 64C40.8333 64 41 63.9848 41 63.5C41 63.1668 41.1668 63 41.5 63C41.9945 63 42 62.8333 42 48V33H41C40.1668 33 40 33.0832 40 33.5Z" fill="#FECE01" fill-opacity="0.6"/>
<path fill-rule="evenodd" clip-rule="evenodd" d="M0 0.5C0 0.83325 0.16675 1 0.5 1C0.83325 1 1 1.16675 1 1.5C1 1.83325 1.16675 2 1.5 2C1.83325 2 2 2.16675 2 2.5C2 2.83325 2.16675 3 2.5 3C2.83325 3 3 3.16675 3 3.5C3 3.83325 3.16675 4 3.5 4C3.83325 4 4 4.16675 4 4.5C4 4.83325 4.16675 5 4.5 5C4.83325 5 5 5.16675 5 5.5C5 5.83325 5.16675 6 5.5 6C5.83325 6 6 6.16675 6 6.5C6 6.83325 6.16675 7 6.5 7C6.83325 7 7 7.16675 7 7.5C7 7.83325 7.16675 8 7.5 8C7.83325 8 8 8.16675 8 8.5C8 8.83325 8.16675 9 8.5 9C8.83325 9 9 9.16675 9 9.5C9 9.83325 9.16675 10 9.5 10C9.83325 10 10 10.1667 10 10.5C10 10.8333 10.1667 11 10.5 11C10.8332 11 11 11.1667 11 11.5C11 11.8333 11.1667 12 11.5 12C11.8332 12 12 12.1667 12 12.5C12 12.8333 12.1667 13 12.5 13C12.8332 13 13 13.1667 13 13.5C13 13.8333 13.1667 14 13.5 14C13.8332 14 14 14.1667 14 14.5C14 14.8333 14.1667 15 14.5 15C14.8332 15 15 15.1667 15 15.5C15 15.8333 15.1667 16 15.5 16C15.8332 16 16 16.1667 16 16.5C16 16.8333 16.1667 17 16.5 17C16.8332 17 17 17.1667 17 17.5C17 17.8333 17.1667 18 17.5 18C17.8332 18 18 18.1667 18 18.5C18 18.9907 17.8332 19 9 19H0V20C0 20.8333 0.08325 21 0.5 21C0.83325 21 1 21.1667 1 21.5C1 21.8333 1.16675 22 1.5 22C1.83325 22 2 22.1667 2 22.5C2 22.8333 2.16675 23 2.5 23C2.83325 23 3 23.1667 3 23.5C3 23.8333 3.16675 24 3.5 24C3.83325 24 4 24.1667 4 24.5C4 24.8333 4.16675 25 4.5 25C4.83325 25 5 25.1667 5 25.5C5 25.8333 5.16675 26 5.5 26C5.83325 26 6 26.1667 6 26.5C6 26.8333 6.16675 27 6.5 27C6.83325 27 7 27.1667 7 27.5C7 27.8333 7.16675 28 7.5 28C7.83325 28 8 28.1667 8 28.5C8 28.8333 8.16675 29 8.5 29C8.83325 29 9 29.1667 9 29.5C9 29.8333 9.16675 30 9.5 30C9.83325 30 10 30.1667 10 30.5C10 30.8333 10.1667 31 10.5 31C10.8332 31 11 31.1667 11 31.5C11 31.8333 11.1667 32 11.5 32C11.8332 32 12 32.1668 12 32.5C12 32.8332 12.1667 33 12.5 33C12.8332 33 13 33.1668 13 33.5C13 33.8332 13.1667 34 13.5 34C13.8332 34 14 34.1668 14 34.5C14 34.8332 14.1667 35 14.5 35C14.8332 35 15 35.1668 15 35.5C15 35.8332 15.1667 36 15.5 36C15.9167 36 16 36.1668 16 37C16 37.8332 16.0832 38 16.5 38C16.8332 38 17 38.1668 17 38.5C17 38.8332 17.1667 39 17.5 39C17.8332 39 18 39.1668 18 39.5C18 39.8332 18.1667 40 18.5 40C18.8332 40 19 40.1668 19 40.5C19 40.8332 19.1667 41 19.5 41C19.8332 41 20 41.1668 20 41.5C20 41.8332 20.1667 42 20.5 42C20.8332 42 21 42.1668 21 42.5C21 42.8332 21.1667 43 21.5 43C21.8332 43 22 43.1668 22 43.5C22 43.8332 22.1667 44 22.5 44C22.9932 44 23 44.1667 23 56.5V69H21.5C20.1667 69 20 69.0555 20 69.5C20 69.9668 19.8332 70 17.5 70C15.1667 70 15 70.0332 15 70.5C15 70.9445 14.8332 71 13.5 71C12.1667 71 12 71.0555 12 71.5C12 71.9167 11.8332 72 11 72C10.1667 72 10 72.0833 10 72.5C10 72.8333 9.83325 73 9.5 73C9.16675 73 9 73.1667 9 73.5C9 73.8333 8.83325 74 8.5 74C8.08325 74 8 74.1667 8 75V76H24H40V75V74H27C14.1667 74 14 73.9935 14 73.5C14 73.0417 14.1667 73 16 73C17.8332 73 18 72.9583 18 72.5C18 72.0238 18.1667 72 21.5 72H25V59.5C25 47.1667 25.0067 47 25.5 47C25.8332 47 26 47.1668 26 47.5C26 47.8332 26.1667 48 26.5 48C26.8332 48 27 47.8332 27 47.5C27 47.1668 27.1667 47 27.5 47C27.8332 47 28 46.8332 28 46.5C28 46.1668 28.1667 46 28.5 46C28.8332 46 29 45.8332 29 45.5C29 45.1668 29.1667 45 29.5 45C29.8332 45 30 44.8332 30 44.5C30 44.1668 30.1667 44 30.5 44C30.9167 44 31 43.8332 31 43C31 42.1668 31.0832 42 31.5 42C31.8332 42 32 41.8332 32 41.5C32 41.1668 32.1667 41 32.5 41C32.8332 41 33 40.8332 33 40.5C33 40.1668 33.1667 40 33.5 40C33.8332 40 34 39.8332 34 39.5C34 39.1668 34.1667 39 34.5 39C34.8332 39 35 38.8332 35 38.5C35 38.1668 35.1667 38 35.5 38C35.8332 38 36 37.8332 36 37.5C36 37.1668 36.1667 37 36.5 37C36.8332 37 37 36.8332 37 36.5C37 36.1668 37.1667 36 37.5 36C37.8332 36 38 35.8332 38 35.5C38 35.1668 38.1667 35 38.5 35C38.8332 35 39 34.8332 39 34.5C39 34.1668 39.1667 34 39.5 34C39.8332 34 40 33.8332 40 33.5C40 33.1668 40.1667 33 40.5 33C40.8332 33 41 32.8332 41 32.5C41 32.1668 41.1667 32 41.5 32C41.8332 32 42 31.8333 42 31.5C42 31.1667 42.1667 31 42.5 31C42.8332 31 43 30.8333 43 30.5C43 30.1667 43.1667 30 43.5 30C43.8332 30 44 29.8333 44 29.5C44 29.1667 44.1667 29 44.5 29C44.9167 29 45 28.8333 45 28C45 27.1667 45.0832 27 45.5 27C45.8332 27 46 26.8333 46 26.5C46 26.1667 46.1667 26 46.5 26C46.8332 26 47 25.8333 47 25.5C47 25.1667 47.1667 25 47.5 25C47.8332 25 48 24.8333 48 24.5C48 24.1667 48.1667 24 48.5 24C48.8332 24 49 23.8333 49 23.5C49 23.1667 49.1667 23 49.5 23C49.8332 23 50 22.8333 50 22.5C50 22.1667 50.1667 22 50.5 22C50.8332 22 51 21.8333 51 21.5C51 21.1667 51.1667 21 51.5 21C51.9167 21 52 20.8333 52 20V19H48.5H45V17.5C45 16.1667 45.0555 16 45.5 16C45.8332 16 46 15.8333 46 15.5C46 15.1667 46.1667 15 46.5 15C46.8332 15 47 14.8333 47 14.5C47 14.0555 47.1667 14 48.5 14C49.8332 14 50 13.9445 50 13.5C50 13.0833 50.1667 13 51 13C51.8332 13 52 13.0833 52 13.5C52 13.9167 52.1667 14 53 14C53.8332 14 54 14.0833 54 14.5C54 14.9167 54.1667 15 55 15H56V16C56 16.8333 56.0832 17 56.5 17C56.9722 17 57 17.1667 57 20C57 22.8333 56.9722 23 56.5 23C56.1667 23 56 23.1667 56 23.5C56 23.8333 55.8332 24 55.5 24C55.1667 24 55 24.1667 55 24.5C55 24.8333 54.8332 25 54.5 25C54.1667 25 54 25.1667 54 25.5C54 25.9583 53.8332 26 52 26H50V27.5V29H51.5C52.8332 29 53 28.9445 53 28.5C53 28.0833 53.1667 28 54 28C54.8332 28 55 27.9167 55 27.5C55 27.0833 55.1667 27 56 27C56.8332 27 57 26.9167 57 26.5C57 26.1667 57.1667 26 57.5 26C57.9167 26 58 25.8333 58 25C58 24.1667 58.0832 24 58.5 24C58.9167 24 59 23.8333 59 23C59 22.183 59.0872 22 59.4765 22C59.8582 22 59.987 21.7533 60.1235 20.76C60.353 19.0918 60.0985 18 59.4802 18C59.06 18 59 17.8127 59 16.5C59 15.1667 58.9445 15 58.5 15C58.1667 15 58 14.8333 58 14.5C58 14.1667 57.8332 14 57.5 14C57.1667 14 57 13.8333 57 13.5C57 13.1667 56.8332 13 56.5 13C56.1667 13 56 12.8333 56 12.5C56 12.0833 55.8332 12 55 12C54.1667 12 54 11.9167 54 11.5C54 11.0278 53.8332 11 51 11C48.1667 11 48 11.0278 48 11.5C48 11.9167 47.8332 12 47 12C46.1667 12 46 12.0833 46 12.5C46 12.8333 45.8332 13 45.5 13C45.1667 13 45 13.1667 45 13.5C45 13.8333 44.8332 14 44.5 14C44.1667 14 44 14.1667 44 14.5C44 14.8333 43.8332 15 43.5 15C43.0832 15 43 15.1667 43 16C43 16.8333 42.9167 17 42.5 17C42.0832 17 42 17.1667 42 18V19H33.5H25V20V21H33.5H42V22C42 22.8333 42.0832 23 42.5 23C42.9167 23 43 23.1667 43 24C43 24.8333 43.0832 25 43.5 25C43.8332 25 44 25.1667 44 25.5C44 25.8333 43.8332 26 43.5 26C43.1667 26 43 26.1667 43 26.5C43 26.8333 42.8332 27 42.5 27C42.1667 27 42 27.1667 42 27.5C42 27.8333 41.8332 28 41.5 28C41.1667 28 41 28.1667 41 28.5C41 28.8333 40.8332 29 40.5 29C40.1667 29 40 29.1667 40 29.5C40 29.8333 39.8332 30 39.5 30C39.1667 30 39 30.1667 39 30.5C39 30.8333 38.8332 31 38.5 31C38.1667 31 38 31.1667 38 31.5C38 31.8333 37.8332 32 37.5 32C37.0832 32 37 32.1668 37 33C37 33.8332 36.9167 34 36.5 34C36.1667 34 36 34.1668 36 34.5C36 34.8332 35.8332 35 35.5 35C35.1667 35 35 35.1668 35 35.5C35 35.8332 34.8332 36 34.5 36C34.1667 36 34 36.1668 34 36.5C34 36.8332 33.8332 37 33.5 37C33.1667 37 33 37.1668 33 37.5C33 37.8332 32.8332 38 32.5 38C32.1667 38 32 38.1668 32 38.5C32 38.8332 31.8332 39 31.5 39C31.1667 39 31 39.1668 31 39.5C31 39.8332 30.8332 40 30.5 40C30.1667 40 30 40.1668 30 40.5C30 40.8332 29.8332 41 29.5 41C29.1667 41 29 41.1668 29 41.5C29 41.8332 28.8332 42 28.5 42C28.1667 42 28 42.1668 28 42.5C28 42.8332 27.8332 43 27.5 43C27.1667 43 27 43.1668 27 43.5C27 43.9168 26.8332 44 26 44C25.1667 44 25 43.9168 25 43.5C25 43.1668 24.8332 43 24.5 43C24.1667 43 24 42.8332 24 42.5C24 42.1668 23.8332 42 23.5 42C23.1667 42 23 41.8332 23 41.5C23 41.1668 22.8332 41 22.5 41C22.1667 41 22 40.8332 22 40.5C22 40.1668 21.8332 40 21.5 40C21.1667 40 21 39.8332 21 39.5C21 39.1668 20.8332 39 20.5 39C20.1667 39 20 38.8332 20 38.5C20 38.1668 19.8332 38 19.5 38C19.0832 38 19 37.8332 19 37C19 36.1668 18.9167 36 18.5 36C18.1667 36 18 35.8332 18 35.5C18 35.1668 17.8332 35 17.5 35C17.1667 35 17 34.8332 17 34.5C17 34.1668 16.8332 34 16.5 34C16.1667 34 16 33.8332 16 33.5C16 33.1668 15.8332 33 15.5 33C15.1667 33 15 32.8332 15 32.5C15 32.1668 14.8332 32 14.5 32C14.1667 32 14 31.8333 14 31.5C14 31.1667 13.8332 31 13.5 31C13.1667 31 13 30.8333 13 30.5C13 30.1667 12.8332 30 12.5 30C12.1667 30 12 29.8333 12 29.5C12 29.1667 11.8332 29 11.5 29C11.1667 29 11 28.8333 11 28.5C11 28.1667 10.8332 28 10.5 28C10.1667 28 10 27.8333 10 27.5C10 27.1667 9.83325 27 9.5 27C9.08325 27 9 26.8333 9 26C9 25.1667 8.91675 25 8.5 25C8.16675 25 8 24.8333 8 24.5C8 24.1667 7.83325 24 7.5 24C7.16675 24 7 23.8333 7 23.5C7 23.1667 6.83325 23 6.5 23C6.16675 23 6 22.8333 6 22.5C6 22.1667 5.83325 22 5.5 22C5.16675 22 5 21.8333 5 21.5C5 21.0105 5.16675 21 13 21C20.8332 21 21 21.0105 21 21.5C21 21.8333 21.1667 22 21.5 22C21.8332 22 22 22.1667 22 22.5C22 22.8333 22.1667 23 22.5 23C22.8332 23 23 23.1667 23 23.5C23 23.8333 23.1667 24 23.5 24C23.8332 24 24 24.1667 24 24.5C24 24.8333 24.1667 25 24.5 25C24.8332 25 25 25.1667 25 25.5C25 25.8333 25.1667 26 25.5 26C25.8332 26 26 26.1667 26 26.5C26 26.9167 26.1667 27 27 27H28V26C28 25.1667 27.9167 25 27.5 25C27.1667 25 27 24.8333 27 24.5C27 24.1667 26.8332 24 26.5 24C26.1667 24 26 23.8333 26 23.5C26 23.1667 25.8332 23 25.5 23C25.1667 23 25 22.8333 25 22.5C25 22.1667 24.8332 22 24.5 22C24.1667 22 24 21.8333 24 21.5C24 21.1667 23.8332 21 23.5 21C23.1667 21 23 20.8333 23 20.5C23 20.1667 22.8332 20 22.5 20C22.1667 20 22 19.8333 22 19.5C22 19.1667 21.8332 19 21.5 19C21.1667 19 21 18.8333 21 18.5C21 18.1667 20.8332 18 20.5 18C20.1667 18 20 17.8333 20 17.5C20 17.1667 19.8332 17 19.5 17C19.1667 17 19 16.8333 19 16.5C19 16.1667 18.8332 16 18.5 16C18.1667 16 18 15.8333 18 15.5C18 15.1667 17.8332 15 17.5 15C17.1667 15 17 14.8333 17 14.5C17 14.1667 16.8332 14 16.5 14C16.1667 14 16 13.8333 16 13.5C16 13.1667 15.8332 13 15.5 13C15.1667 13 15 12.8333 15 12.5C15 12.1667 14.8332 12 14.5 12C14.1667 12 14 11.8333 14 11.5C14 11.1667 13.8332 11 13.5 11C13.1667 11 13 10.8333 13 10.5C13 10.1667 12.8332 10 12.5 10C12.1667 10 12 9.83325 12 9.5C12 9.16675 11.8332 9 11.5 9C11.1667 9 11 8.83325 11 8.5C11 8.16675 10.8332 8 10.5 8C10.1667 8 10 7.83325 10 7.5C10 7.16675 9.83325 7 9.5 7C9.16675 7 9 6.83325 9 6.5C9 6.16675 8.83325 6 8.5 6C8.16675 6 8 5.83325 8 5.5C8 5.16675 7.83325 5 7.5 5C7.16675 5 7 4.83325 7 4.5C7 4.16675 6.83325 4 6.5 4C6.16675 4 6 3.83325 6 3.5C6 3.16675 5.83325 3 5.5 3C5.16675 3 5 2.83325 5 2.5C5 2.16675 4.83325 2 4.5 2C4.16675 2 4 1.83325 4 1.5C4 1.16675 3.83325 1 3.5 1C3.16675 1 3 0.83325 3 0.5C3 0.0555 2.83325 0 1.5 0C0.16675 0 0 0.0555 0 0.5ZM0.068 20C0.068 20.6187 0.11675 20.8717 0.1765 20.5625C0.236 20.2533 0.236 19.7467 0.1765 19.4375C0.11675 19.1283 0.068 19.3813 0.068 20ZM44 19.5C44 19.8333 44.1667 20 44.5 20C44.9445 20 45 20.1667 45 21.5V23H46C46.8332 23 47 22.9167 47 22.5C47 22.1667 47.1667 22 47.5 22C47.8332 22 48 21.8333 48 21.5C48 21.0833 47.8332 21 47 21C46.1667 21 46 20.9167 46 20.5C46 20.1667 45.8332 20 45.5 20C45.1667 20 45 19.8333 45 19.5C45 19.1667 44.8332 19 44.5 19C44.1667 19 44 19.1667 44 19.5ZM34 23.5C34 23.8333 33.8332 24 33.5 24C33.1667 24 33 24.1667 33 24.5C33 24.8333 32.8332 25 32.5 25C32.1667 25 32 25.1667 32 25.5C32 25.8333 31.8332 26 31.5 26C31.1667 26 31 26.1667 31 26.5C31 26.8333 30.8332 27 30.5 27C30.1667 27 30 27.1667 30 27.5C30 27.8333 29.8332 28 29.5 28C29.1667 28 29 28.1667 29 28.5C29 28.8333 28.8332 29 28.5 29C28.1667 29 28 29.1667 28 29.5C28 29.8333 27.8332 30 27.5 30C27.1667 30 27 30.1667 27 30.5C27 30.8333 26.8332 31 26.5 31C26.1667 31 26 31.1667 26 31.5C26 31.8333 25.8332 32 25.5 32C25.0832 32 25 32.1668 25 33C25 33.8332 24.9167 34 24.5 34C24.1667 34 24 34.1668 24 34.5C24 34.9445 24.1667 35 25.5 35C26.8332 35 27 34.9445 27 34.5C27 34.1668 27.1667 34 27.5 34C27.8332 34 28 33.8332 28 33.5C28 33.1668 28.1667 33 28.5 33C28.8332 33 29 32.8332 29 32.5C29 32.1668 29.1667 32 29.5 32C29.8332 32 30 31.8333 30 31.5C30 31.1667 30.1667 31 30.5 31C30.8332 31 31 30.8333 31 30.5C31 30.1667 31.1667 30 31.5 30C31.8332 30 32 29.8333 32 29.5C32 29.1667 32.1667 29 32.5 29C32.8332 29 33 28.8333 33 28.5C33 28.1667 33.1667 28 33.5 28C33.8332 28 34 27.8333 34 27.5C34 27.1667 34.1667 27 34.5 27C34.8332 27 35 26.8333 35 26.5C35 26.1667 35.1667 26 35.5 26C35.9445 26 36 25.8333 36 24.5V23H35C34.1667 23 34 23.0833 34 23.5ZM35 28.5C35 28.8333 34.8332 29 34.5 29C34.1667 29 34 29.1667 34 29.5C34 29.8333 33.8332 30 33.5 30C33.1667 30 33 30.1667 33 30.5C33 30.8333 32.8332 31 32.5 31C32.1667 31 32 31.1667 32 31.5C32 31.8333 31.8332 32 31.5 32C31.1667 32 31 32.1668 31 32.5C31 32.8332 30.8332 33 30.5 33C30.0555 33 30 33.1667 30 34.5C30 35.8333 30.0555 36 30.5 36C30.8332 36 31 35.8332 31 35.5C31 35.1668 31.1667 35 31.5 35C31.8332 35 32 34.8332 32 34.5C32 34.1668 32.1667 34 32.5 34C32.8332 34 33 33.8332 33 33.5C33 33.1668 33.1667 33 33.5 33C33.8332 33 34 32.8332 34 32.5C34 32.1668 34.1667 32 34.5 32C34.8332 32 35 31.8333 35 31.5C35 31.1667 35.1667 31 35.5 31C35.8332 31 36 30.8333 36 30.5C36 30.1667 36.1667 30 36.5 30C36.8332 30 37 29.8333 37 29.5C37 29.1667 36.8332 29 36.5 29C36.1667 29 36 28.8333 36 28.5C36 28.1667 35.8332 28 35.5 28C35.1667 28 35 28.1667 35 28.5ZM28 56.5C28 56.8332 27.8332 57 27.5 57C27.012 57 27 57.1667 27 64V71H28C28.8332 71 29 70.9167 29 70.5C29 70.1667 29.1667 70 29.5 70C29.9762 70 30 69.8333 30 66.5C30 63.1667 29.9762 63 29.5 63C29.0237 63 29 62.8333 29 59.5C29 56.1667 28.9762 56 28.5 56C28.1667 56 28 56.1668 28 56.5Z" fill="#374354"/>
</g>
<defs>
<clipPath id="clip0_2_8253">
<rect width="60" height="76" fill="white"/>
</clipPath>
</defs>
</svg>
