<svg width="66" height="52" viewBox="0 0 66 52" fill="none" xmlns="http://www.w3.org/2000/svg">
<g clip-path="url(#clip0_2_8297)">
<path fill-rule="evenodd" clip-rule="evenodd" d="M6 0.5C6 0.91675 5.83325 1 5 1C4.16675 1 4 1.08325 4 1.5C4 1.83325 3.83325 2 3.5 2C3.16675 2 3 2.16675 3 2.5C3 2.83325 2.83325 3 2.5 3C2.08325 3 2 3.16675 2 4C2 4.83325 1.91675 5 1.5 5C1.004 5 1 5.16675 1 26C1 46.8333 1.004 47 1.5 47C1.91675 47 2 47.1668 2 48C2 48.8332 2.08325 49 2.5 49C2.83325 49 3 49.1668 3 49.5C3 49.8332 3.16675 50 3.5 50C3.83325 50 4 50.1668 4 50.5C4 50.9168 4.16675 51 5 51C5.83325 51 6 51.0832 6 51.5C6 51.9967 6.16675 52 32 52C57.8333 52 58 51.9967 58 51.5C58 51.0832 58.1668 51 59 51C59.8332 51 60 50.9168 60 50.5C60 50.1668 60.1668 50 60.5 50C60.8332 50 61 49.8332 61 49.5C61 49.1668 61.1668 49 61.5 49C61.8332 49 62 48.8332 62 48.5C62 48.1668 62.1668 48 62.5 48C62.989 48 63 47.8333 63 40.5C63 33.1667 63.011 33 63.5 33C63.8332 33 64 32.8332 64 32.5C64 32.1668 64.1668 32 64.5 32C64.8332 32 65 31.8333 65 31.5C65 31.225 65.1125 31 65.25 31C65.4082 31 65.5 29.1667 65.5 26C65.5 22.8333 65.4082 21 65.25 21C65.1125 21 65 20.775 65 20.5C65 20.1667 64.8332 20 64.5 20C64.1668 20 64 19.8333 64 19.5C64 19.1667 63.8332 19 63.5 19C63.011 19 63 18.8333 63 11.5C63 4.16675 62.989 4 62.5 4C62.1668 4 62 3.83325 62 3.5C62 3.16675 61.8332 3 61.5 3C61.1668 3 61 2.83325 61 2.5C61 2.16675 60.8332 2 60.5 2C60.1668 2 60 1.83325 60 1.5C60 1.08325 59.8332 1 59 1C58.1668 1 58 0.91675 58 0.5C58 0.00325 57.8333 0 32 0C6.16675 0 6 0.00325 6 0.5ZM6 3.5C6 3.83325 5.83325 4 5.5 4C5.16675 4 5 4.16675 5 4.5C5 4.83325 4.83325 5 4.5 5C4.004 5 4 5.16675 4 26C4 46.8333 4.004 47 4.5 47C4.83325 47 5 47.1668 5 47.5C5 47.8332 5.16675 48 5.5 48C5.83325 48 6 48.1668 6 48.5C6 48.9965 6.16675 49 29 49C51.8333 49 52 48.9965 52 48.5C52 48.1668 52.1668 48 52.5 48C52.8332 48 53 47.8332 53 47.5C53 47.1668 53.1668 47 53.5 47C53.988 47 54 46.8333 54 40V33H48H42V32C42 31.1667 41.9168 31 41.5 31C41.0168 31 41 30.8333 41 26C41 21.1667 41.0168 21 41.5 21C41.9168 21 42 20.8333 42 20V19H48H54V12C54 5.16675 53.988 5 53.5 5C53.1668 5 53 4.83325 53 4.5C53 4.16675 52.8332 4 52.5 4C52.1668 4 52 3.83325 52 3.5C52 3.0035 51.8333 3 29 3C6.16675 3 6 3.0035 6 3.5ZM56 4C56 4.83325 56.0832 5 56.5 5C56.988 5 57 5.16675 57 12V19H58.5H60V12C60 5.16675 59.988 5 59.5 5C59.1668 5 59 4.83325 59 4.5C59 4.16675 58.8332 4 58.5 4C58.1668 4 58 3.83325 58 3.5C58 3.08325 57.8332 3 57 3H56V4ZM6 7.5V9H7H8V7.5V6H7H6V7.5ZM6 14V15H7H8V14V13H7H6V14ZM26 15C26 15.8333 25.9167 16 25.5 16C25.1667 16 25 16.1667 25 16.5C25 16.8333 24.8333 17 24.5 17C24.1667 17 24 17.1667 24 17.5C24 17.8333 23.8333 18 23.5 18C23.1667 18 23 18.1667 23 18.5C23 18.8333 22.8333 19 22.5 19C22.0333 19 22 19.1667 22 21.5C22 23.8333 22.0333 24 22.5 24C22.8333 24 23 24.1667 23 24.5C23 24.8333 23.1667 25 23.5 25C23.8333 25 24 25.1667 24 25.5C24 25.9167 24.1667 26 25 26C25.8333 26 26 26.0833 26 26.5C26 26.9167 26.1667 27 27 27C27.8333 27 28 27.0833 28 27.5C28 27.8333 28.1667 28 28.5 28C28.8333 28 29 28.1667 29 28.5C29 28.8333 29.1667 29 29.5 29C29.9445 29 30 29.1667 30 30.5C30 31.8333 29.9445 32 29.5 32C29.1667 32 29 32.1668 29 32.5C29 32.9582 28.8333 33 27 33C25.1667 33 25 32.9582 25 32.5C25 32.0832 24.8333 32 24 32H23V33.5C23 34.8333 23.0555 35 23.5 35C23.8333 35 24 35.1668 24 35.5C24 35.9168 24.1667 36 25 36H26V37V38H27.5H29V37C29 36.1668 29.0833 36 29.5 36C29.8333 36 30 35.8332 30 35.5C30 35.0832 30.1667 35 31 35C31.8333 35 32 34.9168 32 34.5C32 34.1668 32.1667 34 32.5 34C32.9167 34 33 33.8332 33 33C33 32.1668 33.0832 32 33.5 32C33.9445 32 34 31.8333 34 30.5C34 29.1667 33.9445 29 33.5 29C33.0832 29 33 28.8333 33 28C33 27.1667 32.9167 27 32.5 27C32.1667 27 32 26.8333 32 26.5C32 26.1667 31.8333 26 31.5 26C31.1667 26 31 25.8333 31 25.5C31 25.0833 30.8333 25 30 25C29.1667 25 29 24.9167 29 24.5C29 24.0833 28.8333 24 28 24C27.1667 24 27 23.9167 27 23.5C27 23.1667 26.8333 23 26.5 23C26.0417 23 26 22.8333 26 21V19H28.5C30.8333 19 31 19.0333 31 19.5C31 19.8333 31.1667 20 31.5 20C31.9445 20 32 19.8333 32 18.5C32 17.1667 31.9445 17 31.5 17C31.1667 17 31 16.8333 31 16.5C31 16.0833 30.8333 16 30 16H29V15V14H27.5H26V15ZM6 20V21H7H8V20V19H7H6V20ZM43 26V30H45C46.8333 30 47 29.9583 47 29.5C47 29.0833 46.8332 29 46 29H45V28C45 27.1667 44.9168 27 44.5 27C44.0832 27 44 26.8333 44 26C44 25.1667 44.0832 25 44.5 25C44.9168 25 45 24.8333 45 24V23H46C46.8332 23 47 22.9167 47 22.5C47 22.0417 46.8333 22 45 22H43V26ZM50 22.5C50 22.8333 50.1668 23 50.5 23C50.8332 23 51 23.1667 51 23.5C51 23.8333 51.1668 24 51.5 24C51.9582 24 52 24.1667 52 26C52 27.8333 51.9582 28 51.5 28C51.1668 28 51 28.1667 51 28.5C51 28.8333 50.8332 29 50.5 29C50.1668 29 50 29.1667 50 29.5C50 29.9872 50.1667 30 56.5 30H63V26V22H56.5C50.1667 22 50 22.0128 50 22.5ZM6 26V27H7H8V26V25H7H6V26ZM47 26V27H48H49V26V25H48H47V26ZM6 32V33H7H8V32V31H7H6V32ZM57 40C57 46.8333 56.988 47 56.5 47C56.0832 47 56 47.1668 56 48V49H57C57.8332 49 58 48.9168 58 48.5C58 48.1668 58.1668 48 58.5 48C58.8332 48 59 47.8332 59 47.5C59 47.1668 59.1668 47 59.5 47C59.988 47 60 46.8333 60 40V33H58.5H57V40ZM6 38V39H7H8V38V37H7H6V38ZM6 44.5V46H7H8V44.5V43H7H6V44.5Z" fill="#344454"/>
<path fill-rule="evenodd" clip-rule="evenodd" d="M11 26V41H27H43V37C43 33.1667 42.9792 33 42.5 33C42.0833 33 42 32.8333 42 32C42 31.1667 41.9167 31 41.5 31C41.0168 31 41 30.8333 41 26C41 21.1667 41.0168 21 41.5 21C41.9167 21 42 20.8333 42 20C42 19.1667 42.0833 19 42.5 19C42.9792 19 43 18.8333 43 15V11H27H11V26ZM26 15C26 15.8333 25.9167 16 25.5 16C25.1667 16 25 16.1667 25 16.5C25 16.8333 24.8333 17 24.5 17C24.1667 17 24 17.1667 24 17.5C24 17.8333 23.8333 18 23.5 18C23.1667 18 23 18.1667 23 18.5C23 18.9445 22.8333 19 21.5 19H20V26V33H21.5H23V34C23 34.8333 23.0833 35 23.5 35C23.8333 35 24 35.1667 24 35.5C24 35.9167 24.1667 36 25 36H26V37V38H27.5H29V37C29 36.1667 29.0833 36 29.5 36C29.8333 36 30 35.8333 30 35.5C30 35.0833 30.1667 35 31 35C31.8333 35 32 34.9167 32 34.5C32 34.1667 32.1667 34 32.5 34C32.8333 34 33 33.8333 33 33.5C33 33.1667 33.1667 33 33.5 33C33.988 33 34 32.8333 34 26V19H33H32V18C32 17.1667 31.9167 17 31.5 17C31.1667 17 31 16.8333 31 16.5C31 16.0833 30.8333 16 30 16H29V15V14H27.5H26V15Z" fill="#FECE01" fill-opacity="0.6"/>
</g>
<defs>
<clipPath id="clip0_2_8297">
<rect width="65" height="52" fill="white" transform="translate(0.5)"/>
</clipPath>
</defs>
</svg>
