<svg width="64" height="56" viewBox="0 0 64 56" fill="none" xmlns="http://www.w3.org/2000/svg">
<g clip-path="url(#clip0_2_8275)">
<path fill-rule="evenodd" clip-rule="evenodd" d="M17 0.5C17 0.83325 16.8333 1 16.5 1C16.0333 1 16 1.16675 16 3.5V6H9C2.16675 6 2 6.012 2 6.5C2 6.83325 1.83325 7 1.5 7C1.16675 7 1 7.16675 1 7.5C1 7.83325 0.83325 8 0.5 8C0.00400001 8 0 8.16675 0 29.5C0 50.8333 0.00400001 51 0.5 51C0.83325 51 1 51.1668 1 51.5C1 51.9972 1.16675 52 32 52C62.461 52 63 51.9915 63 51.5175C63 51.2073 63.201 51.0063 63.5625 50.955L64.125 50.875L64.189 29.347L64.2527 7.81875L63.6265 7.9385C63.1175 8.03575 63 7.959 63 7.52925C63 7.16675 62.8425 7 62.5 7C62.1668 7 62 6.83325 62 6.5C62 6.012 61.8333 6 55 6H48V3.5C48 1.16675 47.9668 1 47.5 1C47.1668 1 47 0.83325 47 0.5C47 0.00549999 46.8333 0 32 0C17.1667 0 17 0.00549999 17 0.5ZM19 4.5V6H32H45V4.5V3H32H19V4.5ZM0.1195 29.5C0.1195 41.3937 0.15 46.2595 0.1875 40.3125C0.22475 34.3657 0.22475 24.6345 0.1875 18.6875C0.15 12.7407 0.1195 17.6063 0.1195 29.5ZM3 9.5C3 9.83325 2.83325 10 2.5 10C2.00425 10 2 10.1667 2 29.5C2 48.8333 2.00425 49 2.5 49C2.83325 49 3 49.1668 3 49.5C3 49.9972 3.16675 50 32 50C60.8333 50 61 49.9972 61 49.5C61 49.1668 61.1668 49 61.5 49C61.9958 49 62 48.8333 62 29.5C62 10.1667 61.9958 10 61.5 10C61.1668 10 61 9.83325 61 9.5C61 9.00275 60.8333 9 32 9C3.16675 9 3 9.00275 3 9.5ZM28 18.5C28 21.8333 27.9762 22 27.5 22C27.0555 22 27 22.1667 27 23.5V25H22.5H18V29C18 32.8333 18.0208 33 18.5 33C18.8333 33 19 33.1668 19 33.5C19 33.9793 19.1667 34 23 34H27V35.5C27 36.8333 27.0555 37 27.5 37C27.9722 37 28 37.1667 28 40C28 42.8333 28.0278 43 28.5 43C28.8333 43 29 43.1668 29 43.5C29 43.9723 29.1667 44 32 44C34.8333 44 35 43.9723 35 43.5C35 43.1668 35.1668 43 35.5 43C35.9723 43 36 42.8333 36 40C36 37.1667 36.0277 37 36.5 37C36.9445 37 37 36.8333 37 35.5V34H41C44.8333 34 45 33.9793 45 33.5C45 33.1668 45.1668 33 45.5 33C45.9793 33 46 32.8333 46 29V25H41.5H37V23.5C37 22.1667 36.9445 22 36.5 22C36.0238 22 36 21.8333 36 18.5V15H32H28V18.5ZM30 21.5C30 25.8333 29.9815 26 29.5 26C29.1667 26 29 26.1667 29 26.5C29 26.9815 28.8333 27 24.5 27H20V29.5V32H22.5C24.8333 32 25 31.9667 25 31.5C25 31.0555 25.1667 31 26.5 31C27.8333 31 28 31.0555 28 31.5C28 31.9167 28.1667 32 29 32H30V37V42H32H34V37V32H35C35.8332 32 36 31.9167 36 31.5C36 31.0555 36.1667 31 37.5 31C38.8333 31 39 31.0555 39 31.5C39 31.9667 39.1667 32 41.5 32H44V29.5V27H39.5C35.1667 27 35 26.9815 35 26.5C35 26.1667 34.8332 26 34.5 26C34.0185 26 34 25.8333 34 21.5V17H32H30V21.5ZM4 53.5C4 53.8332 3.83325 54 3.5 54C3.16675 54 3 54.1668 3 54.5C3 54.8332 3.16675 55 3.5 55C3.83325 55 4 55.1668 4 55.5C4 55.9847 4.16675 56 9.5 56H15V55C15 54.1668 14.9167 54 14.5 54C14.1667 54 14 53.8332 14 53.5C14 53.0168 13.8333 53 9 53C4.16675 53 4 53.0168 4 53.5ZM50 53.5C50 53.8332 49.8332 54 49.5 54C49.0832 54 49 54.1668 49 55V56H54.5C59.8333 56 60 55.9847 60 55.5C60 55.1668 60.1668 55 60.5 55C60.8332 55 61 54.8332 61 54.5C61 54.1668 60.8332 54 60.5 54C60.1668 54 60 53.8332 60 53.5C60 53.0168 59.8333 53 55 53C50.1667 53 50 53.0168 50 53.5Z" fill="#354354"/>
<path fill-rule="evenodd" clip-rule="evenodd" d="M16 29C16 43.8333 16.0055 44 16.5 44C16.8332 44 17 44.1667 17 44.5C17 44.9945 17.1667 45 32 45C46.8333 45 47 44.9945 47 44.5C47 44.1667 47.1667 44 47.5 44C47.9945 44 48 43.8333 48 29V14H32H16V29ZM28 18.5C28 21.8333 27.9762 22 27.5 22C27.1667 22 27 22.1667 27 22.5C27 22.9167 26.8333 23 26 23H25V24V25H21.5H18V29C18 32.8333 18.0208 33 18.5 33C18.8333 33 19 33.1667 19 33.5C19 33.9722 19.1667 34 22 34H25V35V36H26C26.8333 36 27 36.0833 27 36.5C27 36.8333 27.1667 37 27.5 37C27.9722 37 28 37.1667 28 40C28 42.8333 28.0278 43 28.5 43C28.8333 43 29 43.1667 29 43.5C29 43.9722 29.1667 44 32 44C34.8333 44 35 43.9722 35 43.5C35 43.1667 35.1667 43 35.5 43C35.9722 43 36 42.8333 36 40C36 37.1667 36.0278 37 36.5 37C36.8333 37 37 36.8333 37 36.5C37 36.0833 37.1667 36 38 36H39V35V34H42C44.8333 34 45 33.9722 45 33.5C45 33.1667 45.1667 33 45.5 33C45.9792 33 46 32.8333 46 29V25H42.5H39V24V23H38C37.1667 23 37 22.9167 37 22.5C37 22.1667 36.8333 22 36.5 22C36.0238 22 36 21.8333 36 18.5V15H32H28V18.5ZM30 20V23H32H34V20V17H32H30V20ZM20 29.5V32H22.5H25V29.5V27H22.5H20V29.5ZM39 29.5V32H41.5H44V29.5V27H41.5H39V29.5ZM30 39V42H32H34V39V36H32H30V39Z" fill="#FECE01" fill-opacity="0.6"/>
</g>
<defs>
<clipPath id="clip0_2_8275">
<rect width="64" height="56" fill="white"/>
</clipPath>
</defs>
</svg>
